<svg width="163" height="17" viewBox="0 0 163 17" fill="none" xmlns="http://www.w3.org/2000/svg">
<path d="M1 17V1H7.15704C8.31938 1 9.28535 1.18229 10.055 1.54687C10.8298 1.90625 11.4084 2.39844 11.7906 3.02343C12.178 3.64843 12.3717 4.35676 12.3717 5.14843C12.3717 5.79947 12.2461 6.35675 11.9948 6.8203C11.7435 7.27861 11.4057 7.65103 10.9817 7.93751C10.5576 8.22393 10.0838 8.42965 9.56022 8.55467V8.71095C10.1309 8.74216 10.678 8.91667 11.2016 9.23436C11.7304 9.54687 12.1623 9.98957 12.4974 10.5625C12.8325 11.1354 13 11.8281 13 12.6406C13 13.4687 12.7984 14.2135 12.3953 14.875C11.9921 15.5312 11.3848 16.0494 10.5733 16.4297C9.7618 16.8099 8.74082 17 7.51046 17H1ZM3.91361 14.5781H7.04712C8.10469 14.5781 8.86649 14.3776 9.33247 13.9765C9.80365 13.5703 10.0392 13.0495 10.0392 12.4141C10.0392 11.9401 9.92148 11.513 9.68588 11.1328C9.45029 10.7474 9.11519 10.4453 8.68065 10.2266C8.2461 10.0026 7.72774 9.89058 7.12567 9.89058H3.91361V14.5781ZM3.91361 7.80469H6.79584C7.29846 7.80469 7.75132 7.71351 8.15444 7.53126C8.55761 7.34376 8.87433 7.08069 9.10472 6.74216C9.34031 6.39844 9.45813 5.99218 9.45813 5.52343C9.45813 4.90364 9.23823 4.39323 8.79841 3.99218C8.36387 3.59114 7.71726 3.39062 6.85864 3.39062H3.91361V7.80469Z" fill="white"/>
<path d="M16.9164 17H14L19.3099 1H22.6828L28 17H25.0836L21.0553 4.28124H20.9374L16.9164 17ZM17.0121 10.7266H24.9658V13.0547H17.0121V10.7266Z" fill="white"/>
<path d="M43 5.4677H40.3064C40.2296 5.00127 40.0879 4.58809 39.8814 4.22814C39.675 3.86312 39.4181 3.55387 39.1108 3.30038C38.8035 3.0469 38.453 2.85679 38.0593 2.73004C37.6703 2.59823 37.2502 2.53232 36.7989 2.53232C35.9971 2.53232 35.2864 2.74525 34.667 3.17111C34.0476 3.59189 33.5627 4.2104 33.2122 5.02662C32.8617 5.8378 32.6864 6.82893 32.6864 8.00001C32.6864 9.19139 32.8617 10.1952 33.2122 11.0114C33.5675 11.8225 34.0525 12.436 34.667 12.8517C35.2864 13.2624 35.9946 13.4677 36.7917 13.4677C37.2334 13.4677 37.6463 13.4069 38.0305 13.2852C38.4194 13.1584 38.7675 12.9734 39.0748 12.7301C39.3869 12.4867 39.6486 12.1876 39.8598 11.8327C40.0759 11.4778 40.2248 11.0722 40.3064 10.616L43 10.6312C42.8992 11.3714 42.6807 12.0659 42.3446 12.7148C42.0133 13.3638 41.5788 13.9366 41.041 14.4335C40.5032 14.9252 39.8743 15.3105 39.154 15.5894C38.4338 15.8631 37.6343 16 36.7557 16C35.4593 16 34.3021 15.6832 33.2842 15.0495C32.2663 14.4157 31.4644 13.5007 30.8787 12.3042C30.2929 11.1077 30 9.67303 30 8.00001C30 6.32195 30.2953 4.88721 30.8859 3.69582C31.4764 2.49937 32.2807 1.58429 33.2986 0.95057C34.3165 0.316859 35.4689 0 36.7557 0C37.5767 0 38.3402 0.121673 39.046 0.365018C39.7518 0.608365 40.3808 0.965782 40.933 1.43726C41.4852 1.90368 41.9389 2.47656 42.2942 3.1559C42.6543 3.83017 42.8896 4.60077 43 5.4677Z" fill="white"/>
<path d="M61 8.00001C61 9.67808 60.6925 11.1154 60.0775 12.3118C59.4674 13.5032 58.6345 14.4157 57.578 15.0495C56.527 15.6832 55.334 16 54.0001 16C52.666 16 51.4708 15.6832 50.4145 15.0495C49.3631 14.4107 48.53 13.4956 47.915 12.3042C47.305 11.1077 47 9.67303 47 8.00001C47 6.32195 47.305 4.88721 47.915 3.69582C48.53 2.49937 49.3631 1.58429 50.4145 0.95057C51.4708 0.316859 52.666 0 54.0001 0C55.334 0 56.527 0.316859 57.578 0.95057C58.6345 1.58429 59.4674 2.49937 60.0775 3.69582C60.6925 4.88721 61 6.32195 61 8.00001ZM58.2256 8.00001C58.2256 6.81879 58.0444 5.82256 57.6822 5.01141C57.3253 4.19519 56.8291 3.57922 56.1946 3.16351C55.5596 2.74272 54.8283 2.53232 54.0001 2.53232C53.1718 2.53232 52.4404 2.74272 51.8056 3.16351C51.1708 3.57922 50.6723 4.19519 50.3104 5.01141C49.9533 5.82256 49.7747 6.81879 49.7747 8.00001C49.7747 9.18124 49.9533 10.18 50.3104 10.9962C50.6723 11.8074 51.1708 12.4233 51.8056 12.8441C52.4404 13.2598 53.1718 13.4677 54.0001 13.4677C54.8283 13.4677 55.5596 13.2598 56.1946 12.8441C56.8291 12.4233 57.3253 11.8074 57.6822 10.9962C58.0444 10.18 58.2256 9.18124 58.2256 8.00001Z" fill="white"/>
<path d="M76 1V17H73.6473L66.7665 6.10155H66.6454V17H64V1H66.3672L73.2408 11.9062H73.3692V1H76Z" fill="white"/>
<path d="M96.1771 5.18632C96.0583 4.77567 95.8937 4.40812 95.6842 4.08366C95.4789 3.75412 95.2315 3.47276 94.9407 3.23955C94.6547 3.00634 94.3259 2.83143 93.9544 2.71483C93.5829 2.59316 93.1781 2.53232 92.7394 2.53232C91.9532 2.53232 91.2529 2.74272 90.6381 3.16351C90.0239 3.58429 89.5403 4.20279 89.1876 5.01902C88.8396 5.83015 88.6656 6.81879 88.6656 7.98482C88.6656 9.16095 88.8396 10.1572 89.1876 10.9734C89.5351 11.7896 90.0192 12.4106 90.6381 12.8365C91.2576 13.2573 91.9772 13.4677 92.7967 13.4677C93.5402 13.4677 94.1832 13.3156 94.7266 13.0114C95.2742 12.7072 95.6962 12.2763 95.9916 11.7187C96.287 11.1559 96.4345 10.4968 96.4345 9.74145L97.0347 9.84029H93.0614V7.63501H99V9.50572C99 10.8391 98.7332 11.9924 98.1997 12.9658C97.6662 13.9392 96.9326 14.6895 95.9984 15.2168C95.0647 15.7389 93.9925 16 92.7827 16C91.4343 16 90.25 15.6781 89.2303 15.0343C88.2154 14.3853 87.4224 13.4652 86.8503 12.2738C86.2834 11.0773 86 9.65779 86 8.0152C86 6.75792 86.1667 5.63501 86.5002 4.64639C86.8383 3.6578 87.3104 2.81876 87.9153 2.12928C88.5207 1.43473 89.2303 0.907478 90.0452 0.547527C90.8601 0.18251 91.7463 0 92.704 0C93.5136 0 94.2691 0.126743 94.9694 0.38023C95.6696 0.628644 96.2917 0.983522 96.8346 1.44487C97.3828 1.90621 97.8329 2.45374 98.1856 3.08746C98.5379 3.72117 98.7692 4.42079 98.8786 5.18632H96.1771Z" fill="white"/>
<path d="M103.916 17H101L106.31 1H109.683L115 17H112.084L108.055 4.28124H107.937L103.916 17ZM104.012 10.7266H111.965V13.0547H104.012V10.7266Z" fill="white"/>
<path d="M118 1H121.382L125.911 12.5937H126.089L130.618 1H134V17H131.348V6.0078H131.207L126.991 16.9531H125.009L120.793 5.98437H120.652V17H118V1Z" fill="white"/>
<path d="M138 17V1H147.941V3.42969H140.769V7.77343H147.425V10.2031H140.769V14.5703H148V17H138Z" fill="white"/>
<path d="M160.061 4.4879C159.99 3.82471 159.689 3.30834 159.16 2.93878C158.636 2.56921 157.954 2.38443 157.114 2.38443C156.524 2.38443 156.017 2.47303 155.595 2.65021C155.173 2.8274 154.85 3.06787 154.626 3.37161C154.402 3.67537 154.287 4.02215 154.282 4.41196C154.282 4.73596 154.356 5.01693 154.504 5.25485C154.656 5.49279 154.863 5.69529 155.122 5.86237C155.381 6.02435 155.669 6.16103 155.985 6.27241C156.3 6.3838 156.619 6.47746 156.939 6.55342L158.404 6.9179C158.995 7.05459 159.562 7.23938 160.107 7.47222C160.657 7.70511 161.147 7.99874 161.58 8.3531C162.018 8.70751 162.364 9.13527 162.618 9.63644C162.873 10.1376 163 10.7249 163 11.3982C163 12.3095 162.766 13.1118 162.298 13.8054C161.83 14.4939 161.153 15.033 160.267 15.4229C159.387 15.8076 158.32 16 157.069 16C155.852 16 154.797 15.8127 153.901 15.438C153.01 15.0634 152.313 14.5167 151.809 13.7978C151.311 13.079 151.041 12.2031 151 11.1704H153.786C153.827 11.7121 153.995 12.1627 154.29 12.522C154.585 12.8815 154.97 13.1498 155.443 13.327C155.921 13.5042 156.455 13.5928 157.046 13.5928C157.661 13.5928 158.201 13.5016 158.664 13.3194C159.132 13.1321 159.498 12.8739 159.763 12.5449C160.028 12.2107 160.163 11.8209 160.168 11.3754C160.163 10.9704 160.043 10.6363 159.809 10.373C159.575 10.1047 159.247 9.88196 158.825 9.70481C158.407 9.52256 157.919 9.36053 157.359 9.21881L155.58 8.76314C154.292 8.43409 153.274 7.93546 152.527 7.26722C151.784 6.59389 151.412 5.70039 151.412 4.58662C151.412 3.67031 151.662 2.8679 152.16 2.1794C152.664 1.4909 153.348 0.95681 154.214 0.577122C155.079 0.192374 156.059 0 157.153 0C158.262 0 159.234 0.192374 160.069 0.577122C160.909 0.95681 161.568 1.48584 162.046 2.16422C162.524 2.83752 162.771 3.61208 162.786 4.4879H160.061Z" fill="white"/>
</svg>
