<svg width="134" height="18" viewBox="0 0 134 18" fill="none" xmlns="http://www.w3.org/2000/svg">
<path d="M34.8437 11.5754C34.2812 11.5754 34 11.2917 34 10.7245V0.883008C34 0.315746 34.2812 0.0321104 34.8437 0.0321104C35.4062 0.0321104 35.6874 0.315746 35.6874 0.883008V5.02508H42.0962V0.883008C42.0962 0.315746 42.3775 0.0321104 42.9399 0.0321104C43.4916 0.0321104 43.7674 0.315746 43.7674 0.883008V10.7245C43.7674 11.2917 43.4916 11.5754 42.9399 11.5754C42.3775 11.5754 42.0962 11.2917 42.0962 10.7245V6.42184H35.6874V10.7245C35.6874 11.2917 35.4062 11.5754 34.8437 11.5754Z" fill="white"/>
<path d="M49.9751 11.6075C48.6771 11.6075 47.6549 11.2489 46.9086 10.5318C46.1622 9.804 45.789 8.81397 45.789 7.56171C45.789 6.75898 45.9513 6.05258 46.2758 5.44251C46.6111 4.82173 47.0708 4.34009 47.6549 3.99759C48.239 3.65509 48.9096 3.48385 49.6668 3.48385C50.7593 3.48385 51.6192 3.8317 52.2466 4.5274C52.8739 5.21239 53.1876 6.15961 53.1876 7.36906C53.1876 7.73296 52.9713 7.91491 52.5386 7.91491H47.3791C47.4981 9.54178 48.3688 10.3552 49.9913 10.3552C50.3158 10.3552 50.6565 10.3177 51.0135 10.2428C51.3704 10.1572 51.7165 10.0074 52.0519 9.7933C52.279 9.66486 52.4737 9.62205 52.636 9.66486C52.809 9.69697 52.9334 9.78795 53.0091 9.93779C53.0848 10.0769 53.0957 10.2375 53.0416 10.4194C52.9983 10.5907 52.8739 10.7405 52.6684 10.869C52.3006 11.1151 51.868 11.3024 51.3704 11.4309C50.8837 11.5486 50.4185 11.6075 49.9751 11.6075ZM49.7317 4.62372C49.0502 4.62372 48.5094 4.83243 48.1092 5.24985C47.709 5.66727 47.4656 6.22383 47.3791 6.91953H51.8085C51.776 6.19172 51.5813 5.62981 51.2244 5.2338C50.8674 4.82708 50.3699 4.62372 49.7317 4.62372Z" fill="white"/>
<path d="M57.5214 11.6075C56.6777 11.6075 56.0395 11.3666 55.6069 10.885C55.185 10.4034 54.9741 9.69697 54.9741 8.76581V0.850897C54.9741 0.305042 55.2445 0.0321104 55.7854 0.0321104C56.337 0.0321104 56.6128 0.305042 56.6128 0.850897V8.66948C56.6128 9.72908 57.0455 10.2589 57.9108 10.2589C58.0082 10.2589 58.0947 10.2535 58.1704 10.2428C58.2461 10.2321 58.3218 10.2268 58.3976 10.2268C58.5274 10.2161 58.6193 10.2535 58.6734 10.3392C58.7275 10.4141 58.7545 10.5746 58.7545 10.8208C58.7545 11.2596 58.549 11.5111 58.138 11.5754C58.0298 11.5861 57.9216 11.5914 57.8135 11.5914C57.7161 11.6021 57.6188 11.6075 57.5214 11.6075Z" fill="white"/>
<path d="M62.4808 11.6075C61.6371 11.6075 60.9989 11.3666 60.5662 10.885C60.1444 10.4034 59.9335 9.69697 59.9335 8.76581V0.850897C59.9335 0.305042 60.2039 0.0321104 60.7447 0.0321104C61.2964 0.0321104 61.5722 0.305042 61.5722 0.850897V8.66948C61.5722 9.72908 62.0049 10.2589 62.8702 10.2589C62.9675 10.2589 63.0541 10.2535 63.1298 10.2428C63.2055 10.2321 63.2812 10.2268 63.3569 10.2268C63.4867 10.2161 63.5787 10.2535 63.6328 10.3392C63.6868 10.4141 63.7139 10.5746 63.7139 10.8208C63.7139 11.2596 63.5084 11.5111 63.0973 11.5754C62.9892 11.5861 62.881 11.5914 62.7728 11.5914C62.6755 11.6021 62.5781 11.6075 62.4808 11.6075Z" fill="white"/>
<path d="M68.2533 11.6075C67.4529 11.6075 66.7606 11.4416 66.1765 11.1098C65.5924 10.778 65.1381 10.3124 64.8136 9.71303C64.4999 9.10295 64.3431 8.38049 64.3431 7.54566C64.3431 6.71082 64.4999 5.99371 64.8136 5.39434C65.1381 4.78427 65.5924 4.31333 66.1765 3.98153C66.7606 3.64974 67.4529 3.48385 68.2533 3.48385C69.0321 3.48385 69.7135 3.64974 70.2976 3.98153C70.8817 4.31333 71.336 4.78427 71.6605 5.39434C71.985 5.99371 72.1473 6.71082 72.1473 7.54566C72.1473 8.38049 71.985 9.10295 71.6605 9.71303C71.336 10.3124 70.8817 10.778 70.2976 11.1098C69.7135 11.4416 69.0321 11.6075 68.2533 11.6075ZM68.2533 10.3552C68.9239 10.3552 69.4648 10.1144 69.8758 9.63275C70.2868 9.15111 70.4923 8.45542 70.4923 7.54566C70.4923 6.6359 70.2868 5.94555 69.8758 5.47462C69.4648 4.99298 68.9239 4.75216 68.2533 4.75216C67.5719 4.75216 67.0256 4.99298 66.6146 5.47462C66.2036 5.94555 65.998 6.6359 65.998 7.54566C65.998 8.45542 66.2036 9.15111 66.6146 9.63275C67.0256 10.1144 67.5719 10.3552 68.2533 10.3552Z" fill="white"/>
<path d="M83.7984 11.6075C82.5545 11.6075 81.5053 11.3774 80.6508 10.9171C79.7963 10.4462 79.1473 9.77724 78.7038 8.9103C78.2711 8.04335 78.0548 7.0105 78.0548 5.81176C78.0548 4.62372 78.2765 3.59623 78.72 2.72928C79.1635 1.85163 79.8071 1.17734 80.6508 0.706403C81.4945 0.235468 82.5058 0 83.6848 0C84.3338 0 84.9666 0.0856248 85.5831 0.256874C86.2105 0.41742 86.7892 0.684996 87.3192 1.0596C87.5031 1.18804 87.6058 1.34859 87.6275 1.54124C87.6599 1.72319 87.6275 1.89979 87.5301 2.07104C87.4436 2.23159 87.3138 2.34397 87.1407 2.40819C86.9677 2.4617 86.773 2.42424 86.5566 2.29581C86.1348 2.00682 85.6913 1.79811 85.2262 1.66968C84.7611 1.53054 84.2473 1.46097 83.6848 1.46097C82.4193 1.46097 81.4566 1.84093 80.7968 2.60084C80.137 3.35006 79.8071 4.42036 79.8071 5.81176C79.8071 7.23527 80.1424 8.31628 80.813 9.05479C81.4945 9.7933 82.5112 10.1626 83.8633 10.1626C84.6854 10.1626 85.502 10.0288 86.3133 9.76119V6.72687H84.2203C83.7551 6.72687 83.5226 6.51281 83.5226 6.08469C83.5226 5.67797 83.7551 5.47462 84.2203 5.47462H87.0272C87.4923 5.47462 87.7248 5.70473 87.7248 6.16496V10.2107C87.7248 10.6174 87.5734 10.8797 87.2705 10.9974C86.8054 11.1793 86.2592 11.3292 85.6318 11.4469C85.0045 11.5539 84.3933 11.6075 83.7984 11.6075Z" fill="white"/>
<path d="M93.8488 11.6075C92.5508 11.6075 91.5287 11.2489 90.7823 10.5318C90.036 9.804 89.6628 8.81397 89.6628 7.56171C89.6628 6.75898 89.8251 6.05258 90.1496 5.44251C90.4849 4.82173 90.9446 4.34009 91.5287 3.99759C92.1128 3.65509 92.7834 3.48385 93.5406 3.48385C94.633 3.48385 95.493 3.8317 96.1203 4.5274C96.7477 5.21239 97.0614 6.15961 97.0614 7.36906C97.0614 7.73296 96.845 7.91491 96.4124 7.91491H91.2529C91.3718 9.54178 92.2426 10.3552 93.8651 10.3552C94.1896 10.3552 94.5303 10.3177 94.8872 10.2428C95.2442 10.1572 95.5903 10.0074 95.9256 9.7933C96.1528 9.66486 96.3475 9.62205 96.5097 9.66486C96.6828 9.69697 96.8072 9.78795 96.8829 9.93779C96.9586 10.0769 96.9694 10.2375 96.9153 10.4194C96.8721 10.5907 96.7477 10.7405 96.5422 10.869C96.1744 11.1151 95.7417 11.3024 95.2442 11.4309C94.7574 11.5486 94.2923 11.6075 93.8488 11.6075ZM93.6055 4.62372C92.924 4.62372 92.3832 4.83243 91.983 5.24985C91.5828 5.66727 91.3394 6.22383 91.2529 6.91953H95.6823C95.6498 6.19172 95.4551 5.62981 95.0982 5.2338C94.7412 4.82708 94.2436 4.62372 93.6055 4.62372Z" fill="white"/>
<path d="M102.288 11.6075C101.487 11.6075 100.795 11.4416 100.211 11.1098C99.6267 10.778 99.1724 10.3124 98.8479 9.71303C98.5342 9.10295 98.3774 8.38049 98.3774 7.54566C98.3774 6.71082 98.5342 5.99371 98.8479 5.39434C99.1724 4.78427 99.6267 4.31333 100.211 3.98153C100.795 3.64974 101.487 3.48385 102.288 3.48385C103.066 3.48385 103.748 3.64974 104.332 3.98153C104.916 4.31333 105.37 4.78427 105.695 5.39434C106.019 5.99371 106.182 6.71082 106.182 7.54566C106.182 8.38049 106.019 9.10295 105.695 9.71303C105.37 10.3124 104.916 10.778 104.332 11.1098C103.748 11.4416 103.066 11.6075 102.288 11.6075ZM102.288 10.3552C102.958 10.3552 103.499 10.1144 103.91 9.63275C104.321 9.15111 104.527 8.45542 104.527 7.54566C104.527 6.6359 104.321 5.94555 103.91 5.47462C103.499 4.99298 102.958 4.75216 102.288 4.75216C101.606 4.75216 101.06 4.99298 100.649 5.47462C100.238 5.94555 100.032 6.6359 100.032 7.54566C100.032 8.45542 100.238 9.15111 100.649 9.63275C101.06 10.1144 101.606 10.3552 102.288 10.3552Z" fill="white"/>
<path d="M108.849 11.5754C108.298 11.5754 108.022 11.3024 108.022 10.7566V4.33474C108.022 3.78888 108.287 3.51595 108.817 3.51595C109.347 3.51595 109.612 3.78888 109.612 4.33474V5.02508C109.828 4.54345 110.153 4.17419 110.585 3.91732C111.029 3.66045 111.564 3.5106 112.192 3.46779C112.592 3.43568 112.808 3.64974 112.841 4.10997C112.884 4.58091 112.651 4.83778 112.143 4.8806L111.835 4.9127C110.396 5.05184 109.677 5.78501 109.677 7.11218V10.7566C109.677 11.3024 109.401 11.5754 108.849 11.5754Z" fill="white"/>
<path d="M117.549 14.4973C116.965 14.4973 116.397 14.4384 115.846 14.3207C115.305 14.203 114.813 14.0103 114.369 13.7427C114.175 13.6357 114.056 13.5019 114.012 13.3414C113.969 13.1808 113.985 13.0256 114.061 12.8758C114.148 12.7259 114.261 12.6136 114.402 12.5386C114.553 12.4744 114.715 12.4905 114.888 12.5868C115.364 12.8437 115.813 13.0149 116.235 13.1005C116.668 13.1969 117.068 13.245 117.436 13.245C118.95 13.245 119.707 12.4958 119.707 10.9974V9.76119C119.48 10.2321 119.123 10.6014 118.636 10.869C118.16 11.1365 117.625 11.2703 117.03 11.2703C116.316 11.2703 115.694 11.1098 115.164 10.7887C114.634 10.4569 114.223 10.002 113.931 9.42404C113.639 8.83537 113.493 8.15038 113.493 7.36906C113.493 6.59844 113.639 5.92414 113.931 5.34618C114.223 4.75751 114.634 4.30263 115.164 3.98153C115.694 3.64974 116.316 3.48385 117.03 3.48385C117.625 3.48385 118.155 3.61763 118.62 3.88521C119.096 4.14208 119.448 4.49528 119.675 4.94481V4.33474C119.675 3.78888 119.945 3.51595 120.486 3.51595C121.027 3.51595 121.297 3.78888 121.297 4.33474V10.8047C121.297 12.0356 120.978 12.956 120.34 13.5661C119.702 14.1869 118.772 14.4973 117.549 14.4973ZM117.42 10.002C118.112 10.002 118.663 9.76654 119.074 9.2956C119.486 8.82467 119.691 8.18249 119.691 7.36906C119.691 6.55563 119.486 5.91879 119.074 5.45856C118.663 4.98763 118.112 4.75216 117.42 4.75216C116.727 4.75216 116.176 4.98763 115.765 5.45856C115.354 5.91879 115.148 6.55563 115.148 7.36906C115.148 8.18249 115.354 8.82467 115.765 9.2956C116.176 9.76654 116.727 10.002 117.42 10.002Z" fill="white"/>
<path d="M124.408 1.87839C124.084 1.87839 123.83 1.79811 123.646 1.63757C123.473 1.47702 123.386 1.25226 123.386 0.963279C123.386 0.353205 123.727 0.0481655 124.408 0.0481655C125.09 0.0481655 125.431 0.353205 125.431 0.963279C125.431 1.57335 125.09 1.87839 124.408 1.87839ZM124.408 11.5593C123.868 11.5593 123.597 11.265 123.597 10.6763V4.41501C123.597 3.83705 123.868 3.54806 124.408 3.54806C124.96 3.54806 125.236 3.83705 125.236 4.41501V10.6763C125.236 11.265 124.96 11.5593 124.408 11.5593Z" fill="white"/>
<path d="M130.074 11.6075C129.522 11.6075 129.03 11.5004 128.597 11.2864C128.164 11.0723 127.818 10.7833 127.559 10.4194C127.31 10.0555 127.186 9.64345 127.186 9.18322C127.186 8.60526 127.332 8.15038 127.624 7.81858C127.926 7.48679 128.419 7.24597 129.1 7.09613C129.792 6.94629 130.723 6.87137 131.891 6.87137H132.442V6.45395C132.442 5.84387 132.313 5.40504 132.053 5.13747C131.793 4.86989 131.366 4.7361 130.771 4.7361C130.425 4.7361 130.063 4.77892 129.684 4.86454C129.316 4.95017 128.932 5.09466 128.532 5.29801C128.305 5.40504 128.116 5.4211 127.964 5.34618C127.824 5.27126 127.726 5.15352 127.672 4.99298C127.618 4.83243 127.624 4.66653 127.689 4.49529C127.753 4.32404 127.889 4.1956 128.094 4.10997C128.57 3.89591 129.041 3.74072 129.506 3.64439C129.971 3.53736 130.409 3.48385 130.82 3.48385C131.902 3.48385 132.702 3.74072 133.221 4.25447C133.74 4.75751 134 5.54954 134 6.63055V10.7566C134 11.3024 133.746 11.5754 133.237 11.5754C132.718 11.5754 132.459 11.3024 132.459 10.7566V10.1626C132.264 10.6121 131.961 10.9653 131.55 11.2222C131.139 11.479 130.647 11.6075 130.074 11.6075ZM130.398 10.4515C130.982 10.4515 131.469 10.2482 131.858 9.84146C132.248 9.43475 132.442 8.921 132.442 8.30022V7.86675H131.907C131.117 7.86675 130.495 7.90421 130.041 7.97913C129.598 8.05405 129.279 8.18249 129.084 8.36444C128.9 8.53569 128.808 8.77651 128.808 9.08689C128.808 9.49361 128.949 9.82541 129.23 10.0823C129.511 10.3285 129.901 10.4515 130.398 10.4515Z" fill="white"/>
<path d="M34.1333 17.2089C34.0444 17.2089 34 17.162 34 17.0683V14.2248C34 14.131 34.0459 14.0841 34.1377 14.0841H35.1815C35.5161 14.0841 35.7707 14.1632 35.9454 14.3215C36.1231 14.4797 36.2119 14.7053 36.2119 14.9983C36.2119 15.2883 36.1231 15.5139 35.9454 15.6751C35.7707 15.8333 35.5161 15.9124 35.1815 15.9124H34.2709V17.0683C34.2709 17.162 34.2251 17.2089 34.1333 17.2089ZM34.2709 15.6751H35.1593C35.6774 15.6751 35.9365 15.4495 35.9365 14.9983C35.9365 14.5441 35.6774 14.3171 35.1593 14.3171H34.2709V15.6751Z" fill="white"/>
<path d="M37.4801 17.2177C37.2788 17.2177 37.1041 17.1738 36.956 17.0859C36.808 16.995 36.6925 16.8676 36.6096 16.7035C36.5296 16.5365 36.4897 16.3402 36.4897 16.1146C36.4897 15.8919 36.5296 15.6985 36.6096 15.5344C36.6925 15.3674 36.808 15.2385 36.956 15.1477C37.1041 15.0569 37.2788 15.0115 37.4801 15.0115C37.6844 15.0115 37.8606 15.0569 38.0087 15.1477C38.1567 15.2385 38.2707 15.3674 38.3507 15.5344C38.4336 15.6985 38.475 15.8919 38.475 16.1146C38.475 16.3402 38.4336 16.5365 38.3507 16.7035C38.2707 16.8676 38.1567 16.995 38.0087 17.0859C37.8606 17.1738 37.6844 17.2177 37.4801 17.2177ZM37.4801 16.9936C37.6993 16.9936 37.874 16.9174 38.0042 16.765C38.1345 16.6097 38.1997 16.3929 38.1997 16.1146C38.1997 15.8362 38.1345 15.6209 38.0042 15.4685C37.874 15.3162 37.6993 15.24 37.4801 15.24C37.261 15.24 37.0863 15.3162 36.956 15.4685C36.8287 15.6209 36.765 15.8362 36.765 16.1146C36.765 16.3929 36.8287 16.6097 36.956 16.765C37.0863 16.9174 37.261 16.9936 37.4801 16.9936Z" fill="white"/>
<path d="M39.7321 17.2089C39.6462 17.2089 39.5855 17.1635 39.55 17.0727L38.8793 15.2224C38.8556 15.158 38.8556 15.1081 38.8793 15.073C38.9059 15.0378 38.9444 15.0202 38.9948 15.0202C39.0599 15.0202 39.1058 15.0583 39.1325 15.1345L39.7365 16.8661L40.3628 15.1477C40.3924 15.0627 40.4486 15.0202 40.5315 15.0202C40.6145 15.0202 40.6722 15.0627 40.7048 15.1477L41.3133 16.8705L41.9351 15.1301C41.9499 15.0891 41.9676 15.0613 41.9884 15.0466C42.0091 15.029 42.0372 15.0202 42.0728 15.0202C42.132 15.0202 42.1675 15.0422 42.1794 15.0862C42.1942 15.1272 42.1927 15.1726 42.1749 15.2224L41.4998 17.0727C41.4643 17.1635 41.4036 17.2089 41.3177 17.2089C41.2289 17.2089 41.1682 17.1635 41.1356 17.0727L40.5271 15.3982L39.9186 17.0727C39.8831 17.1635 39.8209 17.2089 39.7321 17.2089Z" fill="white"/>
<path d="M43.6455 17.2177C43.3139 17.2177 43.0518 17.121 42.8594 16.9276C42.6699 16.7313 42.5751 16.4632 42.5751 16.1234C42.5751 15.9036 42.618 15.7102 42.7039 15.5432C42.7898 15.3762 42.9082 15.2459 43.0592 15.1521C43.2132 15.0583 43.3894 15.0115 43.5878 15.0115C43.875 15.0115 44.0986 15.1037 44.2585 15.2883C44.4184 15.4729 44.4983 15.7264 44.4983 16.0487C44.4983 16.1307 44.4568 16.1717 44.3739 16.1717H42.8416C42.8505 16.4354 42.923 16.639 43.0592 16.7826C43.1984 16.9232 43.3909 16.9936 43.6366 16.9936C43.7462 16.9936 43.8513 16.9804 43.952 16.954C44.0556 16.9247 44.1563 16.8734 44.254 16.8002C44.3073 16.765 44.3532 16.7577 44.3917 16.7782C44.4302 16.7958 44.4509 16.8266 44.4539 16.8705C44.4598 16.9115 44.4376 16.9496 44.3873 16.9848C44.2925 17.061 44.177 17.1196 44.0408 17.1606C43.9076 17.1987 43.7758 17.2177 43.6455 17.2177ZM43.5922 15.2268C43.3672 15.2268 43.191 15.2971 43.0637 15.4378C42.9393 15.5755 42.8668 15.7542 42.846 15.9739H44.254C44.2481 15.7395 44.1889 15.5564 44.0764 15.4246C43.9638 15.2927 43.8025 15.2268 43.5922 15.2268Z" fill="white"/>
<path d="M45.1883 17.2089C45.0965 17.2089 45.0506 17.1635 45.0506 17.0727V15.1609C45.0506 15.0671 45.0965 15.0202 45.1883 15.0202C45.2741 15.0202 45.3171 15.0671 45.3171 15.1609V15.4378C45.3822 15.3001 45.4784 15.1946 45.6058 15.1213C45.7361 15.0481 45.8856 15.01 46.0544 15.0071C46.0899 15.0041 46.1195 15.0115 46.1432 15.029C46.1669 15.0466 46.1787 15.0744 46.1787 15.1125C46.1817 15.1946 46.1388 15.24 46.0499 15.2488L45.9877 15.2532C45.7775 15.2708 45.6147 15.3396 45.4992 15.4597C45.3837 15.5769 45.326 15.7352 45.326 15.9344V17.0727C45.326 17.1635 45.2801 17.2089 45.1883 17.2089Z" fill="white"/>
<path d="M47.4798 17.2177C47.1482 17.2177 46.8861 17.121 46.6937 16.9276C46.5042 16.7313 46.4094 16.4632 46.4094 16.1234C46.4094 15.9036 46.4523 15.7102 46.5382 15.5432C46.6241 15.3762 46.7425 15.2459 46.8935 15.1521C47.0475 15.0583 47.2237 15.0115 47.4221 15.0115C47.7093 15.0115 47.9329 15.1037 48.0928 15.2883C48.2527 15.4729 48.3326 15.7264 48.3326 16.0487C48.3326 16.1307 48.2911 16.1717 48.2082 16.1717H46.6759C46.6848 16.4354 46.7573 16.639 46.8935 16.7826C47.0327 16.9232 47.2252 16.9936 47.4709 16.9936C47.5805 16.9936 47.6856 16.9804 47.7863 16.954C47.8899 16.9247 47.9906 16.8734 48.0883 16.8002C48.1416 16.765 48.1875 16.7577 48.226 16.7782C48.2645 16.7958 48.2852 16.8266 48.2882 16.8705C48.2941 16.9115 48.2719 16.9496 48.2216 16.9848C48.1268 17.061 48.0113 17.1196 47.8751 17.1606C47.7419 17.1987 47.6101 17.2177 47.4798 17.2177ZM47.4265 15.2268C47.2015 15.2268 47.0253 15.2971 46.898 15.4378C46.7736 15.5755 46.7011 15.7542 46.6803 15.9739H48.0883C48.0824 15.7395 48.0232 15.5564 47.9107 15.4246C47.7981 15.2927 47.6368 15.2268 47.4265 15.2268Z" fill="white"/>
<path d="M49.7066 17.2177C49.5111 17.2177 49.3424 17.1738 49.2002 17.0859C49.0581 16.995 48.9471 16.8676 48.8671 16.7035C48.7901 16.5365 48.7516 16.3402 48.7516 16.1146C48.7516 15.7776 48.8375 15.5095 49.0092 15.3103C49.181 15.1111 49.4134 15.0115 49.7066 15.0115C49.8783 15.0115 50.0293 15.051 50.1596 15.1301C50.2929 15.2063 50.392 15.3118 50.4572 15.4466V14.194C50.4572 14.1032 50.5016 14.0578 50.5904 14.0578C50.6822 14.0578 50.7281 14.1032 50.7281 14.194V17.0727C50.7281 17.1635 50.6837 17.2089 50.5949 17.2089C50.5031 17.2089 50.4572 17.1635 50.4572 17.0727V16.7826C50.392 16.9174 50.2929 17.0243 50.1596 17.1034C50.0293 17.1796 49.8783 17.2177 49.7066 17.2177ZM49.7421 16.9936C49.9612 16.9936 50.1359 16.9174 50.2662 16.765C50.3965 16.6097 50.4616 16.3929 50.4616 16.1146C50.4616 15.8362 50.3965 15.6209 50.2662 15.4685C50.1359 15.3162 49.9612 15.24 49.7421 15.24C49.523 15.24 49.3483 15.3162 49.218 15.4685C49.0907 15.6209 49.027 15.8362 49.027 16.1146C49.027 16.3929 49.0907 16.6097 49.218 16.765C49.3483 16.9174 49.523 16.9936 49.7421 16.9936Z" fill="white"/>
<path d="M53.5847 17.2177C53.41 17.2177 53.256 17.1796 53.1228 17.1034C52.9925 17.0243 52.8948 16.9174 52.8296 16.7826V17.0727C52.8296 17.1635 52.7852 17.2089 52.6964 17.2089C52.6046 17.2089 52.5587 17.1635 52.5587 17.0727V14.194C52.5587 14.1032 52.6046 14.0578 52.6964 14.0578C52.7852 14.0578 52.8296 14.1032 52.8296 14.194V15.4466C52.8948 15.3118 52.9925 15.2063 53.1228 15.1301C53.256 15.051 53.41 15.0115 53.5847 15.0115C53.8749 15.0115 54.1058 15.1111 54.2776 15.3103C54.4523 15.5095 54.5396 15.7776 54.5396 16.1146C54.5396 16.3402 54.4997 16.5365 54.4197 16.7035C54.3427 16.8676 54.2317 16.995 54.0866 17.0859C53.9445 17.1738 53.7772 17.2177 53.5847 17.2177ZM53.5447 16.9936C53.7638 16.9936 53.9385 16.9174 54.0688 16.765C54.1991 16.6097 54.2643 16.3929 54.2643 16.1146C54.2643 15.8362 54.1991 15.6209 54.0688 15.4685C53.9385 15.3162 53.7638 15.24 53.5447 15.24C53.3256 15.24 53.1509 15.3162 53.0206 15.4685C52.8903 15.6209 52.8252 15.8362 52.8252 16.1146C52.8252 16.3929 52.8903 16.6097 53.0206 16.765C53.1509 16.9174 53.3256 16.9936 53.5447 16.9936Z" fill="white"/>
<path d="M55.5405 18C55.4842 18 55.4472 17.9795 55.4294 17.9385C55.4146 17.9004 55.4176 17.855 55.4383 17.8022L55.7181 17.1738L54.8742 15.2224C54.8505 15.1697 54.8491 15.1228 54.8698 15.0818C54.8905 15.0408 54.932 15.0202 54.9942 15.0202C55.0563 15.0202 55.1022 15.0569 55.1318 15.1301L55.8647 16.8881L56.602 15.1301C56.6198 15.0891 56.639 15.0613 56.6597 15.0466C56.6805 15.029 56.7101 15.0202 56.7486 15.0202C56.8048 15.0202 56.8404 15.0408 56.8552 15.0818C56.8729 15.1228 56.8715 15.1682 56.8507 15.218L55.6915 17.8945C55.6559 17.9648 55.6056 18 55.5405 18Z" fill="white"/>
<path d="M58.6528 17.2089C58.564 17.2089 58.5196 17.162 58.5196 17.0683V14.1984C58.5196 14.1046 58.564 14.0578 58.6528 14.0578C58.7446 14.0578 58.7905 14.1046 58.7905 14.1984V17.0683C58.7905 17.162 58.7446 17.2089 58.6528 17.2089Z" fill="white"/>
<path d="M59.7415 17.2089C59.6586 17.2089 59.6172 17.165 59.6172 17.0771V14.1896C59.6172 14.1017 59.6572 14.0578 59.7371 14.0578C59.7756 14.0578 59.8052 14.0651 59.8259 14.0797C59.8467 14.0944 59.8659 14.1178 59.8837 14.1501L61.0918 16.4178L62.291 14.1501C62.3117 14.1178 62.331 14.0944 62.3487 14.0797C62.3695 14.0651 62.3991 14.0578 62.4376 14.0578C62.5175 14.0578 62.5575 14.1017 62.5575 14.1896V17.0771C62.5575 17.165 62.516 17.2089 62.4331 17.2089C62.3473 17.2089 62.3043 17.165 62.3043 17.0771V14.6071L61.2206 16.642C61.2028 16.6742 61.185 16.6976 61.1673 16.7123C61.1525 16.724 61.1288 16.7299 61.0962 16.7299C61.0607 16.7299 61.0326 16.7225 61.0118 16.7079C60.9941 16.6932 60.9778 16.6713 60.963 16.642L59.8659 14.6115V17.0771C59.8659 17.165 59.8245 17.2089 59.7415 17.2089Z" fill="white"/>
<path d="M63.2665 17.2089C63.2073 17.2089 63.1688 17.1913 63.151 17.1562C63.1333 17.1181 63.1362 17.0727 63.1599 17.0199L64.408 14.1808C64.4435 14.0988 64.4983 14.0578 64.5723 14.0578C64.6463 14.0578 64.7011 14.0988 64.7367 14.1808L65.9847 17.0199C66.0114 17.0727 66.0158 17.1181 65.9981 17.1562C65.9832 17.1913 65.9477 17.2089 65.8915 17.2089C65.85 17.2089 65.816 17.1987 65.7893 17.1782C65.7656 17.1547 65.7449 17.1239 65.7271 17.0859L65.4118 16.3563H63.7329L63.4175 17.0859C63.382 17.1679 63.3316 17.2089 63.2665 17.2089ZM64.5679 14.4181L63.835 16.1234H65.3096L64.5768 14.4181H64.5679Z" fill="white"/>
<path d="M66.7117 17.2089C66.6259 17.2089 66.5829 17.1635 66.5829 17.0727V14.1984C66.5829 14.1046 66.6214 14.0578 66.6984 14.0578C66.7339 14.0578 66.7606 14.0636 66.7783 14.0753C66.7991 14.0871 66.8198 14.109 66.8405 14.1413L68.7815 16.7255V14.1896C68.7815 14.1017 68.8244 14.0578 68.9103 14.0578C68.9932 14.0578 69.0346 14.1017 69.0346 14.1896V17.0727C69.0346 17.1635 68.9976 17.2089 68.9236 17.2089C68.8673 17.2089 68.8185 17.1811 68.777 17.1254L66.8361 14.5368V17.0727C66.8361 17.1635 66.7946 17.2089 66.7117 17.2089Z" fill="white"/>
<path d="M70.8305 17.2177C70.3834 17.2177 70.0192 17.1108 69.7379 16.8969C69.6875 16.8617 69.6638 16.8207 69.6668 16.7738C69.6727 16.724 69.6949 16.6874 69.7334 16.6639C69.7719 16.6405 69.8163 16.6464 69.8667 16.6815C70.0029 16.7841 70.1465 16.8588 70.2975 16.9057C70.4515 16.9496 70.6291 16.9716 70.8305 16.9716C71.1118 16.9716 71.322 16.9174 71.4612 16.809C71.6033 16.7006 71.6744 16.5585 71.6744 16.3827C71.6744 16.2362 71.6226 16.1219 71.5189 16.0399C71.4183 15.9578 71.251 15.8934 71.017 15.8465L70.5684 15.7542C70.2901 15.6985 70.0813 15.6048 69.9422 15.4729C69.806 15.3411 69.7379 15.1653 69.7379 14.9455C69.7379 14.7668 69.7838 14.6101 69.8756 14.4753C69.9703 14.3405 70.1006 14.2365 70.2664 14.1632C70.4322 14.0871 70.6232 14.049 70.8394 14.049C71.0318 14.049 71.208 14.0753 71.3679 14.1281C71.5308 14.1808 71.6788 14.2643 71.8121 14.3786C71.8565 14.4137 71.8757 14.4548 71.8698 14.5016C71.8639 14.5485 71.8417 14.5837 71.8032 14.6071C71.7677 14.6276 71.7247 14.6188 71.6744 14.5808C71.55 14.4811 71.4197 14.4094 71.2835 14.3654C71.1473 14.3185 70.9993 14.2951 70.8394 14.2951C70.5906 14.2951 70.3908 14.3537 70.2398 14.4709C70.0917 14.5881 70.0177 14.7448 70.0177 14.9411C70.0177 15.0964 70.0651 15.2195 70.1598 15.3103C70.2546 15.3982 70.4071 15.4627 70.6173 15.5037L71.0703 15.596C71.3694 15.6575 71.5915 15.7498 71.7366 15.8729C71.8817 15.993 71.9542 16.1585 71.9542 16.3695C71.9542 16.5365 71.9083 16.6845 71.8165 16.8134C71.7277 16.9394 71.5989 17.039 71.4301 17.1122C71.2613 17.1825 71.0615 17.2177 70.8305 17.2177Z" fill="white"/>
<path fill-rule="evenodd" clip-rule="evenodd" d="M15.7173 2.34616C16.0867 1.8719 16.8027 1.88749 17.1516 2.37739L25.8292 14.5621C26.2568 15.1625 25.8323 16 25.1004 16H1.89961C1.16182 16 0.738833 15.1506 1.17837 14.5516L7.44 6.01907C7.79562 5.53448 8.51137 5.52897 8.87425 6.00803L12.5527 10.8642C13.052 11.5234 14.0456 11.5144 14.533 10.8464L16.7073 7.86631C16.91 7.58839 17.2973 7.52923 17.5723 7.73418C17.8473 7.93913 17.9058 8.33057 17.703 8.6085L14.3734 13.1722C14.2495 13.3421 14.1827 13.5469 14.1827 13.7571C14.1827 14.3052 14.627 14.7495 15.1751 14.7495H22.0448C23.0476 14.7495 23.6315 13.6167 23.0498 12.7999L17.3714 4.82645C16.8923 4.15376 15.9005 4.13246 15.3929 4.78396L13.1399 7.67627C12.9285 7.94759 12.5396 7.99436 12.2712 7.78074C12.0027 7.56711 11.9565 7.174 12.1678 6.90268L15.7173 2.34616ZM11.9652 14.7495C12.5066 14.7495 12.9455 14.3106 12.9455 13.7692C12.9455 13.5555 12.8757 13.3476 12.7466 13.1773L9.16475 8.44861C8.66632 7.7906 7.67485 7.79813 7.18647 8.46363L4.01475 12.7856C3.4167 13.6006 3.99865 14.7495 5.00949 14.7495H6.38635C6.68178 14.7495 6.96871 14.6453 7.18234 14.4413C8.09355 13.5709 9.1842 12.2529 9.36423 12.1114C9.70994 11.8398 10.0159 11.923 10.2359 12.1872C10.4559 12.4514 10.4957 12.6971 10.1609 13.0682C10.1208 13.1206 10.0819 13.1705 10.0442 13.2183C9.48481 13.9256 9.90623 14.7495 10.808 14.7495H11.9652Z" fill="url(#paint0_linear_660_2190)" stroke="url(#paint1_linear_660_2190)" stroke-width="0.420174" stroke-linecap="round"/>
<defs>
<linearGradient id="paint0_linear_660_2190" x1="0.870328" y1="9.11049" x2="26.0002" y2="9.11049" gradientUnits="userSpaceOnUse">
<stop stop-color="#FEC600"/>
<stop offset="0.482292" stop-color="#FF8A00"/>
<stop offset="1" stop-color="#FF0000"/>
</linearGradient>
<linearGradient id="paint1_linear_660_2190" x1="0.870328" y1="9.11049" x2="26.0002" y2="9.11049" gradientUnits="userSpaceOnUse">
<stop stop-color="#FEC600"/>
<stop offset="0.482292" stop-color="#FF8A00"/>
<stop offset="1" stop-color="#FF0000"/>
</linearGradient>
</defs>
</svg>
