<svg width="63" height="16" viewBox="0 0 63 16" fill="none" xmlns="http://www.w3.org/2000/svg">
<path d="M0 15.4662V0H6.49144C7.18851 0 7.82748 0.145222 8.40837 0.435667C8.98926 0.726112 9.49754 1.11095 9.93321 1.59018C10.3689 2.06942 10.7029 2.60674 10.9352 3.20215C11.1676 3.79756 11.2838 4.4075 11.2838 5.03195C11.2838 5.88877 11.0877 6.70927 10.6956 7.49347C10.318 8.26315 9.77346 8.88761 9.06187 9.36684C8.36481 9.84607 7.55156 10.0857 6.62214 10.0857H2.43973V15.4662H0ZM2.43973 7.92914H6.46965C6.93437 7.92914 7.34099 7.8057 7.68952 7.55882C8.03806 7.29742 8.30672 6.94889 8.49551 6.51322C8.69882 6.07755 8.80047 5.5838 8.80047 5.03195C8.80047 4.46559 8.6843 3.96457 8.45194 3.5289C8.21958 3.09324 7.91462 2.75922 7.53704 2.52687C7.17398 2.27999 6.77462 2.15655 6.33895 2.15655H2.43973V7.92914Z" fill="white"/>
<path d="M20.4556 15.5751C19.2212 15.5751 18.1756 15.3645 17.3188 14.9434C16.4765 14.5222 15.7939 13.9486 15.2711 13.2225C14.7629 12.4964 14.3853 11.6686 14.1384 10.7392C13.9061 9.80977 13.7899 8.84404 13.7899 7.84201V0H16.2296V7.84201C16.2296 8.55359 16.3022 9.2434 16.4474 9.91142C16.5927 10.5649 16.825 11.1531 17.1445 11.6759C17.464 12.1987 17.8924 12.6126 18.4297 12.9175C18.9816 13.2225 19.6569 13.375 20.4556 13.375C21.2688 13.375 21.9441 13.2225 22.4814 12.9175C23.0333 12.598 23.4617 12.1769 23.7667 11.6541C24.0861 11.1168 24.3185 10.5214 24.4637 9.86786C24.6089 9.21436 24.6816 8.53907 24.6816 7.84201V0H27.1431V7.84201C27.1431 8.90213 27.0124 9.90416 26.751 10.8481C26.5041 11.7775 26.112 12.598 25.5747 13.3096C25.0519 14.0067 24.3693 14.5585 23.527 14.9652C22.6847 15.3718 21.6609 15.5751 20.4556 15.5751Z" fill="white"/>
<path d="M43.8281 15.4662V4.4438L39.2754 12.8086H37.8377L33.2632 4.4438V15.4662H30.8234V0H33.4374L38.5565 9.45397L43.6756 0H46.2896V15.4662H43.8281Z" fill="white"/>
<path d="M54.6788 0H56.9878L63 15.4662H60.4296L58.7958 11.262H52.8272L51.2152 15.4662H48.623L54.6788 0ZM58.3166 9.45397L55.8333 2.67935L53.2628 9.45397H58.3166Z" fill="white"/>
</svg>
