<svg width="190" height="37" viewBox="0 0 190 37" fill="none" xmlns="http://www.w3.org/2000/svg">
<path d="M0 36.9712V6.80901H7.02994V36.9712H0Z" fill="#EBEBEB"/>
<path d="M12.2282 37V3.73688e-06H20.0095L34.0157 15.9819L47.9682 3.73688e-06H55.8031V37H48.6659V9.86667L34.0157 26.5681L19.3118 9.91806V37H12.2282Z" fill="#EBEBEB"/>
<path d="M62.1212 37V7.14306C62.1212 5.84121 62.461 4.65926 63.1408 3.59723C63.8205 2.50093 64.7149 1.62732 65.824 0.976393C66.9688 0.325467 68.2209 3.73688e-06 69.5804 3.73688e-06H93.2461C94.6056 3.73688e-06 95.8577 0.325467 97.0025 0.976393C98.1474 1.62732 99.0596 2.50093 99.7394 3.59723C100.419 4.65926 100.759 5.84121 100.759 7.14306V37H93.6217V24.5639H69.2048V37H62.1212ZM69.2048 17.7806H93.6217V7.45139C93.6217 7.28009 93.5502 7.14306 93.4071 7.04028C93.264 6.90324 93.103 6.83472 92.9241 6.83472H69.8487C69.6698 6.83472 69.5089 6.90324 69.3658 7.04028C69.2584 7.14306 69.2048 7.28009 69.2048 7.45139V17.7806Z" fill="#EBEBEB"/>
<path d="M106.873 37V3.73688e-06H114.655L138.374 27.0306V3.73688e-06H145.511V37H137.73L113.957 9.91806V37H106.873Z" fill="#EBEBEB"/>
<path d="M158.821 37C157.462 37 152.834 37 151.369 37C151.369 36.0236 151.356 34.4409 151.362 33.5039C151.369 32.567 151.369 31.4671 151.369 30.1653H158.452C158.64 30.1653 158.452 30.1653 158.64 30.1653C158.861 30.1653 158.911 30.1653 159.09 30.1653H182.219C182.398 30.1653 182.541 30.1139 182.648 30.0111C182.791 29.8741 182.863 29.7199 182.863 29.5486V22.5083C182.863 22.337 182.791 22.2 182.648 22.0972C182.541 21.9944 182.398 21.9431 182.219 21.9431H158.821C157.462 21.9431 156.21 21.6176 155.065 20.9667C153.956 20.3157 153.062 19.4593 152.382 18.3972C151.702 17.3009 151.362 16.0847 151.362 14.7486V7.14306C151.362 5.84121 151.702 4.65926 152.382 3.59723C153.062 2.50093 153.956 1.62732 155.065 0.976393C156.21 0.325467 157.462 3.73688e-06 158.821 3.73688e-06H182.541C190 3.70916e-06 187.009 4.69254e-06 189.994 0C189.994 1.20337 189.994 2.31363 189.994 3.5743C189.994 4.83498 190 5.84121 190 7.14306L189.994 6.83472H182.856C182.773 6.83472 182.768 6.83472 182.617 6.83472C182.467 6.83472 182.398 6.83472 182.219 6.83472H159.09C158.911 6.83472 158.75 6.90324 158.607 7.04028C158.499 7.14306 158.446 7.28009 158.446 7.45139V14.4917C158.446 14.663 158.499 14.8 158.607 14.9028C158.75 15.0056 158.911 15.0569 159.09 15.0569H182.541C183.9 15.0569 185.134 15.3824 186.244 16.0333C187.388 16.6843 188.301 17.5579 188.98 18.6542C189.66 19.7162 190 20.9153 190 22.2514V29.8569C190 31.1588 189.66 32.3579 188.98 33.4542C188.301 34.5162 187.388 35.3727 186.244 36.0236C185.134 36.6745 183.9 37 182.541 37H158.821Z" fill="#EBEBEB"/>
<path fill-rule="evenodd" clip-rule="evenodd" d="M7 0H0L7 7V0Z" fill="#D6FE43"/>
</svg>
