<svg width="174" height="54" viewBox="0 0 174 54" fill="none" xmlns="http://www.w3.org/2000/svg">
<path d="M47.97 52.2837C47.8708 52.2837 47.7941 52.2566 47.7399 52.2025C47.6858 52.1438 47.6587 52.0626 47.6587 51.9589V47.7833C47.6587 47.6795 47.6858 47.6006 47.7399 47.5464C47.7986 47.4923 47.8776 47.4652 47.9768 47.4652H49.5875C50.1018 47.4652 50.4966 47.5915 50.7718 47.8442C51.0515 48.0968 51.1914 48.451 51.1914 48.9067C51.1914 49.3669 51.0515 49.7233 50.7718 49.976C50.4966 50.2286 50.1018 50.3549 49.5875 50.3549H48.2881V51.9589C48.2881 52.0626 48.2611 52.1438 48.2069 52.2025C48.1573 52.2566 48.0783 52.2837 47.97 52.2837ZM48.2881 49.8474H49.5063C49.8582 49.8474 50.1221 49.7684 50.2981 49.6105C50.4786 49.4481 50.5688 49.2135 50.5688 48.9067C50.5688 48.5999 50.4786 48.3698 50.2981 48.2164C50.1221 48.0585 49.8582 47.9795 49.5063 47.9795H48.2881V49.8474ZM53.1354 52.2972C52.8106 52.2972 52.5286 52.2273 52.2895 52.0874C52.0504 51.9476 51.8654 51.7491 51.7346 51.4919C51.6037 51.2347 51.5383 50.9324 51.5383 50.585C51.5383 50.3234 51.5744 50.0888 51.6466 49.8812C51.7233 49.6692 51.8316 49.4887 51.9714 49.3398C52.1113 49.1909 52.2782 49.0781 52.4722 49.0014C52.6707 48.9202 52.8918 48.8796 53.1354 48.8796C53.4603 48.8796 53.7423 48.9496 53.9814 49.0894C54.2205 49.2293 54.4055 49.4278 54.5363 49.685C54.6672 49.9376 54.7326 50.2376 54.7326 50.585C54.7326 50.8467 54.6942 51.0836 54.6175 51.2956C54.5453 51.5077 54.4393 51.6882 54.2995 51.837C54.1596 51.9859 53.9904 52.101 53.7919 52.1822C53.5979 52.2589 53.3791 52.2972 53.1354 52.2972ZM53.1354 51.81C53.334 51.81 53.5054 51.7626 53.6498 51.6679C53.7987 51.5731 53.9114 51.4355 53.9881 51.255C54.0694 51.0746 54.11 50.8512 54.11 50.585C54.11 50.188 54.022 49.8857 53.846 49.6782C53.6701 49.4707 53.4332 49.3669 53.1354 49.3669C52.9414 49.3669 52.77 49.4143 52.6211 49.509C52.4767 49.5992 52.3639 49.7346 52.2827 49.9151C52.2015 50.0955 52.1609 50.3189 52.1609 50.585C52.1609 50.9821 52.2489 51.2866 52.4248 51.4987C52.6053 51.7062 52.8422 51.81 53.1354 51.81ZM56.6394 52.2837C56.5537 52.2837 56.4792 52.2634 56.4161 52.2228C56.3529 52.1777 56.3033 52.1055 56.2672 52.0062L55.2588 49.3195C55.2272 49.2338 55.2182 49.1593 55.2317 49.0962C55.2453 49.033 55.2769 48.9834 55.3265 48.9473C55.3761 48.9112 55.4415 48.8932 55.5227 48.8932C55.5994 48.8932 55.6604 48.9112 55.7055 48.9473C55.7506 48.9834 55.7889 49.0488 55.8205 49.1436L56.7409 51.7423H56.5785L57.5259 49.13C57.5575 49.0488 57.5981 48.9902 57.6478 48.9541C57.7019 48.9135 57.7673 48.8932 57.844 48.8932C57.9252 48.8932 57.9929 48.9135 58.047 48.9541C58.1012 48.9902 58.1395 49.0488 58.1621 49.13L59.096 51.7423H58.9404L59.8743 49.13C59.9059 49.0398 59.9465 48.9789 59.9961 48.9473C60.0457 48.9112 60.1066 48.8932 60.1788 48.8932C60.26 48.8932 60.3209 48.9135 60.3615 48.9541C60.4022 48.9947 60.4247 49.0488 60.4292 49.1165C60.4382 49.1796 60.4292 49.2473 60.4022 49.3195L59.3938 52.0062C59.3622 52.101 59.3126 52.1709 59.2449 52.216C59.1817 52.2611 59.1073 52.2837 59.0216 52.2837C58.9358 52.2837 58.8591 52.2611 58.7915 52.216C58.7283 52.1709 58.6787 52.101 58.6426 52.0062L57.6748 49.3533H57.9861L57.0184 52.0062C56.9823 52.101 56.9327 52.1709 56.8695 52.216C56.8063 52.2611 56.7296 52.2837 56.6394 52.2837ZM62.6486 52.2972C62.2921 52.2972 61.9853 52.2296 61.7282 52.0942C61.4755 51.9543 61.2793 51.7581 61.1394 51.5054C60.9995 51.2483 60.9296 50.946 60.9296 50.5986C60.9296 50.2557 60.9973 49.9557 61.1326 49.6985C61.2725 49.4413 61.462 49.2406 61.7011 49.0962C61.9447 48.9518 62.2222 48.8796 62.5335 48.8796C62.7546 48.8796 62.9531 48.918 63.1291 48.9947C63.3095 49.0669 63.4629 49.1729 63.5892 49.3127C63.7156 49.4526 63.8103 49.6241 63.8735 49.8271C63.9412 50.0256 63.975 50.2512 63.975 50.5038C63.975 50.576 63.9524 50.6324 63.9073 50.673C63.8667 50.7091 63.8058 50.7272 63.7246 50.7272H61.4101V50.3346H63.5689L63.4539 50.4294C63.4539 50.1948 63.4178 49.9963 63.3456 49.8338C63.2779 49.6669 63.1764 49.5406 63.0411 49.4549C62.9102 49.3691 62.7456 49.3263 62.547 49.3263C62.3305 49.3263 62.1455 49.3782 61.9921 49.4819C61.8387 49.5812 61.7214 49.7233 61.6402 49.9083C61.559 50.0888 61.5184 50.2986 61.5184 50.5377V50.5783C61.5184 50.9843 61.6154 51.2911 61.8094 51.4987C62.0034 51.7062 62.2831 51.81 62.6486 51.81C62.7929 51.81 62.9396 51.7919 63.0884 51.7558C63.2418 51.7197 63.3885 51.6543 63.5283 51.5596C63.596 51.519 63.6569 51.5009 63.7111 51.5054C63.7697 51.5054 63.8171 51.5235 63.8532 51.5596C63.8893 51.5912 63.9118 51.6318 63.9209 51.6814C63.9299 51.7265 63.9231 51.7761 63.9006 51.8303C63.878 51.8844 63.8351 51.9318 63.772 51.9724C63.6231 52.0762 63.4449 52.1574 63.2373 52.216C63.0343 52.2702 62.838 52.2972 62.6486 52.2972ZM65.059 52.2837C64.9553 52.2837 64.8763 52.2566 64.8222 52.2025C64.768 52.1483 64.7409 52.0694 64.7409 51.9656V49.2045C64.7409 49.1007 64.768 49.024 64.8222 48.9744C64.8763 48.9202 64.9507 48.8932 65.0455 48.8932C65.1402 48.8932 65.2124 48.9202 65.262 48.9744C65.3162 49.024 65.3433 49.1007 65.3433 49.2045V49.7256H65.2756C65.3478 49.4549 65.4831 49.2496 65.6816 49.1097C65.8802 48.9699 66.1306 48.8909 66.4328 48.8729C66.505 48.8683 66.5637 48.8864 66.6088 48.927C66.6539 48.9631 66.6787 49.0263 66.6832 49.1165C66.6877 49.2022 66.6674 49.2721 66.6223 49.3263C66.5772 49.3759 66.5073 49.4052 66.4125 49.4143L66.2907 49.421C65.9929 49.4526 65.7628 49.5496 65.6004 49.712C65.4425 49.8745 65.3636 50.0978 65.3636 50.382V51.9656C65.3636 52.0694 65.3365 52.1483 65.2824 52.2025C65.2327 52.2566 65.1583 52.2837 65.059 52.2837ZM68.6891 52.2972C68.3327 52.2972 68.0259 52.2296 67.7687 52.0942C67.5161 51.9543 67.3198 51.7581 67.18 51.5054C67.0401 51.2483 66.9702 50.946 66.9702 50.5986C66.9702 50.2557 67.0378 49.9557 67.1732 49.6985C67.3131 49.4413 67.5026 49.2406 67.7417 49.0962C67.9853 48.9518 68.2628 48.8796 68.5741 48.8796C68.7952 48.8796 68.9937 48.918 69.1696 48.9947C69.3501 49.0669 69.5035 49.1729 69.6298 49.3127C69.7561 49.4526 69.8509 49.6241 69.9141 49.8271C69.9817 50.0256 70.0156 50.2512 70.0156 50.5038C70.0156 50.576 69.993 50.6324 69.9479 50.673C69.9073 50.7091 69.8464 50.7272 69.7652 50.7272H67.4507V50.3346H69.6095L69.4945 50.4294C69.4945 50.1948 69.4584 49.9963 69.3862 49.8338C69.3185 49.6669 69.217 49.5406 69.0816 49.4549C68.9508 49.3691 68.7861 49.3263 68.5876 49.3263C68.3711 49.3263 68.1861 49.3782 68.0327 49.4819C67.8793 49.5812 67.762 49.7233 67.6808 49.9083C67.5996 50.0888 67.5589 50.2986 67.5589 50.5377V50.5783C67.5589 50.9843 67.6559 51.2911 67.85 51.4987C68.044 51.7062 68.3237 51.81 68.6891 51.81C68.8335 51.81 68.9801 51.7919 69.129 51.7558C69.2824 51.7197 69.429 51.6543 69.5689 51.5596C69.6366 51.519 69.6975 51.5009 69.7516 51.5054C69.8103 51.5054 69.8577 51.5235 69.8938 51.5596C69.9298 51.5912 69.9524 51.6318 69.9614 51.6814C69.9705 51.7265 69.9637 51.7761 69.9411 51.8303C69.9186 51.8844 69.8757 51.9318 69.8125 51.9724C69.6637 52.0762 69.4854 52.1574 69.2779 52.216C69.0749 52.2702 68.8786 52.2972 68.6891 52.2972ZM72.0403 52.2972C71.7515 52.2972 71.4966 52.2296 71.2756 52.0942C71.059 51.9543 70.8898 51.7558 70.768 51.4987C70.6462 51.237 70.5853 50.9324 70.5853 50.585C70.5853 50.2331 70.6439 49.9308 70.7612 49.6782C70.883 49.421 71.0522 49.2248 71.2688 49.0894C71.4899 48.9496 71.747 48.8796 72.0403 48.8796C72.3335 48.8796 72.5862 48.9541 72.7983 49.1029C73.0103 49.2473 73.1524 49.4413 73.2246 49.685H73.1502V47.7291C73.1502 47.6254 73.175 47.5487 73.2246 47.499C73.2787 47.4449 73.3554 47.4178 73.4547 47.4178C73.554 47.4178 73.6307 47.4449 73.6848 47.499C73.7389 47.5487 73.766 47.6254 73.766 47.7291V51.9656C73.766 52.0694 73.7389 52.1483 73.6848 52.2025C73.6307 52.2566 73.554 52.2837 73.4547 52.2837C73.36 52.2837 73.2855 52.2566 73.2314 52.2025C73.1772 52.1483 73.1502 52.0694 73.1502 51.9656V51.3498L73.2246 51.4716C73.1569 51.7242 73.0148 51.925 72.7983 52.0739C72.5862 52.2228 72.3335 52.2972 72.0403 52.2972ZM72.1824 51.81C72.3809 51.81 72.5524 51.7626 72.6967 51.6679C72.8456 51.5731 72.9584 51.4355 73.0351 51.255C73.1163 51.0746 73.1569 50.8512 73.1569 50.585C73.1569 50.188 73.069 49.8857 72.893 49.6782C72.717 49.4707 72.4802 49.3669 72.1824 49.3669C71.9884 49.3669 71.817 49.4143 71.6681 49.509C71.5237 49.5992 71.4109 49.7346 71.3297 49.9151C71.2485 50.0955 71.2079 50.3189 71.2079 50.585C71.2079 50.9821 71.2959 51.2866 71.4718 51.4987C71.6523 51.7062 71.8891 51.81 72.1824 51.81ZM78.2438 52.2972C77.946 52.2972 77.6911 52.2228 77.4791 52.0739C77.267 51.925 77.1249 51.7242 77.0527 51.4716L77.1272 51.3701V51.9656C77.1272 52.0694 77.1001 52.1483 77.046 52.2025C76.9963 52.2566 76.9219 52.2837 76.8226 52.2837C76.7279 52.2837 76.6534 52.2566 76.5993 52.2025C76.5452 52.1483 76.5181 52.0694 76.5181 51.9656V47.7291C76.5181 47.6254 76.5452 47.5487 76.5993 47.499C76.6534 47.4449 76.7279 47.4178 76.8226 47.4178C76.9219 47.4178 76.9986 47.4449 77.0527 47.499C77.1069 47.5487 77.1339 47.6254 77.1339 47.7291V49.685H77.0595C77.1317 49.4413 77.2738 49.2473 77.4858 49.1029C77.6979 48.9541 77.9505 48.8796 78.2438 48.8796C78.5371 48.8796 78.792 48.9496 79.0085 49.0894C79.2296 49.2248 79.3988 49.421 79.5161 49.6782C79.6379 49.9308 79.6988 50.2331 79.6988 50.585C79.6988 50.9324 79.6379 51.237 79.5161 51.4987C79.3943 51.7558 79.2251 51.9543 79.0085 52.0942C78.792 52.2296 78.5371 52.2972 78.2438 52.2972ZM78.1017 51.81C78.2957 51.81 78.4649 51.7626 78.6093 51.6679C78.7581 51.5731 78.8732 51.4355 78.9544 51.255C79.0356 51.0746 79.0762 50.8512 79.0762 50.585C79.0762 50.188 78.9882 49.8857 78.8123 49.6782C78.6363 49.4707 78.3995 49.3669 78.1017 49.3669C77.9032 49.3669 77.7295 49.4143 77.5806 49.509C77.4362 49.5992 77.3234 49.7346 77.2422 49.9151C77.1655 50.0955 77.1272 50.3189 77.1272 50.585C77.1272 50.9821 77.2151 51.2866 77.3911 51.4987C77.5671 51.7062 77.8039 51.81 78.1017 51.81ZM81.1952 53.5019C81.123 53.5019 81.0621 53.4816 81.0124 53.441C80.9673 53.4049 80.9402 53.353 80.9312 53.2853C80.9267 53.2221 80.9402 53.1545 80.9718 53.0823L81.432 52.0401V52.2972L80.1529 49.3195C80.1214 49.2428 80.1101 49.1729 80.1191 49.1097C80.1281 49.0466 80.1575 48.9947 80.2071 48.9541C80.2612 48.9135 80.3334 48.8932 80.4236 48.8932C80.5003 48.8932 80.5613 48.9112 80.6064 48.9473C80.6515 48.9834 80.6944 49.0466 80.735 49.1368L81.7975 51.7558H81.608L82.6908 49.1368C82.7269 49.0466 82.7697 48.9834 82.8194 48.9473C82.869 48.9112 82.9367 48.8932 83.0224 48.8932C83.0991 48.8932 83.1577 48.9135 83.1983 48.9541C83.2435 48.9947 83.2705 49.0466 83.2796 49.1097C83.2886 49.1729 83.275 49.2406 83.239 49.3127L81.5335 53.2582C81.4884 53.353 81.441 53.4161 81.3914 53.4477C81.3463 53.4838 81.2809 53.5019 81.1952 53.5019ZM86.0904 52.2837C85.9912 52.2837 85.9145 52.2566 85.8603 52.2025C85.8062 52.1438 85.7791 52.0626 85.7791 51.9589V47.7427C85.7791 47.6344 85.8062 47.5532 85.8603 47.499C85.9145 47.4449 85.9912 47.4178 86.0904 47.4178C86.1942 47.4178 86.2731 47.4449 86.3273 47.499C86.3814 47.5532 86.4085 47.6344 86.4085 47.7427V51.9589C86.4085 52.0626 86.3814 52.1438 86.3273 52.2025C86.2777 52.2566 86.1987 52.2837 86.0904 52.2837ZM87.8481 52.2837C87.7578 52.2837 87.6879 52.2566 87.6383 52.2025C87.5887 52.1483 87.5638 52.0762 87.5638 51.9859V47.7156C87.5638 47.6209 87.5887 47.5487 87.6383 47.499C87.6924 47.4449 87.7646 47.4178 87.8548 47.4178C87.9361 47.4178 87.9992 47.4336 88.0443 47.4652C88.094 47.4968 88.1391 47.5509 88.1797 47.6276L89.9934 51.0317H89.7836L91.5973 47.6276C91.6379 47.5509 91.6808 47.4968 91.7259 47.4652C91.771 47.4336 91.8342 47.4178 91.9154 47.4178C92.0056 47.4178 92.0755 47.4449 92.1252 47.499C92.1748 47.5487 92.1996 47.6209 92.1996 47.7156V51.9859C92.1996 52.0762 92.1748 52.1483 92.1252 52.2025C92.0801 52.2566 92.0101 52.2837 91.9154 52.2837C91.8206 52.2837 91.7484 52.2566 91.6988 52.2025C91.6537 52.1483 91.6311 52.0762 91.6311 51.9859V48.3382H91.78L90.1558 51.3768C90.1197 51.4355 90.0814 51.4806 90.0408 51.5122C90.0047 51.5393 89.9528 51.5528 89.8851 51.5528C89.8219 51.5528 89.7678 51.537 89.7227 51.5054C89.6821 51.4739 89.646 51.431 89.6144 51.3768L87.9699 48.3314H88.1323V51.9859C88.1323 52.0762 88.1075 52.1483 88.0579 52.2025C88.0128 52.2566 87.9428 52.2837 87.8481 52.2837ZM93.2919 52.2837C93.2107 52.2837 93.1453 52.2657 93.0956 52.2296C93.0505 52.1935 93.0234 52.1438 93.0144 52.0807C93.0054 52.0175 93.0189 51.9476 93.055 51.8709L94.9026 47.6885C94.9432 47.5938 94.9951 47.5261 95.0582 47.4855C95.1214 47.4404 95.1913 47.4178 95.268 47.4178C95.3447 47.4178 95.4124 47.4404 95.471 47.4855C95.5342 47.5261 95.5883 47.5938 95.6335 47.6885L97.481 51.8709C97.5171 51.9476 97.5306 52.0198 97.5216 52.0874C97.5171 52.1506 97.4923 52.2002 97.4472 52.2363C97.4021 52.2679 97.3389 52.2837 97.2577 52.2837C97.1674 52.2837 97.0953 52.2611 97.0411 52.216C96.987 52.1664 96.9396 52.0965 96.899 52.0062L96.4185 50.8828L96.7095 51.0452H93.813L94.104 50.8828L93.6235 52.0062C93.5829 52.1055 93.5378 52.1777 93.4882 52.2228C93.4385 52.2634 93.3731 52.2837 93.2919 52.2837ZM95.2545 48.1758L94.1987 50.673L94.0363 50.5309H96.4862L96.3305 50.673L95.268 48.1758H95.2545ZM98.6139 52.2837C98.5237 52.2837 98.4515 52.2566 98.3973 52.2025C98.3477 52.1483 98.3229 52.0739 98.3229 51.9792V47.7359C98.3229 47.6321 98.3477 47.5532 98.3973 47.499C98.447 47.4449 98.5124 47.4178 98.5936 47.4178C98.6703 47.4178 98.7289 47.4314 98.7695 47.4584C98.8101 47.4855 98.8553 47.5329 98.9049 47.6006L101.774 51.4039H101.605V47.7224C101.605 47.6231 101.63 47.5487 101.68 47.499C101.734 47.4449 101.808 47.4178 101.903 47.4178C101.998 47.4178 102.07 47.4449 102.119 47.499C102.169 47.5487 102.194 47.6231 102.194 47.7224V51.9792C102.194 52.0739 102.169 52.1483 102.119 52.2025C102.074 52.2566 102.013 52.2837 101.937 52.2837C101.865 52.2837 101.804 52.2679 101.754 52.2363C101.709 52.2093 101.662 52.1619 101.612 52.0942L98.7492 48.2908H98.9049V51.9792C98.9049 52.0739 98.8801 52.1483 98.8304 52.2025C98.7808 52.2566 98.7086 52.2837 98.6139 52.2837ZM104.902 52.2972C104.69 52.2972 104.485 52.2792 104.287 52.2431C104.088 52.2115 103.901 52.1619 103.725 52.0942C103.549 52.0265 103.391 51.9431 103.251 51.8438C103.192 51.8032 103.15 51.7536 103.123 51.6949C103.1 51.6363 103.093 51.5799 103.102 51.5257C103.116 51.4671 103.141 51.4175 103.177 51.3768C103.217 51.3362 103.265 51.3114 103.319 51.3024C103.373 51.2934 103.432 51.3114 103.495 51.3565C103.702 51.4964 103.919 51.5979 104.144 51.6611C104.375 51.7242 104.627 51.7558 104.902 51.7558C105.299 51.7558 105.59 51.6836 105.775 51.5393C105.965 51.3949 106.06 51.2054 106.06 50.9708C106.06 50.7768 105.992 50.6256 105.857 50.5174C105.721 50.4046 105.493 50.3166 105.173 50.2534L104.456 50.1045C104.032 50.0143 103.714 49.8654 103.501 49.6579C103.294 49.4504 103.19 49.1729 103.19 48.8255C103.19 48.6134 103.233 48.4217 103.319 48.2502C103.404 48.0743 103.526 47.9231 103.684 47.7968C103.842 47.6705 104.027 47.5735 104.239 47.5058C104.456 47.4381 104.695 47.4043 104.957 47.4043C105.236 47.4043 105.498 47.4426 105.742 47.5193C105.99 47.596 106.213 47.7088 106.412 47.8577C106.466 47.8983 106.502 47.948 106.52 48.0066C106.538 48.0607 106.54 48.1149 106.527 48.169C106.518 48.2232 106.493 48.2683 106.452 48.3044C106.416 48.3405 106.369 48.3608 106.31 48.3653C106.256 48.3698 106.195 48.3495 106.127 48.3044C105.947 48.1781 105.762 48.0878 105.572 48.0337C105.383 47.975 105.175 47.9457 104.95 47.9457C104.72 47.9457 104.519 47.9818 104.347 48.054C104.18 48.1262 104.05 48.2277 103.955 48.3585C103.865 48.4848 103.82 48.6337 103.82 48.8052C103.82 49.0127 103.883 49.1751 104.009 49.2924C104.135 49.4097 104.347 49.5 104.645 49.5631L105.356 49.7053C105.807 49.8 106.141 49.9466 106.357 50.1452C106.578 50.3392 106.689 50.6008 106.689 50.9302C106.689 51.1377 106.646 51.325 106.56 51.4919C106.479 51.6588 106.362 51.8032 106.209 51.925C106.055 52.0423 105.868 52.1348 105.647 52.2025C105.426 52.2657 105.178 52.2972 104.902 52.2972Z" fill="white"/>
<g filter="url(#filter0_b_985_458)">
<path d="M18.6226 2.36544C17.4204 3.95345 12.4571 4.88475 10.1257 5.1519C10.8775 6.20035 12.5627 6.94644 15.1872 7.30341C17.2868 7.58899 19.1489 6.78312 19.8175 6.34449C21.5567 4.91866 20.6533 3.40739 18.6226 2.36544Z" fill="url(#paint0_linear_985_458)"/>
<path d="M25.0591 10.7859C28.8576 9.01723 26.4905 5.79287 24.9689 4.42158C24.6905 5.85378 23.9449 6.07662 23.751 6.24429C23.5959 6.37843 22.4218 7.00143 21.8542 7.29616C20.2573 7.96005 18.4826 8.55136 17.3694 8.80958C16.6273 8.98174 15.8846 9.16361 14.3088 9.51155C11.9915 10.0233 8.58743 10.3982 5.39334 10.3658C6.59367 11.5342 8.24255 12.8234 12.8611 13.4044C16.556 13.8693 17.5887 13.2674 17.6431 12.9083C18.8832 6.81358 24.1975 9.91256 25.0591 10.7859Z" fill="url(#paint1_linear_985_458)"/>
<path d="M29.8103 18.7097C31.5619 17.6369 32.4757 16.6775 32.9479 15.9688C33.093 17.8387 33.8447 21.6093 30.8122 23.6477C28.7015 25.0664 27.6483 23.608 27.352 22.5535C26.9518 20.7438 28.0588 19.7826 29.8103 18.7097Z" fill="url(#paint2_linear_985_458)"/>
<path d="M10.7103 23.6829C6.01663 24.1179 4.16494 24.1357 0.854971 23.9717C4.49962 27.1488 9.42643 27.6717 13.9998 27.8398C17.6584 27.9742 20.1271 27.3047 20.9041 26.9531C24.594 25.075 22.5578 21.8369 20.3745 22.0866C19.5079 22.1856 14.5176 23.3301 10.7103 23.6829Z" fill="url(#paint3_linear_985_458)"/>
<path d="M29.5173 26.4125C29.5173 26.4125 32.392 24.2817 33.1655 23.5087C32.7361 26.5171 31.6813 28.3913 30.7622 29.1133C29.2511 30.3902 28.3876 31.0003 27.6892 30.8681C26.6952 28.3871 29.5173 26.4125 29.5173 26.4125Z" fill="url(#paint4_linear_985_458)"/>
<path d="M27.5797 32.504C28.6232 31.5271 29.4814 30.8351 30.6656 30.5571C29.0363 33.8685 26.402 35.4003 25.2886 35.7523C25.2508 34.9072 26.4501 33.5614 27.5797 32.504Z" fill="url(#paint5_linear_985_458)"/>
<path d="M14.3096 35.7043C12.5087 35.9205 9.67902 36.0498 9.67902 36.0498C10.1513 36.5079 11.946 37.4935 15.3471 37.771C18.7482 38.0485 20.24 37.4223 20.6684 37.1596C23.1921 35.6121 22.3676 34.3123 20.8472 34.4877C20.8472 34.4877 16.8868 35.3947 14.3096 35.7043Z" fill="url(#paint6_linear_985_458)"/>
<path fill-rule="evenodd" clip-rule="evenodd" d="M19.8914 29.3068C17.1912 30.1656 11.4042 30.6799 11.4042 30.6799C11.4042 30.6799 10.9351 30.8338 3.43548 30.7386C7.28498 33.1761 11.7836 33.5567 14.0631 33.7495C14.1959 33.7607 14.3211 33.7713 14.4382 33.7817C16.141 33.9318 19.0319 33.7876 20.4837 33.2363C24.8474 31.5795 22.6779 28.4205 19.8914 29.3068Z" fill="url(#paint7_linear_985_458)"/>
<path d="M26.6072 12.6921C27.795 12.2275 30.0882 10.8939 29.7581 9.27588C30.0309 9.29413 32.456 12.6301 31.0443 14.6212C30.5696 15.3451 29.1307 17.0139 27.172 17.8985C24.7237 19.0041 22.0327 19.6401 21.3842 19.7781C20.7357 19.916 16.5968 20.3559 14.3052 20.4832C11.1723 20.6571 8.56537 20.2804 6.68034 19.7916C4.79532 19.3027 3.28102 18.7926 1.49864 16.7691C6.48188 16.8834 12.9036 16.0967 15.9951 15.6997L18.3062 15.4563C18.8094 16.1247 20.0855 17.6237 21.9717 17.8225C24.3295 18.0709 26.6628 17.3203 26.6072 12.6921Z" fill="url(#paint8_linear_985_458)"/>
</g>
<path d="M47.8099 16.2382C47.4943 16.2382 47.2504 16.1521 47.0782 15.98C46.906 15.7935 46.82 15.5352 46.82 15.2052V1.79801C46.82 1.45368 46.906 1.19544 47.0782 1.02327C47.2504 0.851111 47.4943 0.76503 47.8099 0.76503C48.1399 0.76503 48.391 0.851111 48.5631 1.02327C48.7353 1.19544 48.8214 1.45368 48.8214 1.79801V15.2052C48.8214 15.5352 48.7353 15.7935 48.5631 15.98C48.4053 16.1521 48.1542 16.2382 47.8099 16.2382ZM59.4464 16.2813C57.8252 16.2813 56.4479 15.9728 55.3145 15.3559C54.1954 14.7246 53.3418 13.8279 52.7535 12.6658C52.1797 11.5037 51.8927 10.1192 51.8927 8.51239C51.8927 7.30724 52.0577 6.23122 52.3877 5.28432C52.7177 4.32308 53.1983 3.5053 53.8296 2.83099C54.4752 2.14234 55.2499 1.61867 56.1538 1.26C57.072 0.901325 58.105 0.721988 59.2527 0.721988C60.1422 0.721988 61.0031 0.843937 61.8352 1.08784C62.6673 1.31739 63.4277 1.69758 64.1163 2.22842C64.2885 2.35754 64.3961 2.50819 64.4392 2.68035C64.4965 2.85251 64.5037 3.02468 64.4607 3.19684C64.4176 3.369 64.3315 3.51965 64.2024 3.64877C64.0877 3.77789 63.937 3.8568 63.7505 3.88549C63.5783 3.89984 63.3918 3.84245 63.191 3.71333C62.6027 3.28292 61.9858 2.97446 61.3402 2.78795C60.7089 2.60144 60.0131 2.50819 59.2527 2.50819C58.1193 2.50819 57.1581 2.74491 56.369 3.21836C55.5799 3.67746 54.9845 4.35894 54.5828 5.2628C54.1954 6.15231 54.0017 7.23551 54.0017 8.51239C54.0017 10.4779 54.4608 11.97 55.379 12.9886C56.3116 14.0073 57.6889 14.5166 59.511 14.5166C60.1853 14.5166 60.8381 14.452 61.4693 14.3229C62.1149 14.1938 62.7319 14.0144 63.3201 13.7849L62.8897 14.8609V9.67449H59.9629C59.7047 9.67449 59.4966 9.60276 59.3388 9.45929C59.1953 9.31582 59.1236 9.12214 59.1236 8.87824C59.1236 8.63434 59.1953 8.44783 59.3388 8.3187C59.4966 8.18958 59.7047 8.12502 59.9629 8.12502H63.772C64.0303 8.12502 64.2311 8.19676 64.3746 8.34023C64.5324 8.4837 64.6113 8.69173 64.6113 8.96432V14.4951C64.6113 14.7246 64.5683 14.9255 64.4822 15.0976C64.3961 15.2555 64.2526 15.3702 64.0518 15.442C63.4492 15.6859 62.7319 15.8867 61.8997 16.0445C61.0676 16.2024 60.2498 16.2813 59.4464 16.2813ZM71.2077 16.2813C70.4903 16.2813 69.8375 16.1378 69.2493 15.8509C68.6754 15.5639 68.2235 15.1766 67.8935 14.6888C67.5779 14.201 67.4201 13.6558 67.4201 13.0532C67.4201 12.2785 67.6138 11.6687 68.0011 11.224C68.3885 10.7792 69.0413 10.4636 69.9595 10.2771C70.8777 10.0762 72.1115 9.97578 73.661 9.97578H74.6725V11.224H73.704C72.5993 11.224 71.7242 11.2742 71.0785 11.3746C70.4473 11.475 70.0025 11.6544 69.7443 11.9126C69.486 12.1565 69.3569 12.5008 69.3569 12.9456C69.3569 13.5051 69.5506 13.9642 69.938 14.3229C70.3397 14.6816 70.8849 14.8609 71.5735 14.8609C72.1187 14.8609 72.5993 14.7318 73.0154 14.4736C73.4314 14.201 73.7614 13.8423 74.0053 13.3975C74.2492 12.9384 74.3712 12.4148 74.3712 11.8265V9.35169C74.3712 8.50522 74.199 7.89547 73.8547 7.52245C73.5104 7.13508 72.9293 6.9414 72.1115 6.9414C71.6381 6.9414 71.1503 7.00596 70.6481 7.13508C70.146 7.2642 69.6223 7.46506 69.0771 7.73765C68.8619 7.83808 68.6754 7.87395 68.5176 7.84526C68.3598 7.80221 68.2307 7.71613 68.1302 7.58701C68.0442 7.44354 67.9939 7.2929 67.9796 7.13508C67.9796 6.96292 68.0155 6.79793 68.0872 6.64011C68.1733 6.48229 68.3168 6.36752 68.5176 6.29578C69.1489 5.98015 69.773 5.75777 70.3899 5.62865C71.0212 5.48518 71.6094 5.41345 72.1546 5.41345C73.0871 5.41345 73.8547 5.56409 74.4573 5.86537C75.0598 6.15231 75.5118 6.60424 75.813 7.22116C76.1143 7.82374 76.265 8.59847 76.265 9.54537V15.2268C76.265 15.5567 76.1861 15.8078 76.0282 15.98C75.8704 16.1521 75.6409 16.2382 75.3396 16.2382C75.0527 16.2382 74.8231 16.1521 74.6509 15.98C74.4931 15.8078 74.4142 15.5567 74.4142 15.2268V13.6988H74.6079C74.4931 14.2297 74.2779 14.6888 73.9623 15.0761C73.6466 15.4635 73.2521 15.7648 72.7787 15.98C72.3196 16.1808 71.7959 16.2813 71.2077 16.2813ZM80.3582 16.2382C80.0569 16.2382 79.8202 16.1521 79.6481 15.98C79.4759 15.8078 79.3898 15.5567 79.3898 15.2268V6.44643C79.3898 6.11645 79.4759 5.87255 79.6481 5.71473C79.8202 5.54257 80.0569 5.45649 80.3582 5.45649C80.6595 5.45649 80.8891 5.54257 81.0469 5.71473C81.219 5.87255 81.3051 6.11645 81.3051 6.44643V8.27566L81.0684 7.8883C81.341 7.09921 81.7786 6.48947 82.3811 6.05906C82.9981 5.62865 83.7298 5.41345 84.5762 5.41345C85.4657 5.41345 86.1831 5.62865 86.7283 6.05906C87.2735 6.47512 87.6393 7.11356 87.8258 7.97438H87.5245C87.7828 7.1853 88.2419 6.5612 88.9018 6.1021C89.5761 5.643 90.3581 5.41345 91.2476 5.41345C92.0367 5.41345 92.6823 5.57126 93.1844 5.88689C93.7009 6.18818 94.0883 6.64728 94.3465 7.2642C94.6048 7.86678 94.7339 8.64151 94.7339 9.58841V15.2268C94.7339 15.5567 94.6478 15.8078 94.4756 15.98C94.3035 16.1521 94.0667 16.2382 93.7655 16.2382C93.4498 16.2382 93.2059 16.1521 93.0338 15.98C92.8616 15.8078 92.7755 15.5567 92.7755 15.2268V9.67449C92.7755 8.75629 92.6177 8.08198 92.3021 7.65157C91.9864 7.22116 91.4556 7.00596 90.7096 7.00596C89.8918 7.00596 89.239 7.2929 88.7512 7.86678C88.2777 8.42631 88.041 9.20104 88.041 10.191V15.2268C88.041 15.5567 87.9549 15.8078 87.7828 15.98C87.625 16.1521 87.3882 16.2382 87.0726 16.2382C86.757 16.2382 86.5131 16.1521 86.3409 15.98C86.1687 15.8078 86.0827 15.5567 86.0827 15.2268V9.67449C86.0827 8.75629 85.9248 8.08198 85.6092 7.65157C85.2936 7.22116 84.7627 7.00596 84.0167 7.00596C83.1989 7.00596 82.5461 7.2929 82.0583 7.86678C81.5849 8.42631 81.3482 9.20104 81.3482 10.191V15.2268C81.3482 15.9011 81.0182 16.2382 80.3582 16.2382ZM98.8513 16.1952C98.5501 16.1952 98.3133 16.1019 98.1412 15.9154C97.969 15.7289 97.8829 15.4707 97.8829 15.1407V6.55403C97.8829 6.2097 97.969 5.95146 98.1412 5.77929C98.3133 5.59278 98.5501 5.49953 98.8513 5.49953C99.167 5.49953 99.4109 5.59278 99.583 5.77929C99.7552 5.95146 99.8413 6.2097 99.8413 6.55403V15.1407C99.8413 15.4707 99.7552 15.7289 99.583 15.9154C99.4252 16.1019 99.1813 16.1952 98.8513 16.1952ZM98.8513 3.17532C98.464 3.17532 98.1555 3.07489 97.926 2.87403C97.7108 2.65883 97.6032 2.37906 97.6032 2.03473C97.6032 1.66171 97.7108 1.38195 97.926 1.19544C98.1555 0.994581 98.464 0.894152 98.8513 0.894152C99.2674 0.894152 99.5759 0.994581 99.7767 1.19544C99.9919 1.38195 100.1 1.66171 100.1 2.03473C100.1 2.37906 99.9919 2.65883 99.7767 2.87403C99.5759 3.07489 99.2674 3.17532 98.8513 3.17532ZM103.958 16.2382C103.657 16.2382 103.42 16.1521 103.248 15.98C103.076 15.8078 102.99 15.5567 102.99 15.2268V6.44643C102.99 6.11645 103.076 5.87255 103.248 5.71473C103.42 5.54257 103.657 5.45649 103.958 5.45649C104.26 5.45649 104.489 5.54257 104.647 5.71473C104.819 5.87255 104.905 6.11645 104.905 6.44643V8.2111L104.668 7.8883C104.97 7.07052 105.458 6.4536 106.132 6.03754C106.82 5.62148 107.602 5.41345 108.478 5.41345C109.324 5.41345 110.02 5.56409 110.565 5.86537C111.11 6.16666 111.519 6.62576 111.792 7.24268C112.064 7.8596 112.201 8.64151 112.201 9.58841V15.2268C112.201 15.5567 112.114 15.8078 111.942 15.98C111.785 16.1521 111.548 16.2382 111.232 16.2382C110.917 16.2382 110.673 16.1521 110.5 15.98C110.328 15.8078 110.242 15.5567 110.242 15.2268V9.69601C110.242 8.76346 110.063 8.08198 109.704 7.65157C109.346 7.22116 108.772 7.00596 107.983 7.00596C107.064 7.00596 106.325 7.2929 105.766 7.86678C105.221 8.42631 104.948 9.1867 104.948 10.1479V15.2268C104.948 15.9011 104.618 16.2382 103.958 16.2382ZM120.018 20.1549C119.243 20.1549 118.49 20.0689 117.759 19.8967C117.041 19.7245 116.388 19.4591 115.8 19.1004C115.614 18.9857 115.485 18.8494 115.413 18.6916C115.355 18.5481 115.341 18.3974 115.37 18.2396C115.413 18.0818 115.485 17.9383 115.585 17.8092C115.7 17.6944 115.829 17.6155 115.972 17.5725C116.13 17.5438 116.288 17.5797 116.446 17.6801C117.077 18.0388 117.68 18.2827 118.254 18.4118C118.827 18.5409 119.373 18.6055 119.889 18.6055C120.908 18.6055 121.668 18.3401 122.17 17.8092C122.687 17.2927 122.945 16.5323 122.945 15.5281V13.2038H123.139C122.938 14.0073 122.486 14.6457 121.783 15.1192C121.094 15.5926 120.291 15.8293 119.373 15.8293C118.426 15.8293 117.601 15.6141 116.898 15.1837C116.195 14.739 115.65 14.1292 115.262 13.3545C114.875 12.5654 114.681 11.6544 114.681 10.6214C114.681 9.83231 114.789 9.12214 115.004 8.49087C115.234 7.84526 115.549 7.30007 115.951 6.85531C116.367 6.39621 116.862 6.04471 117.436 5.80081C118.01 5.54257 118.655 5.41345 119.373 5.41345C120.305 5.41345 121.116 5.65017 121.804 6.12362C122.493 6.59707 122.938 7.23551 123.139 8.03894L122.902 8.34023V6.44643C122.902 6.11645 122.988 5.87255 123.16 5.71473C123.332 5.54257 123.576 5.45649 123.892 5.45649C124.193 5.45649 124.43 5.54257 124.602 5.71473C124.774 5.87255 124.86 6.11645 124.86 6.44643V15.2698C124.86 16.891 124.444 18.1105 123.612 18.9283C122.794 19.7461 121.596 20.1549 120.018 20.1549ZM119.803 14.2799C120.449 14.2799 121.001 14.1364 121.46 13.8495C121.934 13.5482 122.292 13.1249 122.536 12.5798C122.794 12.0202 122.923 11.3674 122.923 10.6214C122.923 9.48798 122.644 8.59847 122.084 7.95286C121.525 7.2929 120.764 6.96292 119.803 6.96292C119.157 6.96292 118.598 7.11356 118.124 7.41485C117.665 7.70179 117.307 8.11785 117.048 8.66303C116.79 9.20822 116.661 9.861 116.661 10.6214C116.661 11.7405 116.941 12.63 117.5 13.2899C118.074 13.9499 118.842 14.2799 119.803 14.2799ZM47.7669 39.2382C47.4799 39.2382 47.2575 39.1521 47.0997 38.98C46.9419 38.8078 46.863 38.5783 46.863 38.2913V24.7119C46.863 24.4106 46.9419 24.1811 47.0997 24.0233C47.2719 23.8511 47.5014 23.765 47.7884 23.765C48.0466 23.765 48.2475 23.8152 48.391 23.9157C48.5488 24.0161 48.6922 24.1883 48.8214 24.4322L54.5888 35.2569H53.9217L59.6892 24.4322C59.8183 24.1883 59.9546 24.0161 60.0981 23.9157C60.2415 23.8152 60.4424 23.765 60.7006 23.765C60.9876 23.765 61.21 23.8511 61.3678 24.0233C61.5256 24.1811 61.6045 24.4106 61.6045 24.7119V38.2913C61.6045 38.5783 61.5256 38.8078 61.3678 38.98C61.2243 39.1521 61.0019 39.2382 60.7006 39.2382C60.3994 39.2382 60.1698 39.1521 60.012 38.98C59.8685 38.8078 59.7968 38.5783 59.7968 38.2913V26.6918H60.2702L55.1053 36.3545C54.9906 36.541 54.8686 36.6845 54.7395 36.7849C54.6247 36.871 54.4597 36.914 54.2445 36.914C54.0437 36.914 53.8715 36.8638 53.728 36.7634C53.5989 36.6629 53.4841 36.5267 53.3837 36.3545L48.1542 26.6703H48.6707V38.2913C48.6707 38.5783 48.5918 38.8078 48.434 38.98C48.2905 39.1521 48.0681 39.2382 47.7669 39.2382ZM68.3705 39.2813C67.6531 39.2813 67.0004 39.1378 66.4121 38.8509C65.8383 38.5639 65.3863 38.1766 65.0563 37.6888C64.7407 37.201 64.5829 36.6558 64.5829 36.0532C64.5829 35.2785 64.7766 34.6687 65.164 34.224C65.5513 33.7792 66.2041 33.4636 67.1223 33.2771C68.0405 33.0762 69.2744 32.9758 70.8238 32.9758H71.8353V34.224H70.8669C69.7622 34.224 68.887 34.2742 68.2414 34.3746C67.6101 34.475 67.1654 34.6544 66.9071 34.9126C66.6489 35.1565 66.5197 35.5008 66.5197 35.9456C66.5197 36.5051 66.7134 36.9642 67.1008 37.3229C67.5025 37.6816 68.0477 37.8609 68.7363 37.8609C69.2815 37.8609 69.7622 37.7318 70.1782 37.4736C70.5943 37.201 70.9243 36.8423 71.1682 36.3975C71.4121 35.9384 71.534 35.4148 71.534 34.8265V32.3517C71.534 31.5052 71.3618 30.8955 71.0175 30.5224C70.6732 30.1351 70.0921 29.9414 69.2744 29.9414C68.8009 29.9414 68.3131 30.006 67.811 30.1351C67.3088 30.2642 66.7852 30.4651 66.24 30.7377C66.0248 30.8381 65.8383 30.8739 65.6804 30.8453C65.5226 30.8022 65.3935 30.7161 65.2931 30.587C65.207 30.4435 65.1568 30.2929 65.1424 30.1351C65.1424 29.9629 65.1783 29.7979 65.25 29.6401C65.3361 29.4823 65.4796 29.3675 65.6804 29.2958C66.3117 28.9802 66.9358 28.7578 67.5527 28.6286C68.184 28.4852 68.7722 28.4134 69.3174 28.4134C70.2499 28.4134 71.0175 28.5641 71.6201 28.8654C72.2227 29.1523 72.6746 29.6042 72.9759 30.2212C73.2772 30.8237 73.4278 31.5985 73.4278 32.5454V38.2268C73.4278 38.5567 73.3489 38.8078 73.1911 38.98C73.0333 39.1521 72.8037 39.2382 72.5024 39.2382C72.2155 39.2382 71.9859 39.1521 71.8138 38.98C71.656 38.8078 71.577 38.5567 71.577 38.2268V36.6988H71.7707C71.656 37.2297 71.4407 37.6888 71.1251 38.0761C70.8095 38.4635 70.4149 38.7648 69.9415 38.98C69.4824 39.1808 68.9587 39.2813 68.3705 39.2813ZM77.478 39.2382C77.1767 39.2382 76.94 39.1521 76.7678 38.98C76.5957 38.8078 76.5096 38.5567 76.5096 38.2268V29.4464C76.5096 29.1164 76.5957 28.8725 76.7678 28.7147C76.94 28.5426 77.1767 28.4565 77.478 28.4565C77.7793 28.4565 78.0089 28.5426 78.1667 28.7147C78.3388 28.8725 78.4249 29.1164 78.4249 29.4464V31.2111L78.1882 30.8883C78.4895 30.0705 78.9773 29.4536 79.6516 29.0375C80.3402 28.6215 81.1221 28.4134 81.9973 28.4134C82.8438 28.4134 83.5396 28.5641 84.0848 28.8654C84.63 29.1667 85.0389 29.6258 85.3115 30.2427C85.5841 30.8596 85.7203 31.6415 85.7203 32.5884V38.2268C85.7203 38.5567 85.6343 38.8078 85.4621 38.98C85.3043 39.1521 85.0676 39.2382 84.7519 39.2382C84.4363 39.2382 84.1924 39.1521 84.0202 38.98C83.8481 38.8078 83.762 38.5567 83.762 38.2268V32.696C83.762 31.7635 83.5826 31.082 83.224 30.6516C82.8653 30.2212 82.2914 30.006 81.5023 30.006C80.5841 30.006 79.8453 30.2929 79.2857 30.8668C78.7405 31.4263 78.468 32.1867 78.468 33.1479V38.2268C78.468 38.9011 78.138 39.2382 77.478 39.2382ZM92.1607 39.2813C91.4433 39.2813 90.7905 39.1378 90.2023 38.8509C89.6284 38.5639 89.1765 38.1766 88.8465 37.6888C88.5309 37.201 88.3731 36.6558 88.3731 36.0532C88.3731 35.2785 88.5668 34.6687 88.9541 34.224C89.3415 33.7792 89.9943 33.4636 90.9125 33.2771C91.8307 33.0762 93.0645 32.9758 94.614 32.9758H95.6255V34.224H94.657C93.5523 34.224 92.6772 34.2742 92.0316 34.3746C91.4003 34.475 90.9555 34.6544 90.6973 34.9126C90.439 35.1565 90.3099 35.5008 90.3099 35.9456C90.3099 36.5051 90.5036 36.9642 90.891 37.3229C91.2927 37.6816 91.8379 37.8609 92.5265 37.8609C93.0717 37.8609 93.5523 37.7318 93.9684 37.4736C94.3845 37.201 94.7144 36.8423 94.9583 36.3975C95.2022 35.9384 95.3242 35.4148 95.3242 34.8265V32.3517C95.3242 31.5052 95.152 30.8955 94.8077 30.5224C94.4634 30.1351 93.8823 29.9414 93.0645 29.9414C92.5911 29.9414 92.1033 30.006 91.6011 30.1351C91.099 30.2642 90.5753 30.4651 90.0302 30.7377C89.8149 30.8381 89.6284 30.8739 89.4706 30.8453C89.3128 30.8022 89.1837 30.7161 89.0833 30.587C88.9972 30.4435 88.947 30.2929 88.9326 30.1351C88.9326 29.9629 88.9685 29.7979 89.0402 29.6401C89.1263 29.4823 89.2698 29.3675 89.4706 29.2958C90.1019 28.9802 90.726 28.7578 91.3429 28.6286C91.9742 28.4852 92.5624 28.4134 93.1076 28.4134C94.0401 28.4134 94.8077 28.5641 95.4103 28.8654C96.0128 29.1523 96.4648 29.6042 96.766 30.2212C97.0673 30.8237 97.218 31.5985 97.218 32.5454V38.2268C97.218 38.5567 97.1391 38.8078 96.9813 38.98C96.8234 39.1521 96.5939 39.2382 96.2926 39.2382C96.0057 39.2382 95.7761 39.1521 95.6039 38.98C95.4461 38.8078 95.3672 38.5567 95.3672 38.2268V36.6988H95.5609C95.4461 37.2297 95.2309 37.6888 94.9153 38.0761C94.5997 38.4635 94.2051 38.7648 93.7317 38.98C93.2726 39.1808 92.7489 39.2813 92.1607 39.2813ZM105.013 43.1549C104.238 43.1549 103.485 43.0689 102.753 42.8967C102.036 42.7245 101.383 42.4591 100.795 42.1004C100.608 41.9857 100.479 41.8494 100.407 41.6916C100.35 41.5481 100.336 41.3974 100.364 41.2396C100.407 41.0818 100.479 40.9383 100.58 40.8092C100.694 40.6944 100.823 40.6155 100.967 40.5725C101.125 40.5438 101.283 40.5797 101.44 40.6801C102.072 41.0388 102.674 41.2827 103.248 41.4118C103.822 41.5409 104.367 41.6055 104.884 41.6055C105.902 41.6055 106.663 41.3401 107.165 40.8092C107.681 40.2927 107.94 39.5323 107.94 38.5281V36.2038H108.133C107.932 37.0073 107.48 37.6457 106.777 38.1192C106.089 38.5926 105.285 38.8293 104.367 38.8293C103.42 38.8293 102.595 38.6141 101.892 38.1837C101.189 37.739 100.644 37.1292 100.257 36.3545C99.8694 35.5654 99.6757 34.6544 99.6757 33.6214C99.6757 32.8323 99.7833 32.1221 99.9985 31.4909C100.228 30.8453 100.544 30.3001 100.945 29.8553C101.361 29.3962 101.856 29.0447 102.43 28.8008C103.004 28.5426 103.65 28.4134 104.367 28.4134C105.3 28.4134 106.11 28.6502 106.799 29.1236C107.488 29.5971 107.932 30.2355 108.133 31.0389L107.896 31.3402V29.4464C107.896 29.1164 107.983 28.8725 108.155 28.7147C108.327 28.5426 108.571 28.4565 108.886 28.4565C109.188 28.4565 109.424 28.5426 109.597 28.7147C109.769 28.8725 109.855 29.1164 109.855 29.4464V38.2698C109.855 39.891 109.439 41.1105 108.607 41.9283C107.789 42.7461 106.591 43.1549 105.013 43.1549ZM104.798 37.2799C105.443 37.2799 105.996 37.1364 106.455 36.8495C106.928 36.5482 107.287 36.1249 107.531 35.5798C107.789 35.0202 107.918 34.3674 107.918 33.6214C107.918 32.488 107.638 31.5985 107.079 30.9529C106.519 30.2929 105.759 29.9629 104.798 29.9629C104.152 29.9629 103.592 30.1136 103.119 30.4148C102.66 30.7018 102.301 31.1178 102.043 31.663C101.785 32.2082 101.656 32.861 101.656 33.6214C101.656 34.7405 101.935 35.63 102.495 36.2899C103.069 36.9499 103.836 37.2799 104.798 37.2799ZM117.836 39.2813C116.702 39.2813 115.727 39.0661 114.909 38.6357C114.105 38.1909 113.481 37.5668 113.037 36.7634C112.592 35.9456 112.369 34.9844 112.369 33.8796C112.369 32.7893 112.585 31.8352 113.015 31.0174C113.46 30.1996 114.062 29.5612 114.823 29.1021C115.597 28.643 116.48 28.4134 117.47 28.4134C118.173 28.4134 118.804 28.5354 119.364 28.7793C119.937 29.0088 120.425 29.346 120.827 29.7908C121.229 30.2355 121.53 30.7807 121.731 31.4263C121.946 32.0576 122.054 32.7749 122.054 33.5784C122.054 33.8079 121.982 33.9872 121.838 34.1164C121.709 34.2311 121.516 34.2885 121.257 34.2885H113.897V33.0403H120.762L120.397 33.3416C120.397 32.5956 120.282 31.9643 120.052 31.4478C119.837 30.917 119.514 30.5153 119.084 30.2427C118.668 29.9701 118.144 29.8338 117.513 29.8338C116.824 29.8338 116.236 29.9988 115.748 30.3288C115.26 30.6444 114.887 31.0963 114.629 31.6846C114.371 32.2584 114.242 32.9256 114.242 33.686V33.8151C114.242 35.1063 114.55 36.0819 115.167 36.7419C115.784 37.4018 116.673 37.7318 117.836 37.7318C118.295 37.7318 118.761 37.6744 119.234 37.5596C119.722 37.4449 120.188 37.2368 120.633 36.9355C120.848 36.8064 121.042 36.749 121.214 36.7634C121.401 36.7634 121.551 36.8208 121.666 36.9355C121.781 37.036 121.853 37.1651 121.881 37.3229C121.91 37.4664 121.889 37.6242 121.817 37.7964C121.745 37.9685 121.609 38.1192 121.408 38.2483C120.935 38.5783 120.368 38.8365 119.708 39.023C119.062 39.1952 118.438 39.2813 117.836 39.2813ZM125.501 39.2382C125.199 39.2382 124.963 39.1521 124.791 38.98C124.618 38.8078 124.532 38.5567 124.532 38.2268V29.4464C124.532 29.1164 124.618 28.8725 124.791 28.7147C124.963 28.5426 125.199 28.4565 125.501 28.4565C125.802 28.4565 126.032 28.5426 126.189 28.7147C126.362 28.8725 126.448 29.1164 126.448 29.4464V31.2757L126.211 30.8883C126.483 30.0992 126.921 29.4895 127.524 29.0591C128.141 28.6286 128.872 28.4134 129.719 28.4134C130.608 28.4134 131.326 28.6286 131.871 29.0591C132.416 29.4751 132.782 30.1136 132.968 30.9744H132.667C132.925 30.1853 133.384 29.5612 134.044 29.1021C134.719 28.643 135.501 28.4134 136.39 28.4134C137.179 28.4134 137.825 28.5713 138.327 28.8869C138.843 29.1882 139.231 29.6473 139.489 30.2642C139.747 30.8668 139.876 31.6415 139.876 32.5884V38.2268C139.876 38.5567 139.79 38.8078 139.618 38.98C139.446 39.1521 139.209 39.2382 138.908 39.2382C138.592 39.2382 138.348 39.1521 138.176 38.98C138.004 38.8078 137.918 38.5567 137.918 38.2268V32.6745C137.918 31.7563 137.76 31.082 137.445 30.6516C137.129 30.2212 136.598 30.006 135.852 30.006C135.034 30.006 134.381 30.2929 133.894 30.8668C133.42 31.4263 133.184 32.201 133.184 33.191V38.2268C133.184 38.5567 133.097 38.8078 132.925 38.98C132.767 39.1521 132.531 39.2382 132.215 39.2382C131.899 39.2382 131.656 39.1521 131.483 38.98C131.311 38.8078 131.225 38.5567 131.225 38.2268V32.6745C131.225 31.7563 131.067 31.082 130.752 30.6516C130.436 30.2212 129.905 30.006 129.159 30.006C128.341 30.006 127.689 30.2929 127.201 30.8668C126.727 31.4263 126.491 32.201 126.491 33.191V38.2268C126.491 38.9011 126.161 39.2382 125.501 39.2382ZM147.868 39.2813C146.734 39.2813 145.759 39.0661 144.941 38.6357C144.137 38.1909 143.513 37.5668 143.068 36.7634C142.624 35.9456 142.401 34.9844 142.401 33.8796C142.401 32.7893 142.617 31.8352 143.047 31.0174C143.492 30.1996 144.094 29.5612 144.855 29.1021C145.629 28.643 146.512 28.4134 147.502 28.4134C148.205 28.4134 148.836 28.5354 149.395 28.7793C149.969 29.0088 150.457 29.346 150.859 29.7908C151.261 30.2355 151.562 30.7807 151.763 31.4263C151.978 32.0576 152.086 32.7749 152.086 33.5784C152.086 33.8079 152.014 33.9872 151.87 34.1164C151.741 34.2311 151.548 34.2885 151.289 34.2885H143.929V33.0403H150.794L150.428 33.3416C150.428 32.5956 150.314 31.9643 150.084 31.4478C149.869 30.917 149.546 30.5153 149.116 30.2427C148.7 29.9701 148.176 29.8338 147.545 29.8338C146.856 29.8338 146.268 29.9988 145.78 30.3288C145.292 30.6444 144.919 31.0963 144.661 31.6846C144.403 32.2584 144.274 32.9256 144.274 33.686V33.8151C144.274 35.1063 144.582 36.0819 145.199 36.7419C145.816 37.4018 146.705 37.7318 147.868 37.7318C148.327 37.7318 148.793 37.6744 149.266 37.5596C149.754 37.4449 150.22 37.2368 150.665 36.9355C150.88 36.8064 151.074 36.749 151.246 36.7634C151.433 36.7634 151.583 36.8208 151.698 36.9355C151.813 37.036 151.885 37.1651 151.913 37.3229C151.942 37.4664 151.921 37.6242 151.849 37.7964C151.777 37.9685 151.641 38.1192 151.44 38.2483C150.966 38.5783 150.4 38.8365 149.74 39.023C149.094 39.1952 148.47 39.2813 147.868 39.2813ZM155.49 39.2382C155.188 39.2382 154.952 39.1521 154.779 38.98C154.607 38.8078 154.521 38.5567 154.521 38.2268V29.4464C154.521 29.1164 154.607 28.8725 154.779 28.7147C154.952 28.5426 155.188 28.4565 155.49 28.4565C155.791 28.4565 156.02 28.5426 156.178 28.7147C156.35 28.8725 156.437 29.1164 156.437 29.4464V31.2111L156.2 30.8883C156.501 30.0705 156.989 29.4536 157.663 29.0375C158.352 28.6215 159.134 28.4134 160.009 28.4134C160.855 28.4134 161.551 28.5641 162.096 28.8654C162.642 29.1667 163.05 29.6258 163.323 30.2427C163.596 30.8596 163.732 31.6415 163.732 32.5884V38.2268C163.732 38.5567 163.646 38.8078 163.474 38.98C163.316 39.1521 163.079 39.2382 162.764 39.2382C162.448 39.2382 162.204 39.1521 162.032 38.98C161.86 38.8078 161.774 38.5567 161.774 38.2268V32.696C161.774 31.7635 161.594 31.082 161.236 30.6516C160.877 30.2212 160.303 30.006 159.514 30.006C158.596 30.006 157.857 30.2929 157.297 30.8668C156.752 31.4263 156.48 32.1867 156.48 33.1479V38.2268C156.48 38.9011 156.15 39.2382 155.49 39.2382ZM171.184 39.2813C170.337 39.2813 169.627 39.1306 169.053 38.8293C168.494 38.5281 168.07 38.0905 167.784 37.5166C167.511 36.9427 167.375 36.2397 167.375 35.4076V30.1136H165.997C165.739 30.1136 165.538 30.049 165.395 29.9199C165.251 29.7764 165.18 29.5899 165.18 29.3603C165.18 29.1164 165.251 28.9299 165.395 28.8008C165.538 28.6717 165.739 28.6071 165.997 28.6071H167.375V26.2614C167.375 25.9314 167.461 25.6875 167.633 25.5297C167.805 25.3575 168.049 25.2715 168.365 25.2715C168.68 25.2715 168.917 25.3575 169.075 25.5297C169.247 25.6875 169.333 25.9314 169.333 26.2614V28.6071H171.937C172.21 28.6071 172.418 28.6717 172.561 28.8008C172.705 28.9299 172.776 29.1164 172.776 29.3603C172.776 29.5899 172.705 29.7764 172.561 29.9199C172.418 30.049 172.21 30.1136 171.937 30.1136H169.333V35.2354C169.333 36.0245 169.498 36.6199 169.828 37.0216C170.158 37.4233 170.703 37.6242 171.464 37.6242C171.736 37.6242 171.966 37.6027 172.152 37.5596C172.339 37.5022 172.504 37.4736 172.647 37.4736C172.776 37.4592 172.884 37.5022 172.97 37.6027C173.07 37.7031 173.121 37.8896 173.121 38.1622C173.121 38.3631 173.085 38.5496 173.013 38.7217C172.956 38.8796 172.834 38.9872 172.647 39.0445C172.475 39.1019 172.245 39.1521 171.958 39.1952C171.672 39.2526 171.413 39.2813 171.184 39.2813Z" fill="white"/>
<defs>
<filter id="filter0_b_985_458" x="-3.7068" y="-2.19633" width="41.4341" height="44.5986" filterUnits="userSpaceOnUse" color-interpolation-filters="sRGB">
<feFlood flood-opacity="0" result="BackgroundImageFix"/>
<feGaussianBlur in="BackgroundImageFix" stdDeviation="2.28089"/>
<feComposite in2="SourceAlpha" operator="in" result="effect1_backgroundBlur_985_458"/>
<feBlend mode="normal" in="SourceGraphic" in2="effect1_backgroundBlur_985_458" result="shape"/>
</filter>
<linearGradient id="paint0_linear_985_458" x1="1.18683" y1="19.0123" x2="33.3225" y2="21.1627" gradientUnits="userSpaceOnUse">
<stop stop-color="#5433FF"/>
<stop offset="0.5" stop-color="#20BDFF"/>
<stop offset="1" stop-color="#A5FECB"/>
</linearGradient>
<linearGradient id="paint1_linear_985_458" x1="1.18683" y1="19.0123" x2="33.3225" y2="21.1627" gradientUnits="userSpaceOnUse">
<stop stop-color="#5433FF"/>
<stop offset="0.5" stop-color="#20BDFF"/>
<stop offset="1" stop-color="#A5FECB"/>
</linearGradient>
<linearGradient id="paint2_linear_985_458" x1="1.18683" y1="19.0123" x2="33.3225" y2="21.1627" gradientUnits="userSpaceOnUse">
<stop stop-color="#5433FF"/>
<stop offset="0.5" stop-color="#20BDFF"/>
<stop offset="1" stop-color="#A5FECB"/>
</linearGradient>
<linearGradient id="paint3_linear_985_458" x1="1.18683" y1="19.0123" x2="33.3225" y2="21.1627" gradientUnits="userSpaceOnUse">
<stop stop-color="#5433FF"/>
<stop offset="0.5" stop-color="#20BDFF"/>
<stop offset="1" stop-color="#A5FECB"/>
</linearGradient>
<linearGradient id="paint4_linear_985_458" x1="1.18683" y1="19.0123" x2="33.3225" y2="21.1627" gradientUnits="userSpaceOnUse">
<stop stop-color="#5433FF"/>
<stop offset="0.5" stop-color="#20BDFF"/>
<stop offset="1" stop-color="#A5FECB"/>
</linearGradient>
<linearGradient id="paint5_linear_985_458" x1="1.18683" y1="19.0123" x2="33.3225" y2="21.1627" gradientUnits="userSpaceOnUse">
<stop stop-color="#5433FF"/>
<stop offset="0.5" stop-color="#20BDFF"/>
<stop offset="1" stop-color="#A5FECB"/>
</linearGradient>
<linearGradient id="paint6_linear_985_458" x1="1.18683" y1="19.0123" x2="33.3225" y2="21.1627" gradientUnits="userSpaceOnUse">
<stop stop-color="#5433FF"/>
<stop offset="0.5" stop-color="#20BDFF"/>
<stop offset="1" stop-color="#A5FECB"/>
</linearGradient>
<linearGradient id="paint7_linear_985_458" x1="1.18683" y1="19.0123" x2="33.3225" y2="21.1627" gradientUnits="userSpaceOnUse">
<stop stop-color="#5433FF"/>
<stop offset="0.5" stop-color="#20BDFF"/>
<stop offset="1" stop-color="#A5FECB"/>
</linearGradient>
<linearGradient id="paint8_linear_985_458" x1="1.18683" y1="19.0123" x2="33.3225" y2="21.1627" gradientUnits="userSpaceOnUse">
<stop stop-color="#5433FF"/>
<stop offset="0.5" stop-color="#20BDFF"/>
<stop offset="1" stop-color="#A5FECB"/>
</linearGradient>
</defs>
</svg>
