<svg width="27" height="27" viewBox="0 0 27 27" fill="none" xmlns="http://www.w3.org/2000/svg">
<circle opacity="0.1" cx="13.5" cy="13.5" r="13.5" transform="rotate(-90 13.5 13.5)" fill="#D6FE43"/>
<path d="M17.8 8H8.2C7.75034 8 7.35639 8.26109 7.15095 8.64493C7.2183 8.66315 7.28372 8.69397 7.34408 8.73798L13 12.8621L18.6559 8.73798C18.7163 8.69397 18.7817 8.66315 18.8491 8.64493C18.6436 8.26109 18.2497 8 17.8 8Z" fill="#D6FE43"/>
<path d="M7 10.0129V16.75C7 17.4375 7.54 18 8.2 18H17.8C18.46 18 19 17.4375 19 16.75V10.0129L13.3441 14.137C13.1375 14.2877 12.8625 14.2877 12.6559 14.137L7 10.0129Z" fill="#D6FE43"/>
</svg>
