<svg width="27" height="27" viewBox="0 0 27 27" fill="none" xmlns="http://www.w3.org/2000/svg">
<circle opacity="0.1" cx="13.5" cy="13.5" r="13.5" transform="rotate(-90 13.5 13.5)" fill="#D6FE43"/>
<path fill-rule="evenodd" clip-rule="evenodd" d="M13.5261 18.7975C12.5593 18.7975 11.6121 18.5375 10.7824 18.05L10.5864 17.933L8.54824 18.466L9.09045 16.49L8.9598 16.2885C8.42265 15.435 8.13743 14.4485 8.13668 13.4415C8.13668 10.4905 10.5538 8.08554 13.5196 8.08554C14.9568 8.08554 16.309 8.64453 17.3216 9.65853C17.823 10.1551 18.2203 10.7458 18.4906 11.3963C18.7608 12.0467 18.8986 12.7441 18.896 13.448C18.909 16.399 16.492 18.7975 13.5261 18.7975ZM15.3749 14.267C15.5186 14.3255 16.3156 14.7155 16.4789 14.7935C16.6422 14.8715 16.7402 14.904 16.7859 14.9755C16.8317 15.047 16.8317 15.3655 16.6945 15.7425C16.5638 16.1195 15.9171 16.464 15.6035 16.5095C15.3226 16.5485 14.9698 16.568 14.5844 16.4445C14.3492 16.373 14.0487 16.2755 13.6633 16.1065C12.0432 15.411 10.9784 13.786 10.9 13.6755L10.8987 13.6738C10.8155 13.5635 10.2402 12.8004 10.2402 12.0115C10.2402 11.2185 10.6583 10.8285 10.802 10.666C10.9523 10.5035 11.1221 10.4645 11.2332 10.4645H11.5467C11.6447 10.471 11.7819 10.432 11.9126 10.744C12.0432 11.069 12.3698 11.862 12.409 11.94C12.4482 12.018 12.4744 12.109 12.4221 12.2195C12.3698 12.3235 12.3372 12.395 12.2588 12.486C12.1804 12.577 12.0889 12.694 12.0171 12.7655C11.9322 12.85 11.8538 12.9345 11.9452 13.097C12.0432 13.2595 12.3633 13.786 12.8467 14.215C13.4608 14.761 13.9834 14.9365 14.1467 15.0145C14.31 15.099 14.408 15.086 14.4995 14.9755C14.591 14.8715 14.898 14.5075 15.009 14.345C15.1201 14.189 15.2246 14.215 15.3749 14.267Z" fill="#D6FE43"/>
<path fill-rule="evenodd" clip-rule="evenodd" d="M16.007 7.48757C16.7932 7.81232 17.5066 8.28959 18.1055 8.89153C19.3271 10.107 20 11.7255 20 13.448C20 16.997 17.093 19.8895 13.5261 19.8895C12.4417 19.8895 11.3769 19.6165 10.4296 19.103L7 20L7.91457 16.659C7.35276 15.684 7.05226 14.579 7.05226 13.4415C7.05226 9.89253 9.9593 7.00004 13.5261 7.00004C14.3774 6.99709 15.2208 7.16282 16.007 7.48757ZM10.7824 18.05C11.6121 18.5375 12.5593 18.7975 13.5261 18.7975C16.492 18.7975 18.909 16.399 18.896 13.448C18.8986 12.7441 18.7608 12.0467 18.4906 11.3963C18.2203 10.7458 17.823 10.1551 17.3216 9.65853C16.309 8.64453 14.9568 8.08554 13.5196 8.08554C10.5538 8.08554 8.13668 10.4905 8.13668 13.4415C8.13743 14.4485 8.42265 15.435 8.9598 16.2885L9.09045 16.49L8.54824 18.466L10.5864 17.933L10.7824 18.05Z" fill="#D6FE43"/>
</svg>
