<svg width="40" height="40" viewBox="0 0 40 40" fill="none" xmlns="http://www.w3.org/2000/svg">
<circle opacity="0.1" cx="20" cy="20" r="20" transform="rotate(-90 20 20)" fill="#EDEDED"/>
<path fill-rule="evenodd" clip-rule="evenodd" d="M20.0383 27.8101C18.62 27.8101 17.2304 27.4268 16.0133 26.708L15.7258 26.5355L12.7358 27.3214L13.5313 24.408L13.3396 24.111C12.5516 22.8526 12.1332 21.3982 12.1321 19.9135C12.1321 15.5626 15.6779 12.0168 20.0288 12.0168C22.1371 12.0168 24.1209 12.841 25.6063 14.336C26.3418 15.0681 26.9246 15.9389 27.3211 16.898C27.7176 17.8571 27.9197 18.8853 27.9159 19.923C27.935 24.2739 24.3892 27.8101 20.0383 27.8101ZM22.7504 21.1305C22.9613 21.2168 24.1304 21.7918 24.37 21.9068C24.6096 22.0218 24.7534 22.0697 24.8204 22.1751C24.8875 22.2805 24.8875 22.7501 24.6863 23.306C24.4946 23.8618 23.5459 24.3697 23.0859 24.4368C22.6738 24.4943 22.1563 24.523 21.5908 24.341C21.2458 24.2355 20.805 24.0918 20.2396 23.8426C17.8629 22.8172 16.3009 20.4214 16.1859 20.2585L16.184 20.256C16.0619 20.0933 15.2179 18.9682 15.2179 17.8051C15.2179 16.636 15.8313 16.061 16.0421 15.8214C16.2625 15.5818 16.5117 15.5243 16.6746 15.5243H17.1346C17.2783 15.5339 17.4796 15.4764 17.6713 15.9364C17.8629 16.4155 18.3421 17.5847 18.3996 17.6997C18.4571 17.8147 18.4954 17.9489 18.4188 18.1118C18.3421 18.2651 18.2942 18.3705 18.1792 18.5047C18.0642 18.6389 17.93 18.8114 17.8246 18.9168C17.7 19.0414 17.585 19.166 17.7192 19.4055C17.8629 19.6451 18.3325 20.4214 19.0417 21.0539C19.9425 21.8589 20.7092 22.1176 20.9488 22.2326C21.1883 22.3572 21.3321 22.338 21.4663 22.1751C21.6004 22.0218 22.0509 21.4851 22.2138 21.2455C22.3767 21.0155 22.53 21.0539 22.7504 21.1305Z" fill="#EDEDED"/>
<path fill-rule="evenodd" clip-rule="evenodd" d="M23.6778 11.1352C24.8312 11.614 25.8777 12.3176 26.7563 13.2051C28.5484 14.9972 29.5354 17.3835 29.5354 19.923C29.5354 25.1555 25.2709 29.4201 20.0383 29.4201C18.4475 29.4201 16.8854 29.0176 15.4958 28.2605L10.4646 29.583L11.8063 24.6572C10.9821 23.2197 10.5413 21.5905 10.5413 19.9135C10.5413 14.681 14.8058 10.4164 20.0383 10.4164C21.2872 10.412 22.5244 10.6564 23.6778 11.1352ZM16.0133 26.708C17.2304 27.4268 18.62 27.8101 20.0383 27.8101C24.3892 27.8101 27.935 24.2739 27.9159 19.923C27.9197 18.8853 27.7176 17.8571 27.3211 16.898C26.9246 15.9389 26.3418 15.0681 25.6063 14.336C24.1209 12.841 22.1371 12.0168 20.0288 12.0168C15.6779 12.0168 12.1321 15.5626 12.1321 19.9135C12.1332 21.3982 12.5516 22.8526 13.3396 24.111L13.5313 24.408L12.7358 27.3214L15.7258 26.5355L16.0133 26.708Z" fill="#EDEDED"/>
</svg>
