<svg width="40" height="40" viewBox="0 0 40 40" fill="none" xmlns="http://www.w3.org/2000/svg">
<circle opacity="0.1" cx="20" cy="20" r="20" transform="rotate(-90 20 20)" fill="#EDEDED"/>
<path d="M27.3334 12.667H12.6667C11.9797 12.667 11.3779 13.0499 11.064 13.6129C11.1669 13.6396 11.2668 13.6848 11.359 13.7494L20 19.7981L28.641 13.7494C28.7332 13.6848 28.8332 13.6396 28.9361 13.6129C28.6222 13.0499 28.0203 12.667 27.3334 12.667Z" fill="#EDEDED"/>
<path d="M10.8334 15.6193V25.5003C10.8334 26.5087 11.6584 27.3337 12.6667 27.3337H27.3334C28.3417 27.3337 29.1667 26.5087 29.1667 25.5003V15.6193L20.5257 21.668C20.2101 21.8889 19.79 21.8889 19.4744 21.668L10.8334 15.6193Z" fill="#EDEDED"/>
</svg>
