<svg width="166" height="29" viewBox="0 0 166 29" fill="none" xmlns="http://www.w3.org/2000/svg">
<path d="M33.3198 18.4802C32.4399 18.4802 32 18.0384 32 17.1548V1.82538C32 0.941793 32.4399 0.5 33.3198 0.5C34.1997 0.5 34.6396 0.941793 34.6396 1.82538V8.27723H44.665V1.82538C44.665 0.941793 45.105 0.5 45.9848 0.5C46.8478 0.5 47.2793 0.941793 47.2793 1.82538V17.1548C47.2793 18.0384 46.8478 18.4802 45.9848 18.4802C45.105 18.4802 44.665 18.0384 44.665 17.1548V10.4529H34.6396V17.1548C34.6396 18.0384 34.1997 18.4802 33.3198 18.4802Z" fill="white"/>
<path d="M56.99 18.5302C54.9595 18.5302 53.3605 17.9717 52.193 16.8547C51.0255 15.721 50.4417 14.1789 50.4417 12.2284C50.4417 10.978 50.6955 9.87769 51.2032 8.92742C51.7277 7.96047 52.4468 7.21026 53.3605 6.67677C54.2742 6.14329 55.3233 5.87654 56.5078 5.87654C58.2167 5.87654 59.5619 6.41837 60.5433 7.50201C61.5247 8.56898 62.0154 10.0444 62.0154 11.9283C62.0154 12.4951 61.677 12.7785 61.0002 12.7785H52.9291C53.1152 15.3126 54.4773 16.5796 57.0154 16.5796C57.523 16.5796 58.056 16.5213 58.6144 16.4046C59.1727 16.2712 59.7142 16.0378 60.2387 15.7044C60.5941 15.5043 60.8986 15.4376 61.1524 15.5043C61.4232 15.5543 61.6178 15.696 61.7362 15.9294C61.8546 16.1462 61.8716 16.3962 61.787 16.6796C61.7193 16.9464 61.5247 17.1798 61.2032 17.3798C60.6279 17.7633 59.9511 18.055 59.1727 18.2551C58.4113 18.4385 57.6837 18.5302 56.99 18.5302ZM56.6093 7.65205C55.5433 7.65205 54.6973 7.97715 54.0712 8.62733C53.4451 9.27752 53.0644 10.1444 52.9291 11.2281H59.858C59.8073 10.0944 59.5027 9.21917 58.9443 8.60233C58.3859 7.96881 57.6076 7.65205 56.6093 7.65205Z" fill="white"/>
<path d="M68.7948 18.5302C67.475 18.5302 66.4767 18.1551 65.7999 17.4049C65.14 16.6546 64.8101 15.5543 64.8101 14.1039V1.77537C64.8101 0.925122 65.2331 0.5 66.0791 0.5C66.942 0.5 67.3735 0.925122 67.3735 1.77537V13.9539C67.3735 15.6043 68.0503 16.4296 69.404 16.4296C69.5563 16.4296 69.6916 16.4212 69.8101 16.4046C69.9285 16.3879 70.047 16.3796 70.1654 16.3796C70.3685 16.3629 70.5123 16.4212 70.5969 16.5546C70.6815 16.6713 70.7238 16.9214 70.7238 17.3048C70.7238 17.9884 70.4023 18.3801 69.7593 18.4802C69.5901 18.4968 69.4209 18.5052 69.2517 18.5052C69.0994 18.5218 68.9471 18.5302 68.7948 18.5302Z" fill="white"/>
<path d="M76.5528 18.5302C75.233 18.5302 74.2347 18.1551 73.5579 17.4049C72.898 16.6546 72.5681 15.5543 72.5681 14.1039V1.77537C72.5681 0.925122 72.9911 0.5 73.8371 0.5C74.7 0.5 75.1315 0.925122 75.1315 1.77537V13.9539C75.1315 15.6043 75.8083 16.4296 77.162 16.4296C77.3143 16.4296 77.4496 16.4212 77.5681 16.4046C77.6865 16.3879 77.805 16.3796 77.9234 16.3796C78.1265 16.3629 78.2703 16.4212 78.3549 16.5546C78.4395 16.6713 78.4818 16.9214 78.4818 17.3048C78.4818 17.9884 78.1603 18.3801 77.5173 18.4802C77.3481 18.4968 77.1789 18.5052 77.0097 18.5052C76.8574 18.5218 76.7051 18.5302 76.5528 18.5302Z" fill="white"/>
<path d="M85.5829 18.5302C84.3307 18.5302 83.2478 18.2718 82.3341 17.755C81.4204 17.2381 80.7098 16.5129 80.2021 15.5793C79.7114 14.6291 79.4661 13.5037 79.4661 12.2034C79.4661 10.903 79.7114 9.786 80.2021 8.8524C80.7098 7.90212 81.4204 7.16858 82.3341 6.65177C83.2478 6.13495 84.3307 5.87654 85.5829 5.87654C86.8011 5.87654 87.8671 6.13495 88.7809 6.65177C89.6946 7.16858 90.4052 7.90212 90.9128 8.8524C91.4205 9.786 91.6743 10.903 91.6743 12.2034C91.6743 13.5037 91.4205 14.6291 90.9128 15.5793C90.4052 16.5129 89.6946 17.2381 88.7809 17.755C87.8671 18.2718 86.8011 18.5302 85.5829 18.5302ZM85.5829 16.5796C86.6319 16.5796 87.478 16.2045 88.121 15.4543C88.7639 14.7041 89.0854 13.6204 89.0854 12.2034C89.0854 10.7863 88.7639 9.71098 88.121 8.97743C87.478 8.22722 86.6319 7.85211 85.5829 7.85211C84.5169 7.85211 83.6624 8.22722 83.0194 8.97743C82.3764 9.71098 82.0549 10.7863 82.0549 12.2034C82.0549 13.6204 82.3764 14.7041 83.0194 15.4543C83.6624 16.2045 84.5169 16.5796 85.5829 16.5796Z" fill="white"/>
<path d="M101.423 18.4802C100.915 18.4802 100.56 18.3218 100.357 18.005C100.171 17.6716 100.188 17.2715 100.408 16.8047L107.286 1.60032C107.455 1.21687 107.667 0.941793 107.921 0.775078C108.174 0.591693 108.47 0.5 108.809 0.5C109.113 0.5 109.393 0.591693 109.646 0.775078C109.917 0.941793 110.137 1.21687 110.306 1.60032L117.185 16.8047C117.405 17.2882 117.421 17.6883 117.235 18.005C117.066 18.3218 116.736 18.4802 116.245 18.4802C115.873 18.4802 115.577 18.3885 115.357 18.2051C115.137 18.0217 114.943 17.7383 114.773 17.3548L113.301 14.0039H104.24L102.794 17.3548C102.624 17.755 102.438 18.0467 102.235 18.2301C102.032 18.3968 101.761 18.4802 101.423 18.4802ZM108.758 3.55088L105.179 11.9033H112.413L108.809 3.55088H108.758Z" fill="white"/>
<path d="M121.741 18.4802C120.878 18.4802 120.447 18.055 120.447 17.2048V8.05217H119.026C118.332 8.05217 117.985 7.72708 117.985 7.07689C117.985 6.4267 118.332 6.10161 119.026 6.10161H120.447V5.87654C120.447 4.22607 120.862 2.98405 121.691 2.15047C122.52 1.30023 123.73 0.800086 125.32 0.650043L126.107 0.600029C126.462 0.566685 126.725 0.641707 126.894 0.825092C127.08 0.991808 127.173 1.20854 127.173 1.47528C127.173 1.72535 127.105 1.95042 126.97 2.15047C126.834 2.35053 126.631 2.46723 126.361 2.50057L125.878 2.52558C124.88 2.59227 124.153 2.86735 123.696 3.35082C123.239 3.83429 123.01 4.5595 123.01 5.52644V6.10161H125.472C126.183 6.10161 126.538 6.4267 126.538 7.07689C126.538 7.72708 126.183 8.05217 125.472 8.05217H123.01V17.2048C123.01 18.055 122.587 18.4802 121.741 18.4802Z" fill="white"/>
<path d="M129.804 18.4802C128.941 18.4802 128.51 18.055 128.51 17.2048V7.20192C128.51 6.35168 128.925 5.92656 129.754 5.92656C130.583 5.92656 130.997 6.35168 130.997 7.20192V8.27723C131.336 7.52702 131.843 6.95185 132.52 6.55174C133.214 6.15162 134.051 5.91822 135.033 5.85154C135.659 5.80152 135.997 6.13495 136.048 6.85182C136.116 7.58537 135.752 7.98548 134.957 8.05217L134.474 8.10218C132.224 8.31891 131.099 9.46091 131.099 11.5282V17.2048C131.099 18.055 130.667 18.4802 129.804 18.4802Z" fill="white"/>
<path d="M139.247 3.37583C138.74 3.37583 138.342 3.25079 138.054 3.00072C137.784 2.75065 137.648 2.40055 137.648 1.95042C137.648 1.00014 138.181 0.525007 139.247 0.525007C140.313 0.525007 140.846 1.00014 140.846 1.95042C140.846 2.90069 140.313 3.37583 139.247 3.37583ZM139.247 18.4552C138.401 18.4552 137.978 17.9967 137.978 17.0798V7.32696C137.978 6.4267 138.401 5.97657 139.247 5.97657C140.11 5.97657 140.542 6.4267 140.542 7.32696V17.0798C140.542 17.9967 140.11 18.4552 139.247 18.4552Z" fill="white"/>
<path d="M149.607 18.5302C148.338 18.5302 147.238 18.2718 146.307 17.755C145.394 17.2215 144.683 16.4796 144.175 15.5293C143.668 14.5624 143.414 13.4287 143.414 12.1283C143.414 10.1945 143.972 8.66901 145.089 7.55203C146.206 6.43504 147.712 5.87654 149.607 5.87654C150.199 5.87654 150.817 5.96824 151.46 6.15162C152.119 6.31834 152.729 6.60175 153.287 7.00187C153.558 7.16858 153.71 7.38531 153.744 7.65205C153.795 7.90213 153.752 8.14386 153.617 8.37726C153.498 8.59399 153.321 8.74403 153.084 8.82739C152.847 8.89408 152.576 8.84406 152.272 8.67735C151.866 8.39393 151.451 8.19388 151.028 8.07718C150.605 7.9438 150.199 7.87712 149.81 7.87712C148.608 7.87712 147.678 8.25223 147.018 9.00244C146.375 9.73599 146.053 10.7863 146.053 12.1533C146.053 13.5204 146.375 14.5957 147.018 15.3793C147.678 16.1462 148.608 16.5296 149.81 16.5296C150.199 16.5296 150.597 16.4713 151.003 16.3546C151.426 16.2379 151.849 16.0378 152.272 15.7544C152.576 15.5877 152.839 15.546 153.059 15.6293C153.295 15.7127 153.465 15.8711 153.566 16.1045C153.685 16.3212 153.718 16.5629 153.668 16.8297C153.634 17.0798 153.482 17.2882 153.211 17.4549C152.669 17.8383 152.077 18.1134 151.434 18.2801C150.808 18.4468 150.199 18.5302 149.607 18.5302Z" fill="white"/>
<path d="M159.858 18.5302C158.995 18.5302 158.225 18.3635 157.548 18.03C156.871 17.6966 156.33 17.2465 155.924 16.6796C155.535 16.1128 155.34 15.471 155.34 14.7541C155.34 13.8538 155.568 13.1453 156.025 12.6285C156.499 12.1117 157.269 11.7366 158.335 11.5032C159.418 11.2698 160.873 11.1531 162.7 11.1531H163.563V10.5029C163.563 9.5526 163.36 8.86907 162.954 8.45228C162.548 8.0355 161.88 7.8271 160.949 7.8271C160.408 7.8271 159.841 7.89379 159.249 8.02716C158.673 8.16053 158.073 8.3856 157.447 8.70236C157.091 8.86907 156.795 8.89408 156.558 8.77738C156.338 8.66068 156.186 8.47729 156.101 8.22722C156.017 7.97715 156.025 7.71874 156.127 7.452C156.228 7.18525 156.44 6.9852 156.761 6.85182C157.506 6.51839 158.242 6.27666 158.97 6.12662C159.697 5.9599 160.382 5.87654 161.025 5.87654C162.717 5.87654 163.97 6.27666 164.782 7.07689C165.594 7.86045 166 9.09413 166 10.778V17.2048C166 18.055 165.602 18.4802 164.807 18.4802C163.995 18.4802 163.589 18.055 163.589 17.2048V16.2795C163.284 16.9797 162.81 17.5299 162.168 17.93C161.525 18.3301 160.755 18.5302 159.858 18.5302ZM160.365 16.7297C161.279 16.7297 162.041 16.4129 162.65 15.7794C163.259 15.1459 163.563 14.3456 163.563 13.3787V12.7035H162.726C161.491 12.7035 160.518 12.7619 159.807 12.8786C159.113 12.9953 158.614 13.1953 158.31 13.4787C158.022 13.7455 157.878 14.1206 157.878 14.6041C157.878 15.2376 158.098 15.7544 158.538 16.1545C158.978 16.5379 159.587 16.7297 160.365 16.7297Z" fill="white"/>
<path d="M32.233 27.2682C32.0941 27.2682 32.0246 27.1952 32.0246 27.0492V22.6216C32.0246 22.4756 32.0964 22.4027 32.2399 22.4027H33.8721C34.3954 22.4027 34.7936 22.5258 35.0668 22.7722C35.3446 23.0185 35.4835 23.3698 35.4835 23.826C35.4835 24.2777 35.3446 24.629 35.0668 24.8799C34.7936 25.1263 34.3954 25.2494 33.8721 25.2494H32.4483V27.0492C32.4483 27.1952 32.3765 27.2682 32.233 27.2682ZM32.4483 24.8799H33.8374C34.6477 24.8799 35.0529 24.5286 35.0529 23.826C35.0529 23.1189 34.6477 22.7653 33.8374 22.7653H32.4483V24.8799Z" fill="white"/>
<path d="M37.4667 27.2819C37.1518 27.2819 36.8787 27.2135 36.6471 27.0766C36.4156 26.9352 36.235 26.7367 36.1054 26.4812C35.9804 26.2212 35.9179 25.9155 35.9179 25.5642C35.9179 25.2175 35.9804 24.9164 36.1054 24.6609C36.235 24.4009 36.4156 24.2001 36.6471 24.0587C36.8787 23.9173 37.1518 23.8466 37.4667 23.8466C37.7862 23.8466 38.0617 23.9173 38.2932 24.0587C38.5247 24.2001 38.703 24.4009 38.828 24.6609C38.9577 24.9164 39.0225 25.2175 39.0225 25.5642C39.0225 25.9155 38.9577 26.2212 38.828 26.4812C38.703 26.7367 38.5247 26.9352 38.2932 27.0766C38.0617 27.2135 37.7862 27.2819 37.4667 27.2819ZM37.4667 26.9329C37.8094 26.9329 38.0825 26.8143 38.2863 26.577C38.49 26.3352 38.5919 25.9976 38.5919 25.5642C38.5919 25.1308 38.49 24.7955 38.2863 24.5583C38.0825 24.321 37.8094 24.2024 37.4667 24.2024C37.1241 24.2024 36.8509 24.321 36.6471 24.5583C36.448 24.7955 36.3485 25.1308 36.3485 25.5642C36.3485 25.9976 36.448 26.3352 36.6471 26.577C36.8509 26.8143 37.1241 26.9329 37.4667 26.9329Z" fill="white"/>
<path d="M40.9882 27.2682C40.8539 27.2682 40.759 27.1975 40.7034 27.0561L39.6547 24.1751C39.6176 24.0747 39.6176 23.9971 39.6547 23.9424C39.6963 23.8876 39.7565 23.8603 39.8352 23.8603C39.9371 23.8603 40.0089 23.9196 40.0505 24.0382L40.9951 26.7344L41.9745 24.0587C42.0208 23.9264 42.1087 23.8603 42.2384 23.8603C42.368 23.8603 42.4583 23.9264 42.5093 24.0587L43.4608 26.7413L44.4332 24.0313C44.4563 23.9675 44.4841 23.9241 44.5165 23.9013C44.5489 23.874 44.5929 23.8603 44.6485 23.8603C44.7411 23.8603 44.7966 23.8945 44.8152 23.9629C44.8383 24.0268 44.836 24.0975 44.8082 24.1751L43.7525 27.0561C43.6969 27.1975 43.602 27.2682 43.4677 27.2682C43.3288 27.2682 43.2339 27.1975 43.183 27.0561L42.2314 24.4488L41.2799 27.0561C41.2243 27.1975 41.1271 27.2682 40.9882 27.2682Z" fill="white"/>
<path d="M47.1079 27.2819C46.5893 27.2819 46.1795 27.1313 45.8785 26.8302C45.5822 26.5246 45.434 26.1071 45.434 25.5779C45.434 25.2358 45.5012 24.9347 45.6354 24.6746C45.7697 24.4146 45.9549 24.2116 46.1911 24.0656C46.4319 23.9196 46.7074 23.8466 47.0176 23.8466C47.4667 23.8466 47.8163 23.9903 48.0664 24.2777C48.3164 24.5651 48.4414 24.9597 48.4414 25.4616C48.4414 25.5893 48.3766 25.6532 48.247 25.6532H45.8508C45.8646 26.0638 45.9781 26.3809 46.1911 26.6044C46.4087 26.8234 46.7097 26.9329 47.094 26.9329C47.2653 26.9329 47.4297 26.9124 47.5871 26.8713C47.7492 26.8257 47.9066 26.7458 48.0594 26.6318C48.1428 26.577 48.2145 26.5656 48.2747 26.5976C48.3349 26.6249 48.3673 26.6728 48.372 26.7413C48.3812 26.8052 48.3465 26.8645 48.2678 26.9192C48.1196 27.0378 47.939 27.1291 47.726 27.1929C47.5177 27.2522 47.3116 27.2819 47.1079 27.2819ZM47.0245 24.1819C46.6726 24.1819 46.3971 24.2914 46.198 24.5104C46.0036 24.7248 45.8901 25.0031 45.8577 25.3453H48.0594C48.0502 24.9803 47.9576 24.6951 47.7816 24.4898C47.6057 24.2845 47.3533 24.1819 47.0245 24.1819Z" fill="white"/>
<path d="M49.5204 27.2682C49.3768 27.2682 49.3051 27.1975 49.3051 27.0561V24.0792C49.3051 23.9333 49.3768 23.8603 49.5204 23.8603C49.6547 23.8603 49.7218 23.9333 49.7218 24.0792V24.5104C49.8237 24.296 49.9741 24.1317 50.1732 24.0177C50.377 23.9036 50.6108 23.8443 50.8747 23.8397C50.9303 23.8352 50.9766 23.8466 51.0137 23.874C51.0507 23.9013 51.0692 23.9447 51.0692 24.004C51.0738 24.1317 51.0067 24.2024 50.8678 24.2161L50.7706 24.223C50.4418 24.2503 50.1871 24.3575 50.0066 24.5446C49.826 24.7271 49.7357 24.9734 49.7357 25.2837V27.0561C49.7357 27.1975 49.6639 27.2682 49.5204 27.2682Z" fill="white"/>
<path d="M53.1038 27.2819C52.5852 27.2819 52.1754 27.1313 51.8745 26.8302C51.5781 26.5246 51.43 26.1071 51.43 25.5779C51.43 25.2358 51.4971 24.9347 51.6314 24.6746C51.7657 24.4146 51.9509 24.2116 52.187 24.0656C52.4278 23.9196 52.7033 23.8466 53.0135 23.8466C53.4627 23.8466 53.8123 23.9903 54.0623 24.2777C54.3123 24.5651 54.4374 24.9597 54.4374 25.4616C54.4374 25.5893 54.3725 25.6532 54.2429 25.6532H51.8467C51.8606 26.0638 51.974 26.3809 52.187 26.6044C52.4046 26.8234 52.7056 26.9329 53.0899 26.9329C53.2613 26.9329 53.4256 26.9124 53.5831 26.8713C53.7451 26.8257 53.9026 26.7458 54.0554 26.6318C54.1387 26.577 54.2105 26.5656 54.2707 26.5976C54.3309 26.6249 54.3633 26.6728 54.3679 26.7413C54.3772 26.8052 54.3424 26.8645 54.2637 26.9192C54.1155 27.0378 53.935 27.1291 53.722 27.1929C53.5136 27.2522 53.3076 27.2819 53.1038 27.2819ZM53.0205 24.1819C52.6686 24.1819 52.3931 24.2914 52.194 24.5104C51.9995 24.7248 51.886 25.0031 51.8536 25.3453H54.0554C54.0461 24.9803 53.9535 24.6951 53.7775 24.4898C53.6016 24.2845 53.3492 24.1819 53.0205 24.1819Z" fill="white"/>
<path d="M56.5859 27.2819C56.2803 27.2819 56.0164 27.2135 55.7941 27.0766C55.5719 26.9352 55.3982 26.7367 55.2732 26.4812C55.1528 26.2212 55.0926 25.9155 55.0926 25.5642C55.0926 25.0396 55.2269 24.6221 55.4955 24.3119C55.764 24.0017 56.1275 23.8466 56.5859 23.8466C56.8545 23.8466 57.0906 23.9082 57.2943 24.0313C57.5027 24.15 57.6578 24.3142 57.7597 24.5241V22.5737C57.7597 22.4323 57.8292 22.3616 57.9681 22.3616C58.1116 22.3616 58.1834 22.4323 58.1834 22.5737V27.0561C58.1834 27.1975 58.1139 27.2682 57.975 27.2682C57.8315 27.2682 57.7597 27.1975 57.7597 27.0561V26.6044C57.6578 26.8143 57.5027 26.9808 57.2943 27.104C57.0906 27.2226 56.8545 27.2819 56.5859 27.2819ZM56.6415 26.9329C56.9841 26.9329 57.2573 26.8143 57.461 26.577C57.6648 26.3352 57.7666 25.9976 57.7666 25.5642C57.7666 25.1308 57.6648 24.7955 57.461 24.5583C57.2573 24.321 56.9841 24.2024 56.6415 24.2024C56.2988 24.2024 56.0256 24.321 55.8219 24.5583C55.6228 24.7955 55.5232 25.1308 55.5232 25.5642C55.5232 25.9976 55.6228 26.3352 55.8219 26.577C56.0256 26.8143 56.2988 26.9329 56.6415 26.9329Z" fill="white"/>
<path d="M62.6504 27.2819C62.3772 27.2819 62.1364 27.2226 61.928 27.104C61.7243 26.9808 61.5715 26.8143 61.4696 26.6044V27.0561C61.4696 27.1975 61.4002 27.2682 61.2613 27.2682C61.1177 27.2682 61.046 27.1975 61.046 27.0561V22.5737C61.046 22.4323 61.1177 22.3616 61.2613 22.3616C61.4002 22.3616 61.4696 22.4323 61.4696 22.5737V24.5241C61.5715 24.3142 61.7243 24.15 61.928 24.0313C62.1364 23.9082 62.3772 23.8466 62.6504 23.8466C63.1041 23.8466 63.4653 24.0017 63.7339 24.3119C64.0071 24.6221 64.1437 25.0396 64.1437 25.5642C64.1437 25.9155 64.0811 26.2212 63.9561 26.4812C63.8357 26.7367 63.6621 26.9352 63.4352 27.0766C63.213 27.2135 62.9513 27.2819 62.6504 27.2819ZM62.5879 26.9329C62.9305 26.9329 63.2037 26.8143 63.4074 26.577C63.6112 26.3352 63.713 25.9976 63.713 25.5642C63.713 25.1308 63.6112 24.7955 63.4074 24.5583C63.2037 24.321 62.9305 24.2024 62.5879 24.2024C62.2452 24.2024 61.972 24.321 61.7683 24.5583C61.5646 24.7955 61.4627 25.1308 61.4627 25.5642C61.4627 25.9976 61.5646 26.3352 61.7683 26.577C61.972 26.8143 62.2452 26.9329 62.5879 26.9329Z" fill="white"/>
<path d="M65.7087 28.5C65.6207 28.5 65.5629 28.4681 65.5351 28.4042C65.5119 28.3449 65.5166 28.2742 65.549 28.1921L65.9865 27.2135L64.6669 24.1751C64.6299 24.0929 64.6275 24.0199 64.66 23.9561C64.6924 23.8922 64.7572 23.8603 64.8544 23.8603C64.9517 23.8603 65.0234 23.9173 65.0697 24.0313L66.2158 26.7687L67.3687 24.0313C67.3965 23.9675 67.4266 23.9241 67.459 23.9013C67.4914 23.874 67.5377 23.8603 67.5979 23.8603C67.6859 23.8603 67.7414 23.8922 67.7646 23.9561C67.7924 24.0199 67.7901 24.0907 67.7577 24.1682L65.9449 28.3358C65.8893 28.4453 65.8106 28.5 65.7087 28.5Z" fill="white"/>
<path d="M70.5757 27.2682C70.4368 27.2682 70.3674 27.1952 70.3674 27.0492V22.5806C70.3674 22.4346 70.4368 22.3616 70.5757 22.3616C70.7193 22.3616 70.791 22.4346 70.791 22.5806V27.0492C70.791 27.1952 70.7193 27.2682 70.5757 27.2682Z" fill="white"/>
<path d="M72.2782 27.2682C72.1486 27.2682 72.0837 27.1998 72.0837 27.0629V22.5669C72.0837 22.43 72.1462 22.3616 72.2713 22.3616C72.3315 22.3616 72.3778 22.373 72.4102 22.3958C72.4426 22.4186 72.4727 22.4551 72.5005 22.5053L74.3896 26.0364L76.2649 22.5053C76.2973 22.4551 76.3274 22.4186 76.3552 22.3958C76.3876 22.373 76.4339 22.3616 76.4941 22.3616C76.6191 22.3616 76.6817 22.43 76.6817 22.5669V27.0629C76.6817 27.1998 76.6168 27.2682 76.4872 27.2682C76.3529 27.2682 76.2858 27.1998 76.2858 27.0629V23.217L74.5911 26.3854C74.5633 26.4356 74.5355 26.4721 74.5077 26.4949C74.4846 26.5132 74.4475 26.5223 74.3966 26.5223C74.341 26.5223 74.297 26.5109 74.2646 26.4881C74.2368 26.4653 74.2114 26.4311 74.1882 26.3854L72.4727 23.2238V27.0629C72.4727 27.1998 72.4079 27.2682 72.2782 27.2682Z" fill="white"/>
<path d="M77.7904 27.2682C77.6978 27.2682 77.6376 27.2408 77.6098 27.1861C77.582 27.1268 77.5867 27.0561 77.6237 26.974L79.5754 22.5532C79.631 22.4255 79.7166 22.3616 79.8324 22.3616C79.9481 22.3616 80.0338 22.4255 80.0894 22.5532L82.041 26.974C82.0827 27.0561 82.0897 27.1268 82.0619 27.1861C82.0387 27.2408 81.9832 27.2682 81.8952 27.2682C81.8304 27.2682 81.7771 27.2522 81.7354 27.2203C81.6984 27.1838 81.666 27.1359 81.6382 27.0766L81.1451 25.9406H78.5197L78.0265 27.0766C77.971 27.2043 77.8923 27.2682 77.7904 27.2682ZM79.8254 22.9227L78.6794 25.5779H80.9853L79.8393 22.9227H79.8254Z" fill="white"/>
<path d="M83.1779 27.2682C83.0436 27.2682 82.9765 27.1975 82.9765 27.0561V22.5806C82.9765 22.4346 83.0367 22.3616 83.157 22.3616C83.2126 22.3616 83.2543 22.3707 83.2821 22.389C83.3145 22.4072 83.3469 22.4414 83.3793 22.4916L86.4145 26.5155V22.5669C86.4145 22.43 86.4816 22.3616 86.6159 22.3616C86.7456 22.3616 86.8104 22.43 86.8104 22.5669V27.0561C86.8104 27.1975 86.7525 27.2682 86.6367 27.2682C86.5488 27.2682 86.4724 27.2249 86.4075 27.1382L83.3724 23.1075V27.0561C83.3724 27.1975 83.3075 27.2682 83.1779 27.2682Z" fill="white"/>
<path d="M89.6186 27.2819C88.9195 27.2819 88.3499 27.1154 87.9101 26.7823C87.8313 26.7276 87.7943 26.6637 87.7989 26.5907C87.8082 26.5132 87.8429 26.4561 87.9031 26.4196C87.9633 26.3831 88.0328 26.3923 88.1115 26.447C88.3245 26.6067 88.549 26.723 88.7852 26.796C89.026 26.8645 89.3038 26.8987 89.6186 26.8987C90.0585 26.8987 90.3873 26.8143 90.6049 26.6455C90.8272 26.4767 90.9383 26.2554 90.9383 25.9817C90.9383 25.7536 90.8573 25.5756 90.6952 25.4479C90.5378 25.3202 90.2762 25.2198 89.9104 25.1468L89.2089 25.0031C88.7736 24.9164 88.4472 24.7704 88.2295 24.5651C88.0165 24.3598 87.9101 24.0861 87.9101 23.7439C87.9101 23.4656 87.9818 23.2216 88.1254 23.0117C88.2735 22.8018 88.4773 22.6399 88.7366 22.5258C88.9959 22.4072 89.2945 22.3479 89.6325 22.3479C89.9335 22.3479 90.209 22.389 90.459 22.4711C90.7137 22.5532 90.9452 22.6832 91.1536 22.8611C91.2231 22.9159 91.2532 22.9798 91.2439 23.0528C91.2346 23.1258 91.1999 23.1805 91.1397 23.217C91.0841 23.2489 91.017 23.2352 90.9383 23.1759C90.7438 23.0208 90.5401 22.9091 90.3271 22.8406C90.1141 22.7676 89.8826 22.7311 89.6325 22.7311C89.2436 22.7311 88.931 22.8224 88.6949 23.0049C88.4634 23.1873 88.3476 23.4314 88.3476 23.7371C88.3476 23.9789 88.4217 24.1705 88.5699 24.3119C88.718 24.4488 88.9565 24.5492 89.2853 24.613L89.9937 24.7567C90.4614 24.8525 90.8086 24.9962 91.0355 25.1879C91.2624 25.3749 91.3759 25.6327 91.3759 25.9611C91.3759 26.2212 91.3041 26.4516 91.1606 26.6523C91.0216 26.8485 90.8202 27.0036 90.5563 27.1177C90.2924 27.2272 89.9798 27.2819 89.6186 27.2819Z" fill="white"/>
<path fill-rule="evenodd" clip-rule="evenodd" d="M4.71675 5.91995C5.4753 6.26282 5.81049 7.15177 5.46542 7.90547C4.78376 9.39434 3.95122 11.5165 3.45311 13.7484C2.9484 16.0098 2.82676 18.2116 3.38822 19.9563C3.91208 21.5841 5.06037 22.9322 7.48607 23.5879C10.03 24.2755 14.0195 24.2037 20.0996 22.6209C20.9057 22.411 21.7305 22.8902 21.9417 23.6912C22.1529 24.4922 21.6706 25.3117 20.8645 25.5216C14.5799 27.1576 9.98417 27.3706 6.69391 26.4813C3.28537 25.56 1.35043 23.4695 0.513741 20.8695C-0.285357 18.3864 -0.0448901 15.5713 0.506831 13.0992C1.06516 10.5975 1.98337 8.26937 2.71845 6.66384C3.06352 5.91013 3.95819 5.57708 4.71675 5.91995Z" fill="url(#paint0_linear_1_439)"/>
<path fill-rule="evenodd" clip-rule="evenodd" d="M11.748 2.14295C12.5363 2.41272 12.9553 3.26642 12.6838 4.04975L8.78462 15.2994C8.51311 16.0827 7.65391 16.4991 6.86554 16.2293C6.07717 15.9595 5.65817 15.1058 5.92968 14.3225L9.8289 3.07283C10.1004 2.2895 10.9596 1.87318 11.748 2.14295Z" fill="white"/>
<path fill-rule="evenodd" clip-rule="evenodd" d="M17.2069 2.08216C17.9953 2.35193 18.4143 3.20564 18.1428 3.98897L14.2435 15.2386C13.972 16.022 13.1128 16.4383 12.3245 16.1685C11.5361 15.8987 11.1171 15.045 11.3886 14.2617L15.2878 3.01204C15.5593 2.22871 16.4185 1.81239 17.2069 2.08216Z" fill="white"/>
<path fill-rule="evenodd" clip-rule="evenodd" d="M20.9814 7.03516C21.7698 7.30493 22.1888 8.15863 21.9173 8.94196L18.0181 20.1916C17.7466 20.975 16.8874 21.3913 16.099 21.1215C15.3106 20.8517 14.8916 19.998 15.1632 19.2147L19.0624 7.96503C19.3339 7.1817 20.1931 6.76538 20.9814 7.03516Z" fill="white"/>
<defs>
<linearGradient id="paint0_linear_1_439" x1="1.27332" y1="14.666" x2="20.6268" y2="14.666" gradientUnits="userSpaceOnUse">
<stop stop-color="#FEC600"/>
<stop offset="0.482292" stop-color="#FF8A00"/>
<stop offset="1" stop-color="#FF0000"/>
</linearGradient>
</defs>
</svg>
