<svg width="155" height="30" viewBox="0 0 155 30" fill="none" xmlns="http://www.w3.org/2000/svg">
<path d="M0 15.9875V2.94444H2.99697V15.9875H0Z" fill="#EBEBEB"/>
<path d="M5.21308 16V1.61595e-06H8.53035L14.5014 6.91111L20.4496 1.61595e-06H23.7897V16H20.747V4.26667L14.5014 11.4889L8.23294 4.28889V16H5.21308Z" fill="#EBEBEB"/>
<path d="M26.4832 16V3.08889C26.4832 2.52593 26.6281 2.01482 26.9179 1.55556C27.2077 1.08148 27.589 0.703705 28.0618 0.422224C28.5498 0.140743 29.0837 1.61595e-06 29.6632 1.61595e-06H39.7523C40.3318 1.61595e-06 40.8657 0.140743 41.3537 0.422224C41.8418 0.703705 42.2307 1.08148 42.5205 1.55556C42.8103 2.01482 42.9551 2.52593 42.9551 3.08889V16H39.9124V10.6222H29.5031V16H26.4832ZM29.5031 7.68889H39.9124V3.22222C39.9124 3.14815 39.8819 3.08889 39.8209 3.04445C39.7599 2.98519 39.6913 2.95556 39.615 2.95556H29.7776C29.7014 2.95556 29.6327 2.98519 29.5717 3.04445C29.526 3.08889 29.5031 3.14815 29.5031 3.22222V7.68889Z" fill="#EBEBEB"/>
<path d="M45.5618 16V1.61595e-06H48.879L58.991 11.6889V1.61595e-06H62.0337V16H58.7164L48.5816 4.28889V16H45.5618Z" fill="#EBEBEB"/>
<path d="M67.7081 16C67.1285 16 65.1556 16 64.5308 16C64.5308 15.5778 64.5253 14.8933 64.5281 14.4882C64.5308 14.083 64.5308 13.6074 64.5308 13.0444H67.5507C67.6306 13.0444 67.5507 13.0444 67.6306 13.0444C67.7248 13.0444 67.7462 13.0444 67.8225 13.0444H77.6827C77.759 13.0444 77.82 13.0222 77.8658 12.9778C77.9268 12.9185 77.9573 12.8519 77.9573 12.7778V9.73333C77.9573 9.65926 77.9268 9.6 77.8658 9.55555C77.82 9.51111 77.759 9.48889 77.6827 9.48889H67.7081C67.1285 9.48889 66.5947 9.34815 66.1066 9.06666C65.6338 8.78518 65.2525 8.41481 64.9628 7.95555C64.673 7.48148 64.5281 6.95555 64.5281 6.37778V3.08889C64.5281 2.52593 64.673 2.01482 64.9628 1.55556C65.2525 1.08148 65.6338 0.703705 66.1066 0.422224C66.5947 0.140743 67.1285 1.61595e-06 67.7081 1.61595e-06H77.82C81 1.60396e-06 79.725 2.02921e-06 80.9973 0C80.9973 0.520377 80.9973 1.00049 80.9973 1.54564C80.9973 2.0908 81 2.52593 81 3.08889L80.9973 2.95556H77.9545C77.9189 2.95556 77.9168 2.95556 77.8527 2.95556C77.7886 2.95556 77.759 2.95556 77.6827 2.95556H67.8225C67.7462 2.95556 67.6776 2.98519 67.6166 3.04445C67.5708 3.08889 67.5479 3.14815 67.5479 3.22222V6.26667C67.5479 6.34074 67.5708 6.4 67.6166 6.44444C67.6776 6.48889 67.7462 6.51111 67.8225 6.51111H77.82C78.3996 6.51111 78.9258 6.65185 79.3986 6.93333C79.8866 7.21481 80.2755 7.59259 80.5653 8.06666C80.8551 8.52592 81 9.04444 81 9.62222V12.9111C81 13.4741 80.8551 13.9926 80.5653 14.4667C80.2755 14.9259 79.8866 15.2963 79.3986 15.5778C78.9258 15.8593 78.3996 16 77.82 16H67.7081Z" fill="#EBEBEB"/>
<path fill-rule="evenodd" clip-rule="evenodd" d="M2.98421 0H0L2.98421 3.02703V0Z" fill="#D6FE43"/>
</svg>
