<svg width="290" height="27" viewBox="0 0 290 27" fill="none" xmlns="http://www.w3.org/2000/svg">
<path d="M39.0564 17.5659C38.1812 17.5659 37.7437 17.1355 37.7437 16.2746V1.33998C37.7437 0.479144 38.1812 0.0487273 39.0564 0.0487273C39.9316 0.0487273 40.3692 0.479144 40.3692 1.33998V16.2746C40.3692 17.1355 39.9316 17.5659 39.0564 17.5659Z" fill="white"/>
<path d="M52.8297 17.6146C50.8943 17.6146 49.2617 17.2654 47.9321 16.567C46.6025 15.8523 45.5927 14.8372 44.9027 13.5216C44.2295 12.206 43.8929 10.6386 43.8929 8.81949C43.8929 7.01661 44.2379 5.45736 44.9279 4.14175C45.618 2.80989 46.6194 1.78664 47.9321 1.07198C49.2449 0.357328 50.8185 0 52.653 0C53.6628 0 54.6474 0.129937 55.6067 0.389813C56.5829 0.633445 57.4833 1.0395 58.308 1.60797C58.5941 1.80288 58.754 2.04651 58.7876 2.33887C58.8381 2.61499 58.7876 2.88298 58.6362 3.14286C58.5015 3.38649 58.2996 3.55703 58.0303 3.65449C57.761 3.7357 57.4581 3.67885 57.1215 3.48394C56.4651 3.0454 55.775 2.72868 55.0513 2.53378C54.3276 2.32263 53.5282 2.21705 52.653 2.21705C50.6839 2.21705 49.186 2.79365 48.1593 3.94684C47.1327 5.0838 46.6194 6.70801 46.6194 8.81949C46.6194 10.9797 47.1411 12.6202 48.1846 13.7409C49.2449 14.8616 50.8269 15.4219 52.9307 15.4219C54.2098 15.4219 55.4805 15.2189 56.7428 14.8128V10.2082H53.4861C52.7624 10.2082 52.4006 9.88335 52.4006 9.23367C52.4006 8.61646 52.7624 8.30786 53.4861 8.30786H57.8536C58.5773 8.30786 58.9391 8.65707 58.9391 9.35548V15.495C58.9391 16.1122 58.7035 16.5102 58.2323 16.6888C57.5085 16.9649 56.6586 17.1923 55.6825 17.371C54.7063 17.5334 53.7554 17.6146 52.8297 17.6146Z" fill="white"/>
<path d="M66.625 17.6146C65.7666 17.6146 65.0008 17.4522 64.3276 17.1274C63.6544 16.8025 63.1158 16.364 62.7119 15.8117C62.3248 15.2595 62.1313 14.6342 62.1313 13.9358C62.1313 13.0587 62.3585 12.3684 62.8129 11.8649C63.2841 11.3614 64.0499 10.9959 65.1102 10.7685C66.1874 10.5412 67.6348 10.4275 69.4524 10.4275H70.3108V9.79402C70.3108 8.86822 70.1088 8.20229 69.7049 7.79624C69.301 7.39018 68.6362 7.18715 67.7105 7.18715C67.1719 7.18715 66.6081 7.25212 66.0191 7.38206C65.4468 7.512 64.8494 7.73127 64.2266 8.03987C63.8732 8.20229 63.5787 8.22665 63.3431 8.11296C63.1243 7.99926 62.9728 7.8206 62.8886 7.57697C62.8045 7.33333 62.8129 7.08158 62.9139 6.82171C63.0149 6.56183 63.2252 6.36693 63.545 6.23699C64.2855 5.91214 65.0177 5.67663 65.7414 5.53045C66.4651 5.36803 67.1467 5.28682 67.7862 5.28682C69.4693 5.28682 70.7147 5.67663 71.5226 6.45626C72.3304 7.21964 72.7343 8.42156 72.7343 10.062V16.3234C72.7343 17.1517 72.3388 17.5659 71.5478 17.5659C70.74 17.5659 70.336 17.1517 70.336 16.3234V15.4219C70.0331 16.1041 69.5618 16.6401 68.9223 17.0299C68.2827 17.4197 67.517 17.6146 66.625 17.6146ZM67.1299 15.8605C68.0387 15.8605 68.7961 15.5519 69.4019 14.9347C70.0078 14.3175 70.3108 13.5378 70.3108 12.5958V11.938H69.4777C68.2491 11.938 67.2813 11.9948 66.5745 12.1085C65.8844 12.2222 65.3879 12.4171 65.085 12.6932C64.7989 12.9531 64.6558 13.3186 64.6558 13.7896C64.6558 14.4068 64.8746 14.9103 65.3122 15.3001C65.7498 15.6737 66.3557 15.8605 67.1299 15.8605Z" fill="white"/>
<path d="M77.559 17.5659C76.7175 17.5659 76.2967 17.1517 76.2967 16.3234V6.57807C76.2967 5.74972 76.709 5.33555 77.5337 5.33555C78.3584 5.33555 78.7707 5.74972 78.7707 6.57807V7.43079C79.141 6.74862 79.6543 6.22075 80.3107 5.84718C80.9671 5.47361 81.7329 5.28682 82.608 5.28682C84.493 5.28682 85.7132 6.08269 86.2686 7.67442C86.6557 6.92728 87.2111 6.34256 87.9348 5.92027C88.6585 5.49797 89.4832 5.28682 90.4089 5.28682C93.169 5.28682 94.5491 6.87855 94.5491 10.062V16.3234C94.5491 17.1517 94.1199 17.5659 93.2616 17.5659C92.4201 17.5659 91.9993 17.1517 91.9993 16.3234V10.1838C91.9993 9.17682 91.8142 8.4378 91.4439 7.96678C91.0905 7.49576 90.5014 7.26024 89.6767 7.26024C88.7511 7.26024 88.019 7.57697 87.4804 8.21041C86.9418 8.82761 86.6725 9.6722 86.6725 10.7442V16.3234C86.6725 17.1517 86.2518 17.5659 85.4103 17.5659C84.5519 17.5659 84.1228 17.1517 84.1228 16.3234V10.1838C84.1228 9.17682 83.946 8.4378 83.5926 7.96678C83.2392 7.49576 82.6501 7.26024 81.8254 7.26024C80.8998 7.26024 80.1677 7.57697 79.6291 8.21041C79.1073 8.82761 78.8465 9.6722 78.8465 10.7442V16.3234C78.8465 17.1517 78.4173 17.5659 77.559 17.5659Z" fill="white"/>
<path d="M99.3763 2.8505C98.8714 2.8505 98.4759 2.72868 98.1898 2.48505C97.9205 2.24142 97.7858 1.90033 97.7858 1.46179C97.7858 0.535991 98.316 0.0730902 99.3763 0.0730902C100.437 0.0730902 100.967 0.535991 100.967 1.46179C100.967 2.3876 100.437 2.8505 99.3763 2.8505ZM99.3763 17.5415C98.5348 17.5415 98.114 17.0949 98.114 16.2015V6.69989C98.114 5.82281 98.5348 5.38427 99.3763 5.38427C100.235 5.38427 100.664 5.82281 100.664 6.69989V16.2015C100.664 17.0949 100.235 17.5415 99.3763 17.5415Z" fill="white"/>
<path d="M105.515 17.5659C104.674 17.5659 104.253 17.1517 104.253 16.3234V6.57807C104.253 5.74972 104.665 5.33555 105.49 5.33555C106.314 5.33555 106.727 5.74972 106.727 6.57807V7.47951C107.148 6.76486 107.72 6.22075 108.444 5.84718C109.184 5.47361 110.009 5.28682 110.918 5.28682C113.829 5.28682 115.285 6.87855 115.285 10.062V16.3234C115.285 17.1517 114.864 17.5659 114.023 17.5659C113.164 17.5659 112.735 17.1517 112.735 16.3234V10.2082C112.735 9.18494 112.525 8.4378 112.104 7.96678C111.7 7.49576 111.061 7.26024 110.185 7.26024C109.159 7.26024 108.334 7.57697 107.711 8.21041C107.106 8.82761 106.803 9.64784 106.803 10.6711V16.3234C106.803 17.1517 106.373 17.5659 105.515 17.5659Z" fill="white"/>
<path d="M124.378 22C123.469 22 122.585 21.9107 121.727 21.732C120.885 21.5533 120.12 21.261 119.43 20.8549C119.127 20.6925 118.942 20.4895 118.874 20.2458C118.807 20.0022 118.832 19.7667 118.95 19.5393C119.085 19.3119 119.261 19.1414 119.48 19.0277C119.716 18.9302 119.968 18.9546 120.237 19.1008C120.978 19.4906 121.676 19.7505 122.333 19.8804C123.006 20.0266 123.629 20.0997 124.201 20.0997C126.557 20.0997 127.735 18.9627 127.735 16.6888V14.8128C127.382 15.5275 126.826 16.0879 126.069 16.4939C125.329 16.9 124.496 17.103 123.57 17.103C122.459 17.103 121.491 16.8594 120.667 16.3721C119.842 15.8686 119.202 15.1783 118.748 14.3012C118.294 13.4079 118.066 12.3684 118.066 11.1827C118.066 10.0133 118.294 8.99003 118.748 8.11296C119.202 7.21964 119.842 6.52935 120.667 6.04208C121.491 5.53858 122.459 5.28682 123.57 5.28682C124.496 5.28682 125.32 5.48985 126.044 5.8959C126.784 6.28571 127.331 6.82171 127.685 7.50388V6.57807C127.685 5.74972 128.106 5.33555 128.947 5.33555C129.789 5.33555 130.209 5.74972 130.209 6.57807V16.3965C130.209 18.2643 129.713 19.6611 128.72 20.5869C127.727 21.529 126.28 22 124.378 22ZM124.176 15.1783C125.253 15.1783 126.111 14.821 126.751 14.1063C127.39 13.3917 127.71 12.4171 127.71 11.1827C127.71 9.94832 127.39 8.98191 126.751 8.2835C126.111 7.56885 125.253 7.21152 124.176 7.21152C123.099 7.21152 122.24 7.56885 121.601 8.2835C120.961 8.98191 120.641 9.94832 120.641 11.1827C120.641 12.4171 120.961 13.3917 121.601 14.1063C122.24 14.821 123.099 15.1783 124.176 15.1783Z" fill="white"/>
<path d="M141.984 17.5659C141.177 17.5659 140.773 17.168 140.773 16.3721V1.24252C140.773 0.44666 141.177 0.0487273 141.984 0.0487273C142.338 0.0487273 142.607 0.113696 142.792 0.243632C142.994 0.37357 143.179 0.584718 143.348 0.877077L149.558 12.0842L155.768 0.877077C155.937 0.584718 156.113 0.37357 156.299 0.243632C156.5 0.113696 156.77 0.0487273 157.106 0.0487273C157.881 0.0487273 158.268 0.44666 158.268 1.24252V16.3721C158.268 17.168 157.881 17.5659 157.106 17.5659C156.315 17.5659 155.92 17.168 155.92 16.3721V4.82392L150.618 14.2525C150.484 14.4961 150.341 14.6748 150.189 14.7885C150.038 14.9022 149.827 14.959 149.558 14.959C149.272 14.959 149.045 14.9022 148.876 14.7885C148.725 14.6585 148.582 14.4799 148.447 14.2525L143.146 4.84828V16.3721C143.146 17.168 142.759 17.5659 141.984 17.5659Z" fill="white"/>
<path d="M166.127 17.6146C165.269 17.6146 164.503 17.4522 163.83 17.1274C163.157 16.8025 162.618 16.364 162.214 15.8117C161.827 15.2595 161.634 14.6342 161.634 13.9358C161.634 13.0587 161.861 12.3684 162.315 11.8649C162.786 11.3614 163.552 10.9959 164.613 10.7685C165.69 10.5412 167.137 10.4275 168.955 10.4275H169.813V9.79402C169.813 8.86822 169.611 8.20229 169.207 7.79624C168.803 7.39018 168.138 7.18715 167.213 7.18715C166.674 7.18715 166.11 7.25212 165.521 7.38206C164.949 7.512 164.352 7.73127 163.729 8.03987C163.375 8.20229 163.081 8.22665 162.845 8.11296C162.627 7.99926 162.475 7.8206 162.391 7.57697C162.307 7.33333 162.315 7.08158 162.416 6.82171C162.517 6.56183 162.728 6.36693 163.047 6.23699C163.788 5.91214 164.52 5.67663 165.244 5.53045C165.967 5.36803 166.649 5.28682 167.289 5.28682C168.972 5.28682 170.217 5.67663 171.025 6.45626C171.833 7.21964 172.237 8.42156 172.237 10.062V16.3234C172.237 17.1517 171.841 17.5659 171.05 17.5659C170.242 17.5659 169.838 17.1517 169.838 16.3234V15.4219C169.535 16.1041 169.064 16.6401 168.425 17.0299C167.785 17.4197 167.019 17.6146 166.127 17.6146ZM166.632 15.8605C167.541 15.8605 168.298 15.5519 168.904 14.9347C169.51 14.3175 169.813 13.5378 169.813 12.5958V11.938H168.98C167.751 11.938 166.784 11.9948 166.077 12.1085C165.387 12.2222 164.89 12.4171 164.587 12.6932C164.301 12.9531 164.158 13.3186 164.158 13.7896C164.158 14.4068 164.377 14.9103 164.814 15.3001C165.252 15.6737 165.858 15.8605 166.632 15.8605Z" fill="white"/>
<path d="M177.011 17.5659C176.169 17.5659 175.748 17.1517 175.748 16.3234V6.57807C175.748 5.74972 176.161 5.33555 176.986 5.33555C177.81 5.33555 178.223 5.74972 178.223 6.57807V7.47951C178.643 6.76486 179.216 6.22075 179.939 5.84718C180.68 5.47361 181.504 5.28682 182.413 5.28682C185.325 5.28682 186.781 6.87855 186.781 10.062V16.3234C186.781 17.1517 186.36 17.5659 185.518 17.5659C184.66 17.5659 184.231 17.1517 184.231 16.3234V10.2082C184.231 9.18494 184.021 8.4378 183.6 7.96678C183.196 7.49576 182.556 7.26024 181.681 7.26024C180.655 7.26024 179.83 7.57697 179.207 8.21041C178.601 8.82761 178.298 9.64784 178.298 10.6711V16.3234C178.298 17.1517 177.869 17.5659 177.011 17.5659Z" fill="white"/>
<path d="M194.232 17.6146C193.374 17.6146 192.608 17.4522 191.935 17.1274C191.262 16.8025 190.723 16.364 190.319 15.8117C189.932 15.2595 189.739 14.6342 189.739 13.9358C189.739 13.0587 189.966 12.3684 190.42 11.8649C190.892 11.3614 191.657 10.9959 192.718 10.7685C193.795 10.5412 195.242 10.4275 197.06 10.4275H197.918V9.79402C197.918 8.86822 197.716 8.20229 197.312 7.79624C196.908 7.39018 196.244 7.18715 195.318 7.18715C194.779 7.18715 194.216 7.25212 193.627 7.38206C193.054 7.512 192.457 7.73127 191.834 8.03987C191.481 8.20229 191.186 8.22665 190.951 8.11296C190.732 7.99926 190.58 7.8206 190.496 7.57697C190.412 7.33333 190.42 7.08158 190.521 6.82171C190.622 6.56183 190.833 6.36693 191.153 6.23699C191.893 5.91214 192.625 5.67663 193.349 5.53045C194.073 5.36803 194.754 5.28682 195.394 5.28682C197.077 5.28682 198.322 5.67663 199.13 6.45626C199.938 7.21964 200.342 8.42156 200.342 10.062V16.3234C200.342 17.1517 199.946 17.5659 199.155 17.5659C198.347 17.5659 197.944 17.1517 197.944 16.3234V15.4219C197.641 16.1041 197.169 16.6401 196.53 17.0299C195.89 17.4197 195.124 17.6146 194.232 17.6146ZM194.737 15.8605C195.646 15.8605 196.404 15.5519 197.009 14.9347C197.615 14.3175 197.918 13.5378 197.918 12.5958V11.938H197.085C195.857 11.938 194.889 11.9948 194.182 12.1085C193.492 12.2222 192.995 12.4171 192.692 12.6932C192.406 12.9531 192.263 13.3186 192.263 13.7896C192.263 14.4068 192.482 14.9103 192.92 15.3001C193.357 15.6737 193.963 15.8605 194.737 15.8605Z" fill="white"/>
<path d="M209.433 22C208.524 22 207.641 21.9107 206.782 21.732C205.941 21.5533 205.175 21.261 204.485 20.8549C204.182 20.6925 203.997 20.4895 203.929 20.2458C203.862 20.0022 203.887 19.7667 204.005 19.5393C204.14 19.3119 204.317 19.1414 204.535 19.0277C204.771 18.9302 205.023 18.9546 205.293 19.1008C206.033 19.4906 206.732 19.7505 207.388 19.8804C208.061 20.0266 208.684 20.0997 209.256 20.0997C211.612 20.0997 212.791 18.9627 212.791 16.6888V14.8128C212.437 15.5275 211.882 16.0879 211.124 16.4939C210.384 16.9 209.551 17.103 208.625 17.103C207.514 17.103 206.547 16.8594 205.722 16.3721C204.897 15.8686 204.258 15.1783 203.803 14.3012C203.349 13.4079 203.122 12.3684 203.122 11.1827C203.122 10.0133 203.349 8.99003 203.803 8.11296C204.258 7.21964 204.897 6.52935 205.722 6.04208C206.547 5.53858 207.514 5.28682 208.625 5.28682C209.551 5.28682 210.375 5.48985 211.099 5.8959C211.84 6.28571 212.387 6.82171 212.74 7.50388V6.57807C212.74 5.74972 213.161 5.33555 214.002 5.33555C214.844 5.33555 215.265 5.74972 215.265 6.57807V16.3965C215.265 18.2643 214.768 19.6611 213.775 20.5869C212.782 21.529 211.335 22 209.433 22ZM209.231 15.1783C210.308 15.1783 211.166 14.821 211.806 14.1063C212.446 13.3917 212.765 12.4171 212.765 11.1827C212.765 9.94832 212.446 8.98191 211.806 8.2835C211.166 7.56885 210.308 7.21152 209.231 7.21152C208.154 7.21152 207.295 7.56885 206.656 8.2835C206.016 8.98191 205.697 9.94832 205.697 11.1827C205.697 12.4171 206.016 13.3917 206.656 14.1063C207.295 14.821 208.154 15.1783 209.231 15.1783Z" fill="white"/>
<path d="M224.624 17.6146C222.605 17.6146 221.014 17.0705 219.853 15.9823C218.692 14.8778 218.111 13.3754 218.111 11.4751C218.111 10.2569 218.363 9.18494 218.868 8.25914C219.39 7.31709 220.105 6.58619 221.014 6.06644C221.923 5.5467 222.967 5.28682 224.145 5.28682C225.845 5.28682 227.183 5.81469 228.159 6.87043C229.135 7.90993 229.623 9.34736 229.623 11.1827C229.623 11.735 229.286 12.0111 228.613 12.0111H220.585C220.77 14.4799 222.125 15.7143 224.65 15.7143C225.154 15.7143 225.685 15.6574 226.24 15.5437C226.795 15.4138 227.334 15.1864 227.856 14.8616C228.209 14.6667 228.512 14.6017 228.765 14.6667C229.034 14.7154 229.227 14.8535 229.345 15.0808C229.463 15.292 229.48 15.5356 229.396 15.8117C229.328 16.0716 229.135 16.299 228.815 16.4939C228.243 16.8675 227.57 17.1517 226.795 17.3466C226.038 17.5253 225.314 17.6146 224.624 17.6146ZM224.246 7.01661C223.185 7.01661 222.344 7.33333 221.721 7.96678C221.098 8.60022 220.72 9.44481 220.585 10.5006H227.477C227.427 9.39609 227.124 8.54337 226.568 7.94241C226.013 7.32521 225.239 7.01661 224.246 7.01661Z" fill="white"/>
<path d="M233.715 17.5659C232.874 17.5659 232.453 17.1517 232.453 16.3234V6.57807C232.453 5.74972 232.866 5.33555 233.69 5.33555C234.515 5.33555 234.927 5.74972 234.927 6.57807V7.43079C235.297 6.74862 235.811 6.22075 236.467 5.84718C237.124 5.47361 237.889 5.28682 238.765 5.28682C240.649 5.28682 241.87 6.08269 242.425 7.67442C242.812 6.92728 243.368 6.34256 244.091 5.92027C244.815 5.49797 245.64 5.28682 246.565 5.28682C249.325 5.28682 250.706 6.87855 250.706 10.062V16.3234C250.706 17.1517 250.276 17.5659 249.418 17.5659C248.577 17.5659 248.156 17.1517 248.156 16.3234V10.1838C248.156 9.17682 247.971 8.4378 247.6 7.96678C247.247 7.49576 246.658 7.26024 245.833 7.26024C244.908 7.26024 244.175 7.57697 243.637 8.21041C243.098 8.82761 242.829 9.6722 242.829 10.7442V16.3234C242.829 17.1517 242.408 17.5659 241.567 17.5659C240.708 17.5659 240.279 17.1517 240.279 16.3234V10.1838C240.279 9.17682 240.103 8.4378 239.749 7.96678C239.396 7.49576 238.807 7.26024 237.982 7.26024C237.056 7.26024 236.324 7.57697 235.786 8.21041C235.264 8.82761 235.003 9.6722 235.003 10.7442V16.3234C235.003 17.1517 234.574 17.5659 233.715 17.5659Z" fill="white"/>
<path d="M260.052 17.6146C258.032 17.6146 256.442 17.0705 255.28 15.9823C254.119 14.8778 253.538 13.3754 253.538 11.4751C253.538 10.2569 253.791 9.18494 254.296 8.25914C254.817 7.31709 255.533 6.58619 256.442 6.06644C257.35 5.5467 258.394 5.28682 259.572 5.28682C261.272 5.28682 262.61 5.81469 263.586 6.87043C264.562 7.90993 265.05 9.34736 265.05 11.1827C265.05 11.735 264.714 12.0111 264.04 12.0111H256.012C256.198 14.4799 257.552 15.7143 260.077 15.7143C260.582 15.7143 261.112 15.6574 261.667 15.5437C262.223 15.4138 262.761 15.1864 263.283 14.8616C263.637 14.6667 263.939 14.6017 264.192 14.6667C264.461 14.7154 264.655 14.8535 264.773 15.0808C264.89 15.292 264.907 15.5356 264.823 15.8117C264.756 16.0716 264.562 16.299 264.242 16.4939C263.67 16.8675 262.997 17.1517 262.223 17.3466C261.465 17.5253 260.742 17.6146 260.052 17.6146ZM259.673 7.01661C258.613 7.01661 257.771 7.33333 257.148 7.96678C256.526 8.60022 256.147 9.44481 256.012 10.5006H262.904C262.854 9.39609 262.551 8.54337 261.996 7.94241C261.44 7.32521 260.666 7.01661 259.673 7.01661Z" fill="white"/>
<path d="M269.092 17.5659C268.251 17.5659 267.83 17.1517 267.83 16.3234V6.57807C267.83 5.74972 268.242 5.33555 269.067 5.33555C269.892 5.33555 270.304 5.74972 270.304 6.57807V7.47951C270.725 6.76486 271.297 6.22075 272.021 5.84718C272.761 5.47361 273.586 5.28682 274.495 5.28682C277.406 5.28682 278.862 6.87855 278.862 10.062V16.3234C278.862 17.1517 278.442 17.5659 277.6 17.5659C276.742 17.5659 276.312 17.1517 276.312 16.3234V10.2082C276.312 9.18494 276.102 8.4378 275.681 7.96678C275.277 7.49576 274.638 7.26024 273.763 7.26024C272.736 7.26024 271.911 7.57697 271.289 8.21041C270.683 8.82761 270.38 9.64784 270.38 10.6711V16.3234C270.38 17.1517 269.951 17.5659 269.092 17.5659Z" fill="white"/>
<path d="M287.627 17.6146C286.078 17.6146 284.925 17.2329 284.168 16.4695C283.411 15.7062 283.032 14.6017 283.032 13.1561V7.40642H281.517C280.81 7.40642 280.457 7.0897 280.457 6.45626C280.457 5.82281 280.81 5.50609 281.517 5.50609H283.032V2.99668C283.032 2.16833 283.461 1.75415 284.32 1.75415C285.161 1.75415 285.582 2.16833 285.582 2.99668V5.50609H288.536C289.242 5.50609 289.596 5.82281 289.596 6.45626C289.596 7.0897 289.242 7.40642 288.536 7.40642H285.582V12.9612C285.582 13.8221 285.767 14.4718 286.137 14.9103C286.524 15.3488 287.147 15.5681 288.005 15.5681C288.308 15.5681 288.569 15.5437 288.788 15.495C289.007 15.43 289.2 15.3894 289.369 15.3732C289.554 15.3732 289.705 15.4382 289.823 15.5681C289.941 15.6818 290 15.9092 290 16.2503C290 16.5102 289.949 16.7457 289.848 16.9568C289.764 17.1517 289.604 17.2817 289.369 17.3466C289.167 17.4278 288.889 17.4928 288.536 17.5415C288.199 17.5903 287.896 17.6146 287.627 17.6146Z" fill="white"/>
<path d="M37.951 25.7987C37.8128 25.7987 37.7437 25.7275 37.7437 25.5851V21.267C37.7437 21.1246 37.8151 21.0534 37.9579 21.0534H39.5821C40.1028 21.0534 40.499 21.1735 40.7709 21.4138C41.0473 21.6541 41.1855 21.9967 41.1855 22.4416C41.1855 22.8821 41.0473 23.2247 40.7709 23.4694C40.499 23.7097 40.1028 23.8298 39.5821 23.8298H38.1652V25.5851C38.1652 25.7275 38.0938 25.7987 37.951 25.7987ZM38.1652 23.4694H39.5475C40.3539 23.4694 40.757 23.1268 40.757 22.4416C40.757 21.7519 40.3539 21.4071 39.5475 21.4071H38.1652V23.4694Z" fill="white"/>
<path d="M43.159 25.812C42.8457 25.812 42.5739 25.7453 42.3435 25.6118C42.1131 25.4739 41.9334 25.2803 41.8044 25.0311C41.68 24.7775 41.6178 24.4794 41.6178 24.1368C41.6178 23.7987 41.68 23.505 41.8044 23.2558C41.9334 23.0022 42.1131 22.8065 42.3435 22.6685C42.5739 22.5306 42.8457 22.4616 43.159 22.4616C43.477 22.4616 43.7511 22.5306 43.9815 22.6685C44.2119 22.8065 44.3893 23.0022 44.5137 23.2558C44.6427 23.505 44.7072 23.7987 44.7072 24.1368C44.7072 24.4794 44.6427 24.7775 44.5137 25.0311C44.3893 25.2803 44.2119 25.4739 43.9815 25.6118C43.7511 25.7453 43.477 25.812 43.159 25.812ZM43.159 25.4716C43.5 25.4716 43.7718 25.356 43.9746 25.1246C44.1773 24.8888 44.2787 24.5595 44.2787 24.1368C44.2787 23.7141 44.1773 23.3871 43.9746 23.1557C43.7718 22.9244 43.5 22.8087 43.159 22.8087C42.8181 22.8087 42.5462 22.9244 42.3435 23.1557C42.1453 23.3871 42.0463 23.7141 42.0463 24.1368C42.0463 24.5595 42.1453 24.8888 42.3435 25.1246C42.5462 25.356 42.8181 25.4716 43.159 25.4716Z" fill="white"/>
<path d="M46.6632 25.7987C46.5296 25.7987 46.4351 25.7297 46.3799 25.5918L45.3362 22.782C45.2994 22.6841 45.2994 22.6085 45.3362 22.5551C45.3777 22.5017 45.4376 22.475 45.5159 22.475C45.6173 22.475 45.6887 22.5328 45.7302 22.6485L46.6701 25.2781L47.6446 22.6685C47.6907 22.5395 47.7783 22.475 47.9073 22.475C48.0363 22.475 48.1261 22.5395 48.1768 22.6685L49.1237 25.2848L50.0913 22.6418C50.1143 22.5795 50.142 22.5373 50.1742 22.515C50.2065 22.4883 50.2503 22.475 50.3055 22.475C50.3977 22.475 50.453 22.5083 50.4714 22.5751C50.4945 22.6374 50.4922 22.7063 50.4645 22.782L49.414 25.5918C49.3587 25.7297 49.2642 25.7987 49.1306 25.7987C48.9924 25.7987 48.8979 25.7297 48.8472 25.5918L47.9004 23.0489L46.9535 25.5918C46.8982 25.7297 46.8015 25.7987 46.6632 25.7987Z" fill="white"/>
<path d="M52.7529 25.812C52.2368 25.812 51.8291 25.6652 51.5296 25.3715C51.2347 25.0734 51.0872 24.6663 51.0872 24.1502C51.0872 23.8165 51.1541 23.5228 51.2877 23.2692C51.4213 23.0156 51.6056 22.8176 51.8406 22.6752C52.0802 22.5328 52.3543 22.4616 52.663 22.4616C53.11 22.4616 53.4579 22.6018 53.7067 22.8821C53.9555 23.1624 54.0799 23.5473 54.0799 24.0367C54.0799 24.1613 54.0154 24.2236 53.8864 24.2236H51.5019C51.5157 24.624 51.6286 24.9333 51.8406 25.1513C52.0571 25.3648 52.3566 25.4716 52.7391 25.4716C52.9096 25.4716 53.0731 25.4516 53.2298 25.4116C53.3911 25.3671 53.5477 25.2892 53.6998 25.178C53.7827 25.1246 53.8541 25.1135 53.914 25.1446C53.9739 25.1713 54.0062 25.218 54.0108 25.2848C54.02 25.3471 53.9854 25.4049 53.9071 25.4583C53.7597 25.574 53.58 25.663 53.368 25.7253C53.1607 25.7831 52.9556 25.812 52.7529 25.812ZM52.67 22.7887C52.3198 22.7887 52.0456 22.8954 51.8475 23.109C51.654 23.3181 51.5411 23.5895 51.5088 23.9232H53.6998C53.6905 23.5673 53.5984 23.2892 53.4233 23.089C53.2482 22.8888 52.9971 22.7887 52.67 22.7887Z" fill="white"/>
<path d="M55.1535 25.7987C55.0107 25.7987 54.9393 25.7297 54.9393 25.5918V22.6885C54.9393 22.5462 55.0107 22.475 55.1535 22.475C55.2872 22.475 55.354 22.5462 55.354 22.6885V23.109C55.4553 22.8999 55.6051 22.7397 55.8032 22.6285C56.0059 22.5172 56.2386 22.4594 56.5013 22.4549C56.5566 22.4505 56.6026 22.4616 56.6395 22.4883C56.6764 22.515 56.6948 22.5573 56.6948 22.6151C56.6994 22.7397 56.6326 22.8087 56.4944 22.822L56.3976 22.8287C56.0705 22.8554 55.817 22.96 55.6373 23.1424C55.4576 23.3204 55.3678 23.5606 55.3678 23.8632V25.5918C55.3678 25.7297 55.2964 25.7987 55.1535 25.7987Z" fill="white"/>
<path d="M58.7194 25.812C58.2033 25.812 57.7956 25.6652 57.4961 25.3715C57.2012 25.0734 57.0537 24.6663 57.0537 24.1502C57.0537 23.8165 57.1206 23.5228 57.2542 23.2692C57.3878 23.0156 57.5721 22.8176 57.8071 22.6752C58.0467 22.5328 58.3208 22.4616 58.6296 22.4616C59.0765 22.4616 59.4244 22.6018 59.6732 22.8821C59.922 23.1624 60.0464 23.5473 60.0464 24.0367C60.0464 24.1613 59.9819 24.2236 59.8529 24.2236H57.4684C57.4823 24.624 57.5951 24.9333 57.8071 25.1513C58.0237 25.3648 58.3231 25.4716 58.7056 25.4716C58.8761 25.4716 59.0396 25.4516 59.1963 25.4116C59.3576 25.3671 59.5142 25.2892 59.6663 25.178C59.7492 25.1246 59.8206 25.1135 59.8805 25.1446C59.9404 25.1713 59.9727 25.218 59.9773 25.2848C59.9865 25.3471 59.9519 25.4049 59.8736 25.4583C59.7262 25.574 59.5465 25.663 59.3345 25.7253C59.1272 25.7831 58.9221 25.812 58.7194 25.812ZM58.6365 22.7887C58.2863 22.7887 58.0121 22.8954 57.814 23.109C57.6205 23.3181 57.5076 23.5895 57.4753 23.9232H59.6663C59.6571 23.5673 59.5649 23.2892 59.3898 23.089C59.2147 22.8888 58.9636 22.7887 58.6365 22.7887Z" fill="white"/>
<path d="M62.1844 25.812C61.8803 25.812 61.6177 25.7453 61.3965 25.6118C61.1753 25.4739 61.0025 25.2803 60.8781 25.0311C60.7583 24.7775 60.6984 24.4794 60.6984 24.1368C60.6984 23.6251 60.8321 23.218 61.0993 22.9155C61.3665 22.6129 61.7282 22.4616 62.1844 22.4616C62.4516 22.4616 62.6866 22.5217 62.8894 22.6418C63.0967 22.7575 63.2511 22.9177 63.3524 23.1224V21.2202C63.3524 21.0823 63.4215 21.0133 63.5598 21.0133C63.7026 21.0133 63.774 21.0823 63.774 21.2202V25.5918C63.774 25.7297 63.7049 25.7987 63.5667 25.7987C63.4238 25.7987 63.3524 25.7297 63.3524 25.5918V25.1513C63.2511 25.356 63.0967 25.5184 62.8894 25.6385C62.6866 25.7542 62.4516 25.812 62.1844 25.812ZM62.2397 25.4716C62.5807 25.4716 62.8525 25.356 63.0552 25.1246C63.258 24.8888 63.3593 24.5595 63.3593 24.1368C63.3593 23.7141 63.258 23.3871 63.0552 23.1557C62.8525 22.9244 62.5807 22.8087 62.2397 22.8087C61.8987 22.8087 61.6269 22.9244 61.4241 23.1557C61.226 23.3871 61.127 23.7141 61.127 24.1368C61.127 24.5595 61.226 24.8888 61.4241 25.1246C61.6269 25.356 61.8987 25.4716 62.2397 25.4716Z" fill="white"/>
<path d="M68.2191 25.812C67.9473 25.812 67.7077 25.7542 67.5003 25.6385C67.2976 25.5184 67.1455 25.356 67.0442 25.1513V25.5918C67.0442 25.7297 66.975 25.7987 66.8368 25.7987C66.694 25.7987 66.6226 25.7297 66.6226 25.5918V21.2202C66.6226 21.0823 66.694 21.0133 66.8368 21.0133C66.975 21.0133 67.0442 21.0823 67.0442 21.2202V23.1224C67.1455 22.9177 67.2976 22.7575 67.5003 22.6418C67.7077 22.5217 67.9473 22.4616 68.2191 22.4616C68.6706 22.4616 69.03 22.6129 69.2973 22.9155C69.5691 23.218 69.7051 23.6251 69.7051 24.1368C69.7051 24.4794 69.6429 24.7775 69.5184 25.0311C69.3987 25.2803 69.2259 25.4739 69.0001 25.6118C68.7789 25.7453 68.5186 25.812 68.2191 25.812ZM68.1569 25.4716C68.4979 25.4716 68.7697 25.356 68.9724 25.1246C69.1752 24.8888 69.2766 24.5595 69.2766 24.1368C69.2766 23.7141 69.1752 23.3871 68.9724 23.1557C68.7697 22.9244 68.4979 22.8087 68.1569 22.8087C67.8159 22.8087 67.5441 22.9244 67.3413 23.1557C67.1386 23.3871 67.0372 23.7141 67.0372 24.1368C67.0372 24.5595 67.1386 24.8888 67.3413 25.1246C67.5441 25.356 67.8159 25.4716 68.1569 25.4716Z" fill="white"/>
<path d="M71.2624 27C71.1749 27 71.1173 26.9689 71.0897 26.9066C71.0666 26.8487 71.0712 26.7798 71.1035 26.6997L71.5389 25.7453L70.2257 22.782C70.1889 22.7019 70.1866 22.6307 70.2188 22.5684C70.2511 22.5061 70.3156 22.475 70.4123 22.475C70.5091 22.475 70.5805 22.5306 70.6266 22.6418L71.767 25.3115L72.9143 22.6418C72.9419 22.5795 72.9719 22.5373 73.0041 22.515C73.0364 22.4883 73.0825 22.475 73.1424 22.475C73.2299 22.475 73.2852 22.5061 73.3082 22.5684C73.3359 22.6307 73.3336 22.6997 73.3013 22.7753L71.4974 26.8398C71.4421 26.9466 71.3638 27 71.2624 27Z" fill="white"/>
<path d="M76.1056 25.7987C75.9674 25.7987 75.8982 25.7275 75.8982 25.5851V21.2269C75.8982 21.0845 75.9674 21.0133 76.1056 21.0133C76.2484 21.0133 76.3198 21.0845 76.3198 21.2269V25.5851C76.3198 25.7275 76.2484 25.7987 76.1056 25.7987Z" fill="white"/>
<path d="M77.7997 25.7987C77.6707 25.7987 77.6062 25.7319 77.6062 25.5984V21.2136C77.6062 21.0801 77.6684 21.0133 77.7928 21.0133C77.8527 21.0133 77.8988 21.0245 77.931 21.0467C77.9633 21.069 77.9932 21.1046 78.0209 21.1535L79.9008 24.5973L81.7668 21.1535C81.7991 21.1046 81.829 21.069 81.8567 21.0467C81.8889 21.0245 81.935 21.0133 81.9949 21.0133C82.1193 21.0133 82.1815 21.0801 82.1815 21.2136V25.5984C82.1815 25.7319 82.117 25.7987 81.988 25.7987C81.8544 25.7987 81.7876 25.7319 81.7876 25.5984V21.8476L80.1012 24.9377C80.0735 24.9867 80.0459 25.0222 80.0183 25.0445C79.9952 25.0623 79.9584 25.0712 79.9077 25.0712C79.8524 25.0712 79.8086 25.0601 79.7764 25.0378C79.7487 25.0156 79.7234 24.9822 79.7003 24.9377L77.9932 21.8543V25.5984C77.9932 25.7319 77.9287 25.7987 77.7997 25.7987Z" fill="white"/>
<path d="M83.2848 25.7987C83.1927 25.7987 83.1328 25.772 83.1051 25.7186C83.0775 25.6607 83.0821 25.5918 83.1189 25.5117L85.0611 21.2002C85.1163 21.0756 85.2016 21.0133 85.3168 21.0133C85.432 21.0133 85.5172 21.0756 85.5725 21.2002L87.5146 25.5117C87.5561 25.5918 87.563 25.6607 87.5354 25.7186C87.5123 25.772 87.457 25.7987 87.3695 25.7987C87.305 25.7987 87.252 25.7831 87.2105 25.7519C87.1736 25.7164 87.1414 25.6696 87.1138 25.6118L86.623 24.5039H84.0105L83.5198 25.6118C83.4645 25.7364 83.3862 25.7987 83.2848 25.7987ZM85.3099 21.5606L84.1695 24.1502H86.4641L85.3237 21.5606H85.3099Z" fill="white"/>
<path d="M88.6459 25.7987C88.5123 25.7987 88.4454 25.7297 88.4454 25.5918V21.2269C88.4454 21.0845 88.5053 21.0133 88.6251 21.0133C88.6804 21.0133 88.7219 21.0222 88.7495 21.04C88.7818 21.0578 88.8141 21.0912 88.8463 21.1402L91.8666 25.0645V21.2136C91.8666 21.0801 91.9334 21.0133 92.067 21.0133C92.196 21.0133 92.2606 21.0801 92.2606 21.2136V25.5918C92.2606 25.7297 92.203 25.7987 92.0878 25.7987C92.0002 25.7987 91.9242 25.7564 91.8597 25.6719L88.8394 21.7408V25.5918C88.8394 25.7297 88.7749 25.7987 88.6459 25.7987Z" fill="white"/>
<path d="M95.055 25.812C94.3593 25.812 93.7925 25.6496 93.3548 25.3248C93.2765 25.2714 93.2396 25.2091 93.2442 25.1379C93.2535 25.0623 93.288 25.0067 93.3479 24.9711C93.4078 24.9355 93.4769 24.9444 93.5553 24.9978C93.7672 25.1535 93.9907 25.267 94.2257 25.3382C94.4653 25.4049 94.7417 25.4383 95.055 25.4383C95.4928 25.4383 95.8199 25.356 96.0365 25.1913C96.2576 25.0267 96.3682 24.8109 96.3682 24.5439C96.3682 24.3215 96.2876 24.1479 96.1263 24.0234C95.9696 23.8988 95.7093 23.8009 95.3453 23.7297L94.6473 23.5895C94.2141 23.505 93.8893 23.3626 93.6727 23.1624C93.4608 22.9622 93.3548 22.6952 93.3548 22.3615C93.3548 22.0901 93.4262 21.8521 93.5691 21.6474C93.7165 21.4427 93.9193 21.2848 94.1773 21.1735C94.4353 21.0578 94.7325 21 95.0689 21C95.3684 21 95.6425 21.04 95.8913 21.1201C96.1447 21.2002 96.3751 21.327 96.5825 21.5006C96.6516 21.5539 96.6815 21.6162 96.6723 21.6874C96.6631 21.7586 96.6285 21.812 96.5686 21.8476C96.5133 21.8788 96.4465 21.8654 96.3682 21.8076C96.1747 21.6563 95.972 21.5473 95.76 21.4805C95.548 21.4093 95.3177 21.3737 95.0689 21.3737C94.6818 21.3737 94.3708 21.4627 94.1358 21.6407C93.9054 21.8187 93.7902 22.0567 93.7902 22.3548C93.7902 22.5907 93.864 22.7775 94.0114 22.9155C94.1589 23.0489 94.3961 23.1468 94.7233 23.2091L95.4282 23.3493C95.8936 23.4427 96.2392 23.5829 96.465 23.7697C96.6907 23.9522 96.8036 24.2036 96.8036 24.5239C96.8036 24.7775 96.7322 25.0022 96.5894 25.198C96.4511 25.3893 96.2507 25.5406 95.9881 25.6518C95.7254 25.7586 95.4144 25.812 95.055 25.812Z" fill="white"/>
<g filter="url(#filter0_b_761_235)">
<path d="M13.3242 0.759905C12.4642 1.87692 8.91554 2.53324 7.24868 2.72177C7.78582 3.45882 8.9904 3.98297 10.8666 4.23323C12.3676 4.43344 13.6991 3.86623 14.1773 3.55759C15.4211 2.55446 14.7757 1.49201 13.3242 0.759905Z" fill="url(#paint0_linear_761_235)"/>
<path d="M17.9233 6.67922C20.6396 5.43443 18.9482 3.16778 17.8608 2.20393C17.6613 3.21112 17.1282 3.36804 16.9895 3.486C16.8786 3.58037 16.039 4.01879 15.6331 4.22621C14.4912 4.69351 13.2222 5.10983 12.4263 5.29173C11.8957 5.413 11.3647 5.54111 10.238 5.78623C8.58111 6.14673 6.14734 6.41135 3.86379 6.3895C4.7216 7.21079 5.90006 8.11682 9.20186 8.5241C11.8433 8.84992 12.5818 8.42637 12.6208 8.17387C13.5092 3.88772 17.3076 6.06537 17.9233 6.67922Z" fill="url(#paint1_linear_761_235)"/>
<path d="M21.3178 12.2498C22.5704 11.4949 23.224 10.82 23.5617 10.3215C23.665 11.6364 24.2013 14.2876 22.0326 15.7219C20.5232 16.7201 19.7707 15.6949 19.5592 14.9534C19.2736 13.681 20.0653 13.0048 21.3178 12.2498Z" fill="url(#paint2_linear_761_235)"/>
<path d="M7.66116 15.7524C4.30534 16.0597 2.98151 16.0727 0.615149 15.9584C3.21989 18.1914 6.74207 18.5577 10.0116 18.6746C12.6273 18.7681 14.3924 18.2965 14.948 18.0491C17.5866 16.7273 16.1319 14.451 14.5709 14.6271C13.9513 14.697 10.3832 15.5032 7.66116 15.7524Z" fill="url(#paint3_linear_761_235)"/>
<path d="M21.106 17.6665C21.106 17.6665 23.1619 16.1672 23.7151 15.6235C23.4073 17.739 22.6526 19.0573 21.9953 19.5653C20.9146 20.4636 20.297 20.8929 19.7978 20.8001C19.0878 19.0558 21.106 17.6665 21.106 17.6665Z" fill="url(#paint4_linear_761_235)"/>
<path d="M19.719 21.9505C20.4653 21.2633 21.0791 20.7764 21.9258 20.5806C20.7599 22.9096 18.8762 23.9875 18.08 24.2354C18.0533 23.6411 18.9111 22.6944 19.719 21.9505Z" fill="url(#paint5_linear_761_235)"/>
<path d="M10.2308 24.2047C8.94326 24.3573 6.92018 24.449 6.92018 24.449C7.25766 24.771 8.54049 25.4636 10.972 25.6578C13.4034 25.8519 14.4701 25.4112 14.7765 25.2263C16.5812 24.1373 15.9922 23.2236 14.9051 23.3474C14.9051 23.3474 12.0735 23.9863 10.2308 24.2047Z" fill="url(#paint6_linear_761_235)"/>
<path fill-rule="evenodd" clip-rule="evenodd" d="M14.2233 19.7044C12.2926 20.3091 8.15513 20.6725 8.15513 20.6725C8.15513 20.6725 7.81976 20.7808 2.45804 20.716C5.20945 22.4289 8.42551 22.6953 10.0552 22.8302C10.1501 22.8381 10.2396 22.8455 10.3234 22.8527C11.5407 22.9578 13.6075 22.8556 14.6456 22.4675C17.7658 21.3012 16.2157 19.0804 14.2233 19.7044Z" fill="url(#paint7_linear_761_235)"/>
<path d="M19.0296 8.01922C19.8789 7.69219 21.5188 6.75372 21.2833 5.61605C21.4783 5.62881 23.2111 7.97393 22.2012 9.37445C21.8617 9.88361 20.8324 11.0576 19.4319 11.6801C17.6811 12.4583 15.7571 12.9063 15.2934 13.0035C14.8298 13.1007 11.8705 13.4113 10.2322 13.5014C7.99229 13.6246 6.12865 13.3605 4.78113 13.0173C3.43361 12.6741 2.35114 12.3158 1.07745 10.8934C4.6401 10.9723 9.23141 10.4173 11.4418 10.1372L13.0941 9.9654C13.4537 10.4353 14.3655 11.489 15.714 11.6282C17.3996 11.8022 19.068 11.2737 19.0296 8.01922Z" fill="url(#paint8_linear_761_235)"/>
</g>
<defs>
<filter id="filter0_b_761_235" x="-4.76356" y="-4.61889" width="33.8577" height="35.7038" filterUnits="userSpaceOnUse" color-interpolation-filters="sRGB">
<feFlood flood-opacity="0" result="BackgroundImageFix"/>
<feGaussianBlur in="BackgroundImageFix" stdDeviation="2.6894"/>
<feComposite in2="SourceAlpha" operator="in" result="effect1_backgroundBlur_761_235"/>
<feBlend mode="normal" in="SourceGraphic" in2="effect1_backgroundBlur_761_235" result="shape"/>
</filter>
<linearGradient id="paint0_linear_761_235" x1="0.853872" y1="12.4709" x2="23.8233" y2="14.0432" gradientUnits="userSpaceOnUse">
<stop stop-color="#5433FF"/>
<stop offset="0.5" stop-color="#20BDFF"/>
<stop offset="1" stop-color="#A5FECB"/>
</linearGradient>
<linearGradient id="paint1_linear_761_235" x1="0.853872" y1="12.4709" x2="23.8233" y2="14.0432" gradientUnits="userSpaceOnUse">
<stop stop-color="#5433FF"/>
<stop offset="0.5" stop-color="#20BDFF"/>
<stop offset="1" stop-color="#A5FECB"/>
</linearGradient>
<linearGradient id="paint2_linear_761_235" x1="0.853872" y1="12.4709" x2="23.8233" y2="14.0432" gradientUnits="userSpaceOnUse">
<stop stop-color="#5433FF"/>
<stop offset="0.5" stop-color="#20BDFF"/>
<stop offset="1" stop-color="#A5FECB"/>
</linearGradient>
<linearGradient id="paint3_linear_761_235" x1="0.853872" y1="12.4709" x2="23.8233" y2="14.0432" gradientUnits="userSpaceOnUse">
<stop stop-color="#5433FF"/>
<stop offset="0.5" stop-color="#20BDFF"/>
<stop offset="1" stop-color="#A5FECB"/>
</linearGradient>
<linearGradient id="paint4_linear_761_235" x1="0.853872" y1="12.4709" x2="23.8233" y2="14.0432" gradientUnits="userSpaceOnUse">
<stop stop-color="#5433FF"/>
<stop offset="0.5" stop-color="#20BDFF"/>
<stop offset="1" stop-color="#A5FECB"/>
</linearGradient>
<linearGradient id="paint5_linear_761_235" x1="0.853872" y1="12.4709" x2="23.8233" y2="14.0432" gradientUnits="userSpaceOnUse">
<stop stop-color="#5433FF"/>
<stop offset="0.5" stop-color="#20BDFF"/>
<stop offset="1" stop-color="#A5FECB"/>
</linearGradient>
<linearGradient id="paint6_linear_761_235" x1="0.853872" y1="12.4709" x2="23.8233" y2="14.0432" gradientUnits="userSpaceOnUse">
<stop stop-color="#5433FF"/>
<stop offset="0.5" stop-color="#20BDFF"/>
<stop offset="1" stop-color="#A5FECB"/>
</linearGradient>
<linearGradient id="paint7_linear_761_235" x1="0.853872" y1="12.4709" x2="23.8233" y2="14.0432" gradientUnits="userSpaceOnUse">
<stop stop-color="#5433FF"/>
<stop offset="0.5" stop-color="#20BDFF"/>
<stop offset="1" stop-color="#A5FECB"/>
</linearGradient>
<linearGradient id="paint8_linear_761_235" x1="0.853872" y1="12.4709" x2="23.8233" y2="14.0432" gradientUnits="userSpaceOnUse">
<stop stop-color="#5433FF"/>
<stop offset="0.5" stop-color="#20BDFF"/>
<stop offset="1" stop-color="#A5FECB"/>
</linearGradient>
</defs>
</svg>
