<svg width="27" height="27" viewBox="0 0 27 27" fill="none" xmlns="http://www.w3.org/2000/svg">
<circle opacity="0.1" cx="13.5" cy="13.5" r="13.5" transform="rotate(-90 13.5 13.5)" fill="#D6FE43"/>
<g clip-path="url(#clip0_229_1986)">
<path fill-rule="evenodd" clip-rule="evenodd" d="M18.757 9.06841C18.9045 9.00784 19.066 8.98694 19.2247 9.00791C19.3833 9.02888 19.5333 9.09093 19.659 9.18762C19.7847 9.28431 19.8815 9.4121 19.9394 9.55769C19.9973 9.70327 20.0141 9.86133 19.9881 10.0154L18.634 18.0277C18.5027 18.8005 17.6334 19.2437 16.9067 18.8588C16.2989 18.5367 15.3962 18.0405 14.5842 17.5227C14.1782 17.2635 12.9346 16.4336 13.0874 15.843C13.2188 15.3381 15.3084 13.4406 16.5025 12.3124C16.9712 11.8692 16.7575 11.6136 16.204 12.0212C14.829 13.0335 12.6229 14.5728 11.8933 15.0061C11.2497 15.3882 10.9141 15.4534 10.5129 15.3882C9.78094 15.2694 9.10209 15.0853 8.54803 14.8611C7.79932 14.5582 7.83574 13.5542 8.54743 13.2618L18.757 9.06841Z" fill="#D6FE43"/>
</g>
<defs>
<clipPath id="clip0_229_1986">
<rect width="14" height="14" fill="white" transform="translate(7 6)"/>
</clipPath>
</defs>
</svg>
