<svg width="40" height="40" viewBox="0 0 40 40" fill="none" xmlns="http://www.w3.org/2000/svg">
<circle opacity="0.1" cx="20" cy="20" r="20" transform="rotate(-90 20 20)" fill="#EDEDED"/>
<g clip-path="url(#clip0_1_297)">
<path fill-rule="evenodd" clip-rule="evenodd" d="M25.4808 13.6916C25.6867 13.605 25.9121 13.5751 26.1335 13.6051C26.355 13.6351 26.5643 13.7239 26.7397 13.8622C26.9152 14.0006 27.0503 14.1834 27.1311 14.3917C27.2119 14.6 27.2354 14.8262 27.1991 15.0466L25.3091 26.5108C25.1258 27.6166 23.9125 28.2508 22.8983 27.7C22.05 27.2391 20.79 26.5291 19.6566 25.7883C19.09 25.4175 17.3541 24.23 17.5675 23.385C17.7508 22.6625 20.6675 19.9475 22.3341 18.3333C22.9883 17.6991 22.69 17.3333 21.9175 17.9166C19.9983 19.365 16.9191 21.5675 15.9008 22.1875C15.0025 22.7341 14.5341 22.8275 13.9741 22.7341C12.9525 22.5641 12.005 22.3008 11.2316 21.98C10.1866 21.5466 10.2375 20.11 11.2308 19.6916L25.4808 13.6916Z" fill="#EDEDED"/>
</g>
<defs>
<clipPath id="clip0_1_297">
<rect width="20" height="20" fill="white" transform="translate(9 10)"/>
</clipPath>
</defs>
</svg>
