<svg width="26" height="24" viewBox="0 0 26 24" fill="none" xmlns="http://www.w3.org/2000/svg">
<path d="M9.61084 16.1422H16.3891" stroke="#EDEDED" stroke-width="1.55" stroke-miterlimit="10" stroke-linecap="round" stroke-linejoin="round"/>
<path d="M20.9078 16.1422H22.414C23.4496 16.1422 24.2969 15.2401 24.2969 14.1376V13.7366C24.2969 11.5316 22.6023 9.72737 20.5312 9.72737H3.58591C2.55039 9.72737 1.70312 10.6294 1.70312 11.732V14.1376C1.70312 15.2401 2.55039 16.1422 3.58591 16.1422H5.09233" stroke="#EDEDED" stroke-width="1.55" stroke-miterlimit="10" stroke-linecap="round" stroke-linejoin="round"/>
<path d="M16.3891 15.3672C16.8171 15.3672 17.1641 15.7142 17.1641 16.1422C17.1641 16.5702 16.8171 16.9172 16.3891 16.9172V15.3672ZM9.61084 15.3672H16.3891V16.9172H9.61084V15.3672Z" fill="#EDEDED"/>
<path d="M12.2469 4.91615V9.72729" stroke="#EDEDED" stroke-width="1.55" stroke-miterlimit="10" stroke-linejoin="round"/>
<path d="M20.4796 9.39785C20.6615 9.78527 20.4949 10.2468 20.1075 10.4288C19.7201 10.6107 19.2585 10.4442 19.0766 10.0567L20.4796 9.39785ZM18.3607 6.7092L17.6592 7.03865L17.6591 7.03857L18.3607 6.7092ZM6.13303 6.7092L6.83456 7.03857L6.83452 7.03866L6.13303 6.7092ZM19.0766 10.0567L17.6592 7.03865L19.0621 6.37976L20.4796 9.39785L19.0766 10.0567ZM17.6591 7.03857C17.5003 6.70034 17.1873 6.35374 16.787 6.09028C16.3845 5.82542 15.965 5.69115 15.6359 5.69115V4.14115C16.3422 4.14115 17.0537 4.41035 17.639 4.79547C18.2264 5.182 18.758 5.73193 19.0622 6.37984L17.6591 7.03857ZM15.6359 5.69115H8.85778V4.14115H15.6359V5.69115ZM8.85778 5.69115C8.5286 5.69115 8.1092 5.82542 7.70672 6.09028C7.30636 6.35374 6.99336 6.70034 6.83456 7.03857L5.4315 6.37984C5.73569 5.73193 6.26728 5.18201 6.85466 4.79548C7.43991 4.41035 8.1514 4.14115 8.85778 4.14115V5.69115ZM6.83452 7.03866L5.41706 10.0567L4.01409 9.39784L5.43154 6.37975L6.83452 7.03866Z" fill="#EDEDED"/>
<path d="M20.9077 16.1422C20.9077 17.3899 19.8961 18.4015 18.6485 18.4015C17.4009 18.4015 16.3892 17.3899 16.3892 16.1422C16.3892 14.8943 17.4009 13.8827 18.6485 13.8827C19.8961 13.8827 20.9077 14.8943 20.9077 16.1422Z" stroke="#EDEDED" stroke-width="1.55" stroke-miterlimit="10" stroke-linejoin="round"/>
<path d="M9.61089 16.1422C9.61089 17.3899 8.59924 18.4015 7.35166 18.4015C6.10404 18.4015 5.09229 17.3899 5.09229 16.1422C5.09229 14.8943 6.10404 13.8827 7.35166 13.8827C8.59924 13.8827 9.61089 14.8943 9.61089 16.1422Z" stroke="#EDEDED" stroke-width="1.55" stroke-miterlimit="10" stroke-linejoin="round"/>
<path d="M23.1431 12.9348L23.0372 12.9348" stroke="#EDEDED" stroke-width="1.55" stroke-miterlimit="10" stroke-linecap="round" stroke-linejoin="round"/>
<path d="M13.3764 12.9348H12.6233" stroke="#EDEDED" stroke-width="1.55" stroke-miterlimit="10" stroke-linecap="round" stroke-linejoin="round"/>
</svg>
