<svg width="24" height="24" viewBox="0 0 24 24" fill="none" xmlns="http://www.w3.org/2000/svg">
<g clip-path="url(#clip0_1_394)">
<mask id="mask0_1_394" style="mask-type:luminance" maskUnits="userSpaceOnUse" x="0" y="0" width="24" height="24">
<path d="M23.225 23.225V0.775002H0.775V23.225H23.225Z" fill="white" stroke="white" stroke-width="1.55"/>
</mask>
<g mask="url(#mask0_1_394)">
<path d="M16.9688 6.95938C16.929 6.95938 16.8969 6.99154 16.8969 7.03125C16.8969 7.07096 16.929 7.10312 16.9688 7.10312C17.0085 7.10312 17.0406 7.07096 17.0406 7.03125C17.0406 6.99154 17.0085 6.95938 16.9688 6.95938Z" fill="#EDEDED" stroke="#EDEDED" stroke-width="1.55"/>
<path d="M14.2532 4.2438C14.2135 4.2438 14.1813 4.27597 14.1813 4.31567C14.1813 4.35538 14.2135 4.38755 14.2532 4.38755C14.2929 4.38755 14.325 4.35538 14.325 4.31567C14.325 4.27597 14.2929 4.2438 14.2532 4.2438Z" fill="#EDEDED" stroke="#EDEDED" stroke-width="1.55"/>
<path d="M19.6841 9.67471C19.6444 9.67471 19.6122 9.70689 19.6122 9.74658C19.6122 9.78629 19.6444 9.81846 19.6841 9.81846C19.7238 9.81846 19.756 9.78629 19.756 9.74658C19.756 9.70689 19.7238 9.67471 19.6841 9.67471Z" fill="#EDEDED" stroke="#EDEDED" stroke-width="1.55"/>
<path d="M10.6406 7.55142V2.10938C10.6406 1.33275 11.2702 0.703125 12.0469 0.703125H21.8906C22.6673 0.703125 23.2969 1.33275 23.2969 2.10938V11.9531C23.2969 12.7298 22.6673 13.3594 21.8906 13.3594H16.4486" stroke="#EDEDED" stroke-width="1.55" stroke-miterlimit="10" stroke-linecap="round" stroke-linejoin="round"/>
<path d="M9.56705 11.4497L9.5163 11.3989C9.48822 11.427 9.48829 11.4725 9.51626 11.5005L9.56705 11.4497ZM9.51637 11.3989L9.56714 11.4496L9.61791 11.3989C9.58986 11.3708 9.54442 11.3708 9.51637 11.3989ZM9.61798 11.3989L9.56722 11.4497L9.61801 11.5005C9.64598 11.4725 9.64606 11.427 9.61798 11.3989ZM9.61792 11.5006L9.56714 11.4498L9.51636 11.5006C9.54441 11.5286 9.58987 11.5286 9.61792 11.5006Z" fill="#EDEDED" stroke="#EDEDED" stroke-width="1.55"/>
<path d="M5.53877 15.3764C5.51068 15.4046 5.51075 15.45 5.53872 15.478C5.53873 15.478 5.53873 15.4781 5.53873 15.4781C5.53875 15.4781 5.53876 15.4781 5.53877 15.4781C5.56692 15.5062 5.61241 15.5061 5.64043 15.4781C5.64044 15.4781 5.64045 15.4781 5.64047 15.4781C5.66845 15.45 5.66852 15.4046 5.64043 15.3764C5.64041 15.3764 5.6404 15.3764 5.64039 15.3764C5.64039 15.3764 5.64038 15.3764 5.64038 15.3764C5.6123 15.3484 5.56688 15.3484 5.53882 15.3764C5.5388 15.3764 5.53879 15.3764 5.53877 15.3764Z" fill="#EDEDED" stroke="#EDEDED" stroke-width="1.55"/>
<path d="M7.578 13.4388L7.57828 13.4385L7.5275 13.3877C7.49941 13.4159 7.49957 13.4613 7.52749 13.4893L7.578 13.4388L7.578 13.4388ZM7.52758 13.3876L7.57837 13.4384L7.62916 13.3876C7.62916 13.3876 7.62915 13.3876 7.62915 13.3876C7.6011 13.3596 7.55564 13.3596 7.52759 13.3876C7.52758 13.3876 7.52758 13.3876 7.52758 13.3876ZM7.62924 13.3877L7.57845 13.4385L7.57874 13.4388L7.57876 13.4388L7.62924 13.4893C7.65716 13.4613 7.65733 13.4159 7.62924 13.3877ZM7.57837 13.4386L7.52759 13.4894C7.55564 13.5174 7.6011 13.5174 7.62915 13.4894L7.57837 13.4386Z" fill="#EDEDED" stroke="#EDEDED" stroke-width="1.55"/>
<path d="M12.5502 14.4328L12.4995 14.3821C12.4714 14.4102 12.4714 14.4557 12.4994 14.4836L12.5502 14.4328ZM12.4995 14.382L12.5503 14.4328L12.6011 14.382C12.573 14.354 12.5276 14.354 12.4995 14.382ZM12.6011 14.3821L12.5504 14.4328L12.6012 14.4836C12.6291 14.4557 12.6292 14.4102 12.6011 14.3821ZM12.6011 14.4837L12.5503 14.4329L12.4995 14.4837C12.5276 14.5118 12.573 14.5118 12.6011 14.4837Z" fill="#EDEDED" stroke="#EDEDED" stroke-width="1.55"/>
<path d="M8.62358 18.4611L8.5728 18.4103L8.57275 18.4103L8.52193 18.3595C8.52191 18.3595 8.5219 18.3595 8.52189 18.3595C8.4939 18.3875 8.49383 18.433 8.52193 18.4611C8.52194 18.4611 8.52195 18.4611 8.52196 18.4612C8.52197 18.4612 8.52197 18.4612 8.52197 18.4612C8.55002 18.4892 8.59548 18.4892 8.62354 18.4612C8.62355 18.4612 8.62357 18.4611 8.62358 18.4611ZM8.62362 18.4611C8.65167 18.4329 8.65159 18.3875 8.62362 18.3595C8.62361 18.3595 8.62359 18.3595 8.62358 18.3595C8.59546 18.3313 8.54996 18.3314 8.52197 18.3594L8.5728 18.4103L8.57284 18.4103L8.62362 18.4611Z" fill="#EDEDED" stroke="#EDEDED" stroke-width="1.55"/>
<path d="M10.5612 16.4219L10.5614 16.4216L10.5107 16.3708C10.4826 16.399 10.4827 16.4445 10.5106 16.4724L10.5612 16.4219L10.5612 16.4219ZM10.5107 16.3708L10.5615 16.4215L10.6123 16.3708C10.6123 16.3708 10.6123 16.3708 10.6123 16.3708C10.5843 16.3428 10.5388 16.3428 10.5107 16.3708C10.5107 16.3708 10.5107 16.3708 10.5107 16.3708ZM10.6124 16.3708L10.5616 16.4216L10.5619 16.4219L10.5619 16.4219L10.6124 16.4724C10.6403 16.4445 10.6405 16.399 10.6124 16.3708ZM10.5615 16.4217L10.5107 16.4725C10.5388 16.5006 10.5843 16.5006 10.6123 16.4725L10.5615 16.4217Z" fill="#EDEDED" stroke="#EDEDED" stroke-width="1.55"/>
<path d="M1.11498 13.9357L8.07559 6.9751C8.62473 6.42591 9.51512 6.42591 10.0643 6.9751L17.0249 13.9357C17.5741 14.4848 17.5741 15.3752 17.0249 15.9244L10.0643 22.885C9.51512 23.4342 8.62473 23.4342 8.07559 22.885L1.11498 15.9244C0.56584 15.3752 0.56584 14.4848 1.11498 13.9357Z" stroke="#EDEDED" stroke-width="1.55" stroke-miterlimit="10" stroke-linecap="round" stroke-linejoin="round"/>
</g>
</g>
<defs>
<clipPath id="clip0_1_394">
<rect width="24" height="24" fill="white"/>
</clipPath>
</defs>
</svg>
